1_False.ufo
<glyph name="s" format="2">
  <advance width="1210"/>
  <unicode hex="0073"/>
  <outline>
    <contour>
      <point x="167.6481962357889" y="718.0758998294585" type="line"/>
      <point x="103.49572649422637" y="750.7632158107058" type="line"/>
      <point x="20.61157903996039" y="508.7971037520551" type="line"/>
    </contour>
    <contour>
      <point x="225.87947846086314" y="744.253655490014" type="line"/>
      <point x="161.7270087193006" y="776.9409714712613" type="line"/>
      <point x="32.81231050594238" y="444.63481691862773" type="line"/>
    </contour>
    <contour>
      <point x="278.927551150411" y="760.2587896639109" type="line"/>
      <point x="214.77508140884845" y="792.9461056451582" type="line"/>
      <point x="55.01218272868786" y="400.0969487804493" type="line"/>
    </contour>
    <contour>
      <point x="329.3701723619536" y="771.1504373954909" type="line"/>
      <point x="265.2177026203911" y="803.8377533767382" type="line"/>
      <point x="83.2891717809469" y="367.4860939750563" type="line"/>
    </contour>
    <contour>
      <point x="378.1943174419248" y="778.8656468683394" type="line"/>
      <point x="314.04184770036227" y="811.5529628495867" type="line"/>
      <point x="115.63936359686916" y="342.8693497046814" type="line"/>
    </contour>
    <contour>
      <point x="425.90028392103744" y="784.3863072721118" type="line"/>
      <point x="361.7478141794749" y="817.0736232533591" type="line"/>
      <point x="150.89509461112448" y="323.955047189112" type="line"/>
    </contour>
    <contour>
      <point x="145.29556588952036" y="233.66853976914405" type="line"/>
      <point x="81.14309614795783" y="266.3558557503913" type="line"/>
      <point x="38.381721079673426" y="103.13511828646028" type="line"/>
    </contour>
    <contour>
      <point x="472.78180365262307" y="788.2888998279582" type="line"/>
      <point x="408.62933391106054" y="820.9762158092054" type="line"/>
      <point x="188.3140903566388" y="309.2863907613002" type="line"/>
    </contour>
    <contour>
      <point x="188.42167620726048" y="230.20072635690423" type="line"/>
      <point x="124.26920646569793" y="262.88804233815154" type="line"/>
      <point x="40.078474353181555" y="18.357613502886707" type="line"/>
    </contour>
    <contour>
      <point x="519.0277366845733" y="790.9440832499407" type="line"/>
      <point x="454.8752669430108" y="823.6313992311881" type="line"/>
      <point x="227.39423734070004" y="297.8779272054937" type="line"/>
    </contour>
    <contour>
      <point x="231.79748129985734" y="227.22296653296797" type="line"/>
      <point x="167.64501155829478" y="259.9102825142152" type="line"/>
      <point x="82.62256885025556" y="13.747529726637396" type="line"/>
    </contour>
    <contour>
      <point x="564.7679242998137" y="792.6066854039776" type="line"/>
      <point x="500.61545455825114" y="825.2940013852249" type="line"/>
      <point x="408.4036182963365" y="565.0212692806" type="line"/>
    </contour>
    <contour>
      <point x="428.3278894605894" y="524.8280396570262" type="line"/>
      <point x="364.1754197190269" y="557.5153556382735" type="line"/>
      <point x="267.7818769640112" y="289.0355624393496" type="line"/>
    </contour>
    <contour>
      <point x="275.4016436138231" y="224.69338299069858" type="line"/>
      <point x="211.24917387226063" y="257.38069897194583" type="line"/>
      <point x="125.37686094870898" y="9.549981971087306" type="line"/>
    </contour>
    <contour>
      <point x="610.0967965222901" y="793.4620356470997" type="line"/>
      <point x="545.9443267807276" y="826.149351628347" type="line"/>
      <point x="454.20373265754256" y="566.8014842958296" type="line"/>
    </contour>
    <contour>
      <point x="471.7658912516506" y="521.9723477269039" type="line"/>
      <point x="407.6134215100881" y="554.6596637081511" type="line"/>
      <point x="309.21641867972176" y="282.2478587179839" type="line"/>
    </contour>
    <contour>
      <point x="319.2178194911674" y="222.57989949522508" type="line"/>
      <point x="255.06534974960488" y="255.26721547647236" type="line"/>
      <point x="168.311387275559" y="5.706163805639989" type="line"/>
    </contour>
    <contour>
      <point x="655.0888077939597" y="793.6562590492741" type="line"/>
      <point x="590.9363380523972" y="826.3435750305214" type="line"/>
      <point x="499.19801388171095" y="567.0001627306249" type="line"/>
    </contour>
    <contour>
      <point x="515.9134801938046" y="520.5092989940879" type="line"/>
      <point x="451.7610104522421" y="553.1966149753351" type="line"/>
      <point x="351.5026465729437" y="277.13168323599564" type="line"/>
    </contour>
    <contour>
      <point x="363.2342051788968" y="220.8593498769186" type="line"/>
      <point x="299.08173543733426" y="253.5466658581659" type="line"/>
      <point x="211.41298210631317" y="2.1902360410939963" type="line"/>
    </contour>
    <contour>
      <point x="699.9818491366862" y="793.6562430291755" type="line"/>
      <point x="635.8293793951236" y="826.3435590104227" type="line"/>
      <point x="544.0910552244374" y="567.0001467105262" type="line"/>
    </contour>
    <contour>
      <point x="560.2667268323407" y="519.4498762167292" type="line"/>
      <point x="496.11425709077815" y="552.1371921979764" type="line"/>
      <point x="394.48983579776353" y="273.3912218273541" type="line"/>
    </contour>
    <contour>
      <point x="407.44262884801594" y="219.51569601834387" type="line"/>
      <point x="343.2901591064534" y="252.20301199959115" type="line"/>
      <point x="254.68209943147124" y="-0.9969103160264723" type="line"/>
    </contour>
    <contour>
      <point x="744.8748904794126" y="793.6562270090767" type="line"/>
      <point x="680.72242073785" y="826.3435429903241" type="line"/>
      <point x="588.9840965671638" y="567.0001306904276" type="line"/>
    </contour>
    <contour>
      <point x="604.6517528058587" y="518.4528238960638" type="line"/>
      <point x="540.499283064296" y="551.1401398773111" type="line"/>
      <point x="438.0594948337491" y="270.7939217892464" type="line"/>
    </contour>
    <contour>
      <point x="451.8380966030278" y="218.53913684773477" type="line"/>
      <point x="387.68562686146527" y="251.22645282898205" type="line"/>
      <point x="298.12781906102794" y="-3.8374551352376756" type="line"/>
    </contour>
    <contour>
      <point x="789.7161769051687" y="793.5546362452206" type="line"/>
      <point x="725.5637071636062" y="826.2419522264679" type="line"/>
      <point x="633.8771379098902" y="567.0001146703289" type="line"/>
    </contour>
    <contour>
      <point x="649.0363247888768" y="517.454880568874" type="line"/>
      <point x="584.8838550473141" y="550.1421965501213" type="line"/>
      <point x="482.11719365695484" y="269.15445376464106" type="line"/>
    </contour>
    <contour>
      <point x="496.4174305104342" y="217.9234353194219" type="line"/>
      <point x="432.2649607688717" y="250.61075130066916" type="line"/>
      <point x="341.7742024914696" y="-6.284175070757641" type="line"/>
    </contour>
    <contour>
      <point x="833.9232386027886" y="792.2083093670732" type="line"/>
      <point x="769.7707688612261" y="824.8956253483204" type="line"/>
      <point x="678.7701792526166" y="567.0000986502303" type="line"/>
    </contour>
    <contour>
      <point x="693.4213507623947" y="516.4578282482087" type="line"/>
      <point x="629.2688810208322" y="549.145144229456" type="line"/>
      <point x="526.4218633120188" y="267.9996932891943" type="line"/>
    </contour>
    <contour>
      <point x="541.1788146082362" y="217.66502740730854" type="line"/>
      <point x="477.02634486667364" y="250.35234338855582" type="line"/>
      <point x="385.66392482977164" y="-8.253315509312586" type="line"/>
    </contour>
    <contour>
      <point x="877.6404445511896" y="789.9005864493269" type="line"/>
      <point x="813.4879748096271" y="822.5879024305741" type="line"/>
      <point x="723.5824102863893" y="566.8414834688259" type="line"/>
    </contour>
    <contour>
      <point x="737.7918490399206" y="515.4322637187691" type="line"/>
      <point x="673.6393792983581" y="548.1195797000164" type="line"/>
      <point x="570.7269869575824" y="266.8458238202717" type="line"/>
    </contour>
    <contour>
      <point x="586.0673160459651" y="217.656101321968" type="line"/>
      <point x="521.9148463044025" y="250.3434173032153" type="line"/>
      <point x="429.87552643238894" y="-9.590732322218031" type="line"/>
    </contour>
    <contour>
      <point x="921.0462130167693" y="786.981633055987" type="line"/>
      <point x="856.8937432752068" y="819.6689490372343" type="line"/>
      <point x="768.143584573806" y="566.1901416795456" type="line"/>
    </contour>
    <contour>
      <point x="781.918100428587" y="513.9273376793162" type="line"/>
      <point x="717.7656306870244" y="546.6146536605635" type="line"/>
      <point x="615.0321106031462" y="265.69195435134907" type="line"/>
    </contour>
    <contour>
      <point x="630.9603573886916" y="217.65608530186927" type="line"/>
      <point x="566.8078876471291" y="250.34340128311655" type="line"/>
      <point x="474.5601861357349" y="-9.999720336919182" type="line"/>
    </contour>
    <contour>
      <point x="964.2227162799804" y="783.612721367932" type="line"/>
      <point x="900.0702465384179" y="816.3000373491793" type="line"/>
      <point x="812.4668678393593" y="565.0719124715905" type="line"/>
    </contour>
    <contour>
      <point x="825.6816134079615" y="511.71049742703696" type="line"/>
      <point x="761.529143666399" y="544.3978134082843" type="line"/>
      <point x="659.3372342487098" y="264.5380848824264" type="line"/>
    </contour>
    <contour>
      <point x="675.853398731418" y="217.6560692817706" type="line"/>
      <point x="611.7009289898555" y="250.3433852630179" type="line"/>
      <point x="519.4532274784614" y="-9.999736357017866" type="line"/>
    </contour>
    <contour>
      <point x="1007.212175457299" y="779.8767149919115" type="line"/>
      <point x="943.0597057157365" y="812.5640309731588" type="line"/>
      <point x="856.56814975054" y="563.5179810733073" type="line"/>
    </contour>
    <contour>
      <point x="868.9956757925938" y="508.61156071581115" type="line"/>
      <point x="804.8432060510313" y="541.2988766970584" type="line"/>
      <point x="703.6478057802705" y="263.394907491794" type="line"/>
    </contour>
    <contour>
      <point x="720.7464400741444" y="217.65605326167193" type="line"/>
      <point x="656.5939703325819" y="250.34336924291924" type="line"/>
      <point x="564.3462688211878" y="-9.99975237711655" type="line"/>
    </contour>
    <contour>
      <point x="1050.0363820927123" y="775.8163822410863" type="line"/>
      <point x="985.8839123511498" y="808.5036982223337" type="line"/>
      <point x="900.4596880508411" y="561.5524046608491" type="line"/>
    </contour>
    <contour>
      <point x="911.7513298625464" y="504.4166859798336" type="line"/>
      <point x="847.5988601209839" y="537.1040019610809" type="line"/>
      <point x="747.8321679529035" y="262.00403028743733" type="line"/>
    </contour>
    <contour>
      <point x="765.6898743623419" y="217.75493896575807" type="line"/>
      <point x="701.5374046207794" y="250.44225494700538" type="line"/>
      <point x="609.2393101639142" y="-9.999768397215263" type="line"/>
    </contour>
    <contour>
      <point x="1092.701692053217" y="771.4441972067955" type="line"/>
      <point x="1028.5492223116544" y="804.1315131880428" type="line"/>
      <point x="944.1496545692576" y="559.1912213516514" type="line"/>
    </contour>
    <contour>
      <point x="953.8051146199016" y="498.8443151574608" type="line"/>
      <point x="889.6526448783392" y="531.5316311387081" type="line"/>
      <point x="791.4336063238708" y="259.46910070602274" type="line"/>
    </contour>
    <contour>
      <point x="811.1858150887224" y="218.93817960978163" type="line"/>
      <point x="747.0333453471599" y="251.62549559102894" type="line"/>
      <point x="654.286708276552" y="-9.696842199089872" type="line"/>
    </contour>
    <contour>
      <point x="1135.19493961432" y="766.734320699837" type="line"/>
      <point x="1071.0424698727575" y="799.4216366810842" type="line"/>
      <point x="987.6430432012871" y="556.4442322174798" type="line"/>
    </contour>
    <contour>
      <point x="994.9677160262684" y="491.5228985281062" type="line"/>
      <point x="930.8152462847058" y="524.2102145093536" type="line"/>
      <point x="699.7404278864568" y="-8.596465161815956" type="line"/>
    </contour>
    <contour>
      <point x="1153.7388263426628" y="715.0211770223696" type="line"/>
      <point x="1089.5863566011003" y="747.7084930036167" type="line"/>
      <point x="1030.9398539469294" y="553.3114372583349" type="line"/>
    </contour>
    <contour>
      <point x="1034.9858073827913" y="481.9552544512729" type="line"/>
      <point x="970.8333376412289" y="514.6425704325202" type="line"/>
      <point x="745.6794633405831" y="-6.543602150184597" type="line"/>
    </contour>
    <contour>
      <point x="1134.8561902629774" y="589.8543464973374" type="line"/>
      <point x="1070.7037205214149" y="622.5416624785846" type="line"/>
      <point x="1074.0346389201873" y="549.782144395926" type="line"/>
    </contour>
    <contour>
      <point x="1073.5102699951717" y="469.45619890985984" type="line"/>
      <point x="1009.3578002536091" y="502.1435148911071" type="line"/>
      <point x="792.2095944253704" y="-3.330648644060034" type="line"/>
    </contour>
    <contour>
      <point x="1110.0498861426904" y="453.0616628446951" type="line"/>
      <point x="1045.8974164011279" y="485.7489788259424" type="line"/>
      <point x="839.4788220437335" y="1.332863483443191" type="line"/>
    </contour>
    <contour>
      <point x="1143.8982466077532" y="431.3852401041418" type="line"/>
      <point x="1079.7457768661907" y="464.0725560853891" type="line"/>
      <point x="887.7073315880465" y="7.87907239655641" type="line"/>
    </contour>
    <contour>
      <point x="1174.010719250459" y="402.3767246760424" type="line"/>
      <point x="1109.8582495088965" y="435.0640406572897" type="line"/>
      <point x="937.2469656956071" y="16.998508151525698" type="line"/>
    </contour>
    <contour>
      <point x="1198.81558896071" y="362.9514519736568" type="line"/>
      <point x="1134.6631192191476" y="395.63876795490404" type="line"/>
      <point x="988.7251392370556" y="29.922541764779282" type="line"/>
    </contour>
    <contour>
      <point x="1215.9498351873617" y="308.47173303858443" type="line"/>
      <point x="1151.7973654457992" y="341.15904901983174" type="line"/>
      <point x="1043.492927939617" y="49.30280865230179" type="line"/>
    </contour>
    <contour>
      <point x="1222.044394431847" y="232.32540845482356" type="line"/>
      <point x="1157.8919246902844" y="265.01272443607087" type="line"/>
      <point x="1105.935880030775" y="83.74643183775288" type="line"/>
    </contour>
  </outline>
</glyph>
<glyph name="z" format="2">
  <advance width="1280"/>
  <unicode hex="007A"/>
  <outline>
    <contour>
      <point x="136.969442843348" y="783.6566346475878" type="line"/>
      <point x="72.81697310178549" y="816.343950628835" type="line"/>
      <point x="59.999903415321995" y="711.8922214873204" type="line"/>
    </contour>
    <contour>
      <point x="181.86248418607443" y="783.656618627489" type="line"/>
      <point x="117.71001444451193" y="816.3439346087364" type="line"/>
      <point x="60.00009419130345" y="623.7850253228548" type="line"/>
    </contour>
    <contour>
      <point x="226.75552552880083" y="783.6566026073904" type="line"/>
      <point x="162.6030557872383" y="816.3439185886376" type="line"/>
      <point x="59.99983097678518" y="535.6769381518652" type="line"/>
    </contour>
    <contour>
      <point x="271.64856687152724" y="783.6565865872916" type="line"/>
      <point x="207.49609712996468" y="816.3439025685389" type="line"/>
      <point x="96.9049094765943" y="519.9996623386721" type="line"/>
    </contour>
    <contour>
      <point x="316.5416082142537" y="783.6565705671931" type="line"/>
      <point x="252.38913847269114" y="816.3438865484403" type="line"/>
      <point x="141.7979508193207" y="519.9996463185735" type="line"/>
    </contour>
    <contour>
      <point x="361.4346495569801" y="783.6565545470943" type="line"/>
      <point x="297.2821798154175" y="816.3438705283415" type="line"/>
      <point x="186.6909921620471" y="519.9996302984748" type="line"/>
    </contour>
    <contour>
      <point x="406.32769089970645" y="783.6565385269956" type="line"/>
      <point x="342.1752211581439" y="816.343854508243" type="line"/>
      <point x="231.58403350477354" y="519.9996142783762" type="line"/>
    </contour>
    <contour>
      <point x="159.67147445771317" y="299.56645688978574" type="line"/>
      <point x="95.51900471615065" y="332.253772871033" type="line"/>
      <point x="60.00014009021123" y="183.24726248747902" type="line"/>
    </contour>
    <contour>
      <point x="451.22073224243286" y="783.656522506897" type="line"/>
      <point x="387.06826250087033" y="816.3438384881442" type="line"/>
      <point x="276.4770748474999" y="519.9995982582774" type="line"/>
    </contour>
    <contour>
      <point x="221.22642113138068" y="332.26727131392437" type="line"/>
      <point x="157.07395138981815" y="364.9545872951717" type="line"/>
      <point x="59.999876875692934" y="95.13917531648931" type="line"/>
    </contour>
    <contour>
      <point x="496.1137735851593" y="783.6565064867983" type="line"/>
      <point x="431.9613038435968" y="816.3438224680456" type="line"/>
      <point x="321.3701161902263" y="519.9995822381787" type="line"/>
    </contour>
    <contour>
      <point x="282.7818217955479" y="364.96897674458717" type="line"/>
      <point x="218.62935205398537" y="397.6562927258345" type="line"/>
      <point x="60.000067651674385" y="7.031979152023808" type="line"/>
    </contour>
    <contour>
      <point x="541.0068149278858" y="783.6564904666996" type="line"/>
      <point x="476.8543451863232" y="816.3438064479469" type="line"/>
      <point x="366.2631575329528" y="519.99956621808" type="line"/>
    </contour>
    <contour>
      <point x="344.3367684692154" y="397.6697911687258" type="line"/>
      <point x="280.18429872765284" y="430.3571071499731" type="line"/>
      <point x="101.31021597045631" y="0.00013964303051494653" type="line"/>
    </contour>
    <contour>
      <point x="585.8998562706122" y="783.6564744466009" type="line"/>
      <point x="521.7473865290497" y="816.3437904278481" type="line"/>
      <point x="411.15665286617894" y="520.0004412045055" type="line"/>
    </contour>
    <contour>
      <point x="405.89171514288284" y="430.3706055928645" type="line"/>
      <point x="341.7392454013203" y="463.05792157411173" type="line"/>
      <point x="146.20325731318272" y="0.0001236229318237747" type="line"/>
    </contour>
    <contour>
      <point x="630.7928976133386" y="783.6564584265021" type="line"/>
      <point x="566.6404278717761" y="816.3437744077495" type="line"/>
      <point x="456.04969420890535" y="520.0004251844068" type="line"/>
    </contour>
    <contour>
      <point x="467.44711580705007" y="463.07231102352716" type="line"/>
      <point x="403.29464606548754" y="495.7596270047745" type="line"/>
      <point x="191.09629865590915" y="0.00010760283313970831" type="line"/>
    </contour>
    <contour>
      <point x="675.685938956065" y="783.6564424064036" type="line"/>
      <point x="611.5334692145025" y="816.3437583876508" type="line"/>
      <point x="500.94273555163176" y="520.000409164308" type="line"/>
    </contour>
    <contour>
      <point x="529.0020624807175" y="495.7731254476658" type="line"/>
      <point x="464.849592739155" y="528.4604414289131" type="line"/>
      <point x="235.98933999863556" y="9.158273444143106e-05" type="line"/>
    </contour>
    <contour>
      <point x="720.5789802987914" y="783.6564263863047" type="line"/>
      <point x="656.4265105572289" y="816.343742367552" type="line"/>
      <point x="280.882381341362" y="7.556263575736466e-05" type="line"/>
    </contour>
    <contour>
      <point x="765.4720216415178" y="783.656410366206" type="line"/>
      <point x="701.3195518999553" y="816.3437263474534" type="line"/>
      <point x="325.77542268408837" y="5.954253708750912e-05" type="line"/>
    </contour>
    <contour>
      <point x="810.3650629842443" y="783.6563943461075" type="line"/>
      <point x="746.2125932426818" y="816.3437103273548" type="line"/>
      <point x="370.6684640268148" y="4.352243840344272e-05" type="line"/>
    </contour>
    <contour>
      <point x="855.2581043269706" y="783.6563783260086" type="line"/>
      <point x="791.1056345854081" y="816.3436943072559" type="line"/>
      <point x="415.5615053695412" y="2.7502339719376323e-05" type="line"/>
    </contour>
    <contour>
      <point x="900.1511456696971" y="783.6563623059101" type="line"/>
      <point x="835.9986759281346" y="816.3436782871573" type="line"/>
      <point x="460.45454671226764" y="1.1482241006888216e-05" type="line"/>
    </contour>
    <contour>
      <point x="945.0441870124235" y="783.6563462858114" type="line"/>
      <point x="880.891717270861" y="816.3436622670588" type="line"/>
      <point x="505.34758805499405" y="-4.537857677178181e-06" type="line"/>
    </contour>
    <contour>
      <point x="989.93722835515" y="783.6563302657127" type="line"/>
      <point x="925.7847586135874" y="816.34364624696" type="line"/>
      <point x="550.2406293977205" y="-2.0557956361244578e-05" type="line"/>
    </contour>
    <contour>
      <point x="1034.8302696978765" y="783.6563142456141" type="line"/>
      <point x="970.677799956314" y="816.3436302268614" type="line"/>
      <point x="595.133670740447" y="-3.6578055073732685e-05" type="line"/>
    </contour>
    <contour>
      <point x="1079.7233110406028" y="783.6562982255152" type="line"/>
      <point x="1015.5708412990402" y="816.3436142067625" type="line"/>
      <point x="788.0603023142465" y="290.53222675699595" type="line"/>
    </contour>
    <contour>
      <point x="814.7699154876066" y="263.6559806439416" type="line"/>
      <point x="750.617445746044" y="296.3432966251888" type="line"/>
      <point x="640.0267120831734" y="-5.259815378622079e-05" type="line"/>
    </contour>
    <contour>
      <point x="1124.6163523833293" y="783.6562822054166" type="line"/>
      <point x="1060.4638826417668" y="816.3435981866639" type="line"/>
      <point x="849.615248987914" y="323.2330411811346" type="line"/>
    </contour>
    <contour>
      <point x="859.6629568303331" y="263.65596462384286" type="line"/>
      <point x="795.5104870887704" y="296.3432806050901" type="line"/>
      <point x="684.9197534258998" y="-6.861825244186548e-05" type="line"/>
    </contour>
    <contour>
      <point x="1169.5093937260558" y="783.656266185318" type="line"/>
      <point x="1105.3569239844933" y="816.3435821665653" type="line"/>
      <point x="911.1701956615814" y="355.9338556052732" type="line"/>
    </contour>
    <contour>
      <point x="904.5559981730594" y="263.65594860374415" type="line"/>
      <point x="840.4035284314969" y="296.3432645849914" type="line"/>
      <point x="729.8127947686262" y="-8.463835115435359e-05" type="line"/>
    </contour>
    <contour>
      <point x="1214.402435068782" y="783.6562501652191" type="line"/>
      <point x="1150.2499653272196" y="816.3435661464664" type="line"/>
      <point x="972.7255963257487" y="388.635561035936" type="line"/>
    </contour>
    <contour>
      <point x="949.4490395157859" y="263.6559325836455" type="line"/>
      <point x="885.2965697742234" y="296.3432485648928" type="line"/>
      <point x="774.7058361113527" y="-0.00010065844980999827" type="line"/>
    </contour>
    <contour>
      <point x="1252.0761194846502" y="769.4874483974772" type="line"/>
      <point x="1187.9236497430877" y="802.1747643787245" type="line"/>
      <point x="1034.2805429994162" y="421.3363754600746" type="line"/>
    </contour>
    <contour>
      <point x="994.3420808585122" y="263.6559165635468" type="line"/>
      <point x="930.1896111169497" y="296.3432325447941" type="line"/>
      <point x="819.598877454079" y="-0.0001166785485793298" type="line"/>
    </contour>
    <contour>
      <point x="1252.0763102606318" y="681.3802522330116" type="line"/>
      <point x="1187.9238405190692" y="714.0675682142589" type="line"/>
      <point x="1095.8359436635833" y="454.0380808907374" type="line"/>
    </contour>
    <contour>
      <point x="1039.2351222012387" y="263.65590054344807" type="line"/>
      <point x="975.0826524596762" y="296.3432165246954" type="line"/>
      <point x="864.4919187968055" y="-0.0001326986472349745" type="line"/>
    </contour>
    <contour>
      <point x="1252.0760470461132" y="593.2721650620219" type="line"/>
      <point x="1187.9235773045507" y="625.9594810432691" type="line"/>
      <point x="1157.3908903372508" y="486.738895314876" type="line"/>
    </contour>
    <contour>
      <point x="1084.1286175344649" y="263.65677552987364" type="line"/>
      <point x="1019.9761477929023" y="296.3440915111209" type="line"/>
      <point x="909.3849601395318" y="-0.00014871874589061918" type="line"/>
    </contour>
    <contour>
      <point x="1129.0216588771912" y="263.65675950977493" type="line"/>
      <point x="1064.8691891356286" y="296.3440754910222" type="line"/>
      <point x="954.2780014822582" y="-0.00016473884454626386" type="line"/>
    </contour>
    <contour>
      <point x="1173.9147002199177" y="263.6567434896763" type="line"/>
      <point x="1109.7622304783551" y="296.3440594709236" type="line"/>
      <point x="999.1710428249846" y="-0.00018075894325875197" type="line"/>
    </contour>
    <contour>
      <point x="1218.807741562644" y="263.65672746957756" type="line"/>
      <point x="1154.6552718210814" y="296.34404345082487" type="line"/>
      <point x="1044.0640841677111" y="-0.00019677904197124008" type="line"/>
    </contour>
    <contour>
      <point x="1252.0763561595395" y="240.84248939763575" type="line"/>
      <point x="1187.923886417977" y="273.529805378883" type="line"/>
      <point x="1088.9571255104374" y="-0.00021279914068372818" type="line"/>
    </contour>
    <contour>
      <point x="1252.0760929450212" y="152.73440222664607" type="line"/>
      <point x="1187.9236232034586" y="185.42171820789332" type="line"/>
      <point x="1133.850166853164" y="-0.0002288192393962163" type="line"/>
    </contour>
    <contour>
      <point x="1252.0762837210027" y="64.6272060621805" type="line"/>
      <point x="1187.9238139794402" y="97.31452204342781" type="line"/>
      <point x="1178.7432081958905" y="-0.00024483933799501756" type="line"/>
    </contour>
  </outline>
</glyph>
<glyph name="s_angle_0_step_20" format="2">
  <advance width="1210"/>
  <outline>
    <contour>
      <point x="240.63" y="80.0" type="line"/>
      <point x="827.484" y="80.0" type="line"/>
      <point x="827.484" y="-80.0" type="line"/>
      <point x="240.62999999999997" y="-80.0" type="line"/>
    </contour>
    <contour>
      <point x="26.000000000000004" y="100.0" type="line"/>
      <point x="950.743" y="100.0" type="line"/>
      <point x="950.743" y="-60.0" type="line"/>
      <point x="25.999999999999986" y="-60.0" type="line"/>
    </contour>
    <contour>
      <point x="28.979000000000003" y="120.0" type="line"/>
      <point x="1019.707" y="120.0" type="line"/>
      <point x="1019.707" y="-40.0" type="line"/>
      <point x="28.978999999999985" y="-40.0" type="line"/>
    </contour>
    <contour>
      <point x="31.957000000000004" y="140.0" type="line"/>
      <point x="1066.548" y="140.0" type="line"/>
      <point x="1066.548" y="-20.0" type="line"/>
      <point x="31.956999999999987" y="-20.0" type="line"/>
    </contour>
    <contour>
      <point x="34.93600000000001" y="160.0" type="line"/>
      <point x="1100.596" y="160.0" type="line"/>
      <point x="1100.596" y="0.0" type="line"/>
      <point x="34.935999999999986" y="0.0" type="line"/>
    </contour>
    <contour>
      <point x="37.915000000000006" y="180.0" type="line"/>
      <point x="1126.108" y="180.0" type="line"/>
      <point x="1126.108" y="20.0" type="line"/>
      <point x="37.914999999999985" y="20.0" type="line"/>
    </contour>
    <contour>
      <point x="40.894000000000005" y="200.0" type="line"/>
      <point x="1145.454" y="200.0" type="line"/>
      <point x="1145.454" y="40.0" type="line"/>
      <point x="40.893999999999984" y="40.0" type="line"/>
    </contour>
    <contour>
      <point x="43.87200000000001" y="220.0" type="line"/>
      <point x="1160.11" y="220.0" type="line"/>
      <point x="1160.11" y="60.0" type="line"/>
      <point x="43.871999999999986" y="60.0" type="line"/>
    </contour>
    <contour>
      <point x="46.851000000000006" y="240.0" type="line"/>
      <point x="1171.071" y="240.0" type="line"/>
      <point x="1171.071" y="80.0" type="line"/>
      <point x="46.850999999999985" y="80.0" type="line"/>
    </contour>
    <contour>
      <point x="49.830000000000005" y="260.0" type="line"/>
      <point x="1179.044" y="260.0" type="line"/>
      <point x="1179.044" y="100.0" type="line"/>
      <point x="49.829999999999984" y="100.0" type="line"/>
    </contour>
    <contour>
      <point x="52.809000000000005" y="280.0" type="line"/>
      <point x="1184.553" y="280.0" type="line"/>
      <point x="1184.553" y="120.0" type="line"/>
      <point x="52.80899999999998" y="120.0" type="line"/>
    </contour>
    <contour>
      <point x="55.787000000000006" y="300.0" type="line"/>
      <point x="1188.002" y="300.0" type="line"/>
      <point x="1188.002" y="140.0" type="line"/>
      <point x="55.786999999999985" y="140.0" type="line"/>
    </contour>
    <contour>
      <point x="58.766000000000005" y="320.0" type="line"/>
      <point x="263.762" y="320.0" type="line"/>
      <point x="263.762" y="160.0" type="line"/>
      <point x="58.765999999999984" y="160.0" type="line"/>
    </contour>
    <contour>
      <point x="817.586" y="320.0" type="line"/>
      <point x="1189.706" y="320.0" type="line"/>
      <point x="1189.706" y="160.0" type="line"/>
      <point x="817.586" y="160.0" type="line"/>
    </contour>
    <contour>
      <point x="785.209" y="340.0" type="line"/>
      <point x="1189.952" y="340.0" type="line"/>
      <point x="1189.952" y="180.0" type="line"/>
      <point x="785.209" y="180.0" type="line"/>
    </contour>
    <contour>
      <point x="326.19" y="360.0" type="line"/>
      <point x="1189.249" y="360.0" type="line"/>
      <point x="1189.249" y="200.0" type="line"/>
      <point x="326.19" y="200.0" type="line"/>
    </contour>
    <contour>
      <point x="219.222" y="380.0" type="line"/>
      <point x="1187.58" y="380.0" type="line"/>
      <point x="1187.58" y="220.0" type="line"/>
      <point x="219.22199999999998" y="220.0" type="line"/>
    </contour>
    <contour>
      <point x="159.914" y="400.0" type="line"/>
      <point x="1184.754" y="400.0" type="line"/>
      <point x="1184.754" y="240.0" type="line"/>
      <point x="159.91399999999996" y="240.0" type="line"/>
    </contour>
    <contour>
      <point x="120.284" y="420.0" type="line"/>
      <point x="1180.52" y="420.0" type="line"/>
      <point x="1180.52" y="260.0" type="line"/>
      <point x="120.28399999999999" y="260.0" type="line"/>
    </contour>
    <contour>
      <point x="91.884" y="440.0" type="line"/>
      <point x="1174.552" y="440.0" type="line"/>
      <point x="1174.552" y="280.0" type="line"/>
      <point x="91.88399999999999" y="280.0" type="line"/>
    </contour>
    <contour>
      <point x="70.857" y="460.0" type="line"/>
      <point x="1166.41" y="460.0" type="line"/>
      <point x="1166.41" y="300.0" type="line"/>
      <point x="70.85699999999999" y="300.0" type="line"/>
    </contour>
    <contour>
      <point x="55.07900000000001" y="480.0" type="line"/>
      <point x="1155.478" y="480.0" type="line"/>
      <point x="1155.478" y="320.0" type="line"/>
      <point x="55.078999999999986" y="320.0" type="line"/>
    </contour>
    <contour>
      <point x="43.24100000000001" y="500.0" type="line"/>
      <point x="1140.867" y="500.0" type="line"/>
      <point x="1140.867" y="340.0" type="line"/>
      <point x="43.240999999999985" y="340.0" type="line"/>
    </contour>
    <contour>
      <point x="34.474000000000004" y="520.0" type="line"/>
      <point x="1121.208" y="520.0" type="line"/>
      <point x="1121.208" y="360.0" type="line"/>
      <point x="34.47399999999998" y="360.0" type="line"/>
    </contour>
    <contour>
      <point x="28.171000000000003" y="540.0" type="line"/>
      <point x="1094.243" y="540.0" type="line"/>
      <point x="1094.243" y="380.0" type="line"/>
      <point x="28.170999999999985" y="380.0" type="line"/>
    </contour>
    <contour>
      <point x="23.888000000000005" y="560.0" type="line"/>
      <point x="1055.801" y="560.0" type="line"/>
      <point x="1055.801" y="400.0" type="line"/>
      <point x="23.887999999999987" y="400.0" type="line"/>
    </contour>
    <contour>
      <point x="21.290000000000003" y="580.0" type="line"/>
      <point x="996.621" y="580.0" type="line"/>
      <point x="996.621" y="420.0" type="line"/>
      <point x="21.289999999999985" y="420.0" type="line"/>
    </contour>
    <contour>
      <point x="20.118000000000002" y="600.0" type="line"/>
      <point x="886.202" y="600.0" type="line"/>
      <point x="886.202" y="440.0" type="line"/>
      <point x="20.117999999999984" y="440.0" type="line"/>
    </contour>
    <contour>
      <point x="20.168000000000003" y="620.0" type="line"/>
      <point x="409.141" y="620.0" type="line"/>
      <point x="409.141" y="460.0" type="line"/>
      <point x="20.167999999999985" y="460.0" type="line"/>
    </contour>
    <contour>
      <point x="21.400000000000002" y="640.0" type="line"/>
      <point x="379.357" y="640.0" type="line"/>
      <point x="379.357" y="480.0" type="line"/>
      <point x="21.399999999999984" y="480.0" type="line"/>
    </contour>
    <contour>
      <point x="930.0" y="640.0" type="line"/>
      <point x="1095.81" y="640.0" type="line"/>
      <point x="1095.81" y="480.0" type="line"/>
      <point x="930.0" y="480.0" type="line"/>
    </contour>
    <contour>
      <point x="23.993000000000002" y="660.0" type="line"/>
      <point x="1098.828" y="660.0" type="line"/>
      <point x="1098.828" y="500.0" type="line"/>
      <point x="23.992999999999984" y="500.0" type="line"/>
    </contour>
    <contour>
      <point x="28.181000000000004" y="680.0" type="line"/>
      <point x="1101.845" y="680.0" type="line"/>
      <point x="1101.845" y="520.0" type="line"/>
      <point x="28.180999999999987" y="520.0" type="line"/>
    </contour>
    <contour>
      <point x="34.263000000000005" y="700.0" type="line"/>
      <point x="1104.862" y="700.0" type="line"/>
      <point x="1104.862" y="540.0" type="line"/>
      <point x="34.262999999999984" y="540.0" type="line"/>
    </contour>
    <contour>
      <point x="42.62100000000001" y="720.0" type="line"/>
      <point x="1107.879" y="720.0" type="line"/>
      <point x="1107.879" y="560.0" type="line"/>
      <point x="42.62099999999999" y="560.0" type="line"/>
    </contour>
    <contour>
      <point x="53.76400000000001" y="740.0" type="line"/>
      <point x="1110.897" y="740.0" type="line"/>
      <point x="1110.897" y="580.0" type="line"/>
      <point x="53.76399999999999" y="580.0" type="line"/>
    </contour>
    <contour>
      <point x="68.384" y="760.0" type="line"/>
      <point x="1113.914" y="760.0" type="line"/>
      <point x="1113.914" y="600.0" type="line"/>
      <point x="68.38399999999999" y="600.0" type="line"/>
    </contour>
    <contour>
      <point x="87.472" y="780.0" type="line"/>
      <point x="1116.931" y="780.0" type="line"/>
      <point x="1116.931" y="620.0" type="line"/>
      <point x="87.47199999999998" y="620.0" type="line"/>
    </contour>
    <contour>
      <point x="112.518" y="800.0" type="line"/>
      <point x="1119.948" y="800.0" type="line"/>
      <point x="1119.948" y="640.0" type="line"/>
      <point x="112.51799999999999" y="640.0" type="line"/>
    </contour>
    <contour>
      <point x="145.94" y="820.0" type="line"/>
      <point x="1122.966" y="820.0" type="line"/>
      <point x="1122.966" y="660.0" type="line"/>
      <point x="145.93999999999997" y="660.0" type="line"/>
    </contour>
    <contour>
      <point x="192.15" y="840.0" type="line"/>
      <point x="1125.983" y="840.0" type="line"/>
      <point x="1125.983" y="680.0" type="line"/>
      <point x="192.14999999999998" y="680.0" type="line"/>
    </contour>
    <contour>
      <point x="260.938" y="860.0" type="line"/>
      <point x="1129.0" y="860.0" type="line"/>
      <point x="1129.0" y="700.0" type="line"/>
      <point x="260.938" y="700.0" type="line"/>
    </contour>
    <contour>
      <point x="386.568" y="880.0" type="line"/>
      <point x="931.614" y="880.0" type="line"/>
      <point x="931.614" y="720.0" type="line"/>
      <point x="386.568" y="720.0" type="line"/>
    </contour>
  </outline>
</glyph>
<glyph name="s_angle_0_step_80" format="2">
  <advance width="1210"/>
  <outline>
    <contour>
      <point x="26.000000000000004" y="100.0" type="line"/>
      <point x="950.743" y="100.0" type="line"/>
      <point x="950.743" y="-60.0" type="line"/>
      <point x="25.999999999999986" y="-60.0" type="line"/>
    </contour>
    <contour>
      <point x="37.915000000000006" y="180.0" type="line"/>
      <point x="1126.108" y="180.0" type="line"/>
      <point x="1126.108" y="20.0" type="line"/>
      <point x="37.914999999999985" y="20.0" type="line"/>
    </contour>
    <contour>
      <point x="49.830000000000005" y="260.0" type="line"/>
      <point x="1179.044" y="260.0" type="line"/>
      <point x="1179.044" y="100.0" type="line"/>
      <point x="49.829999999999984" y="100.0" type="line"/>
    </contour>
    <contour>
      <point x="785.209" y="340.0" type="line"/>
      <point x="1189.952" y="340.0" type="line"/>
      <point x="1189.952" y="180.0" type="line"/>
      <point x="785.209" y="180.0" type="line"/>
    </contour>
    <contour>
      <point x="120.284" y="420.0" type="line"/>
      <point x="1180.52" y="420.0" type="line"/>
      <point x="1180.52" y="260.0" type="line"/>
      <point x="120.28399999999999" y="260.0" type="line"/>
    </contour>
    <contour>
      <point x="43.24100000000001" y="500.0" type="line"/>
      <point x="1140.867" y="500.0" type="line"/>
      <point x="1140.867" y="340.0" type="line"/>
      <point x="43.240999999999985" y="340.0" type="line"/>
    </contour>
    <contour>
      <point x="21.290000000000003" y="580.0" type="line"/>
      <point x="996.621" y="580.0" type="line"/>
      <point x="996.621" y="420.0" type="line"/>
      <point x="21.289999999999985" y="420.0" type="line"/>
    </contour>
    <contour>
      <point x="23.993000000000002" y="660.0" type="line"/>
      <point x="1098.828" y="660.0" type="line"/>
      <point x="1098.828" y="500.0" type="line"/>
      <point x="23.992999999999984" y="500.0" type="line"/>
    </contour>
    <contour>
      <point x="53.76400000000001" y="740.0" type="line"/>
      <point x="1110.897" y="740.0" type="line"/>
      <point x="1110.897" y="580.0" type="line"/>
      <point x="53.76399999999999" y="580.0" type="line"/>
    </contour>
    <contour>
      <point x="145.94" y="820.0" type="line"/>
      <point x="1122.966" y="820.0" type="line"/>
      <point x="1122.966" y="660.0" type="line"/>
      <point x="145.93999999999997" y="660.0" type="line"/>
    </contour>
  </outline>
</glyph>
<glyph name="s_angle_135_step_60" format="2">
  <advance width="1210"/>
  <outline>
    <contour>
      <point x="192.57346078834428" y="678.0941899544634" type="line"/>
      <point x="100.42542638445701" y="585.9461555505761" type="line"/>
      <point x="-12.71165860539059" y="699.0832405404237" type="line"/>
      <point x="79.43637579849667" y="791.231274944311" type="line"/>
    </contour>
    <contour>
      <point x="324.29614041489907" y="724.9640558386326" type="line"/>
      <point x="76.60017049915746" y="477.2680859228909" type="line"/>
      <point x="-36.536914490690144" y="590.4051709127385" type="line"/>
      <point x="211.15905542505146" y="838.1011408284802" type="line"/>
    </contour>
    <contour>
      <point x="425.7086878658925" y="741.5237895472403" type="line"/>
      <point x="85.34637427565386" y="401.1614759570016" type="line"/>
      <point x="-27.790710714193743" y="514.2985609468492" type="line"/>
      <point x="312.5716028760449" y="854.6608745370879" type="line"/>
    </contour>
    <contour>
      <point x="518.4506919659766" y="749.4129799049387" type="line"/>
      <point x="111.98096540260758" y="342.94325334156963" type="line"/>
      <point x="-1.1561195872400205" y="456.08033833141724" type="line"/>
      <point x="405.31360697612894" y="862.5500648947863" type="line"/>
    </contour>
    <contour>
      <point x="606.6877187631212" y="752.7971929596976" type="line"/>
      <point x="153.37923901395519" y="299.4887132105315" type="line"/>
      <point x="40.242154024107585" y="412.6257982003791" type="line"/>
      <point x="493.5506337732736" y="865.9342779495452" type="line"/>
    </contour>
    <contour>
      <point x="692.1748072882311" y="753.4314677424218" type="line"/>
      <point x="444.61601608803966" y="505.87267654223035" type="line"/>
      <point x="331.47893109819205" y="619.009761532078" type="line"/>
      <point x="579.0377222983835" y="866.5685527322694" type="line"/>
    </contour>
    <contour>
      <point x="429.88203208845556" y="491.13869254264625" type="line"/>
      <point x="206.54801210493406" y="267.8046725591247" type="line"/>
      <point x="93.41092711508645" y="380.9417575489723" type="line"/>
      <point x="316.74494709860795" y="604.2757775324939" type="line"/>
    </contour>
    <contour>
      <point x="777.027621030617" y="753.4314677424219" type="line"/>
      <point x="534.0176477537984" y="510.42149446560336" type="line"/>
      <point x="420.88056276395076" y="623.558579455451" type="line"/>
      <point x="663.8905360407693" y="866.5685527322695" type="line"/>
    </contour>
    <contour>
      <point x="504.9965712403402" y="481.4004179521452" type="line"/>
      <point x="268.9141230988064" y="245.31796981061137" type="line"/>
      <point x="155.77703810895878" y="358.455054800459" type="line"/>
      <point x="391.8594862504926" y="594.5375029419928" type="line"/>
    </contour>
    <contour>
      <point x="213.5264489284641" y="189.930295640269" type="line"/>
      <point x="99.28769157352788" y="75.6915382853328" type="line"/>
      <point x="-13.849393416319721" y="188.8286232751804" type="line"/>
      <point x="100.3893639386165" y="303.06738063011665" type="line"/>
    </contour>
    <contour>
      <point x="860.3474272713901" y="751.8984602408094" type="line"/>
      <point x="618.8803609911208" y="510.43139396053994" type="line"/>
      <point x="505.7432760012732" y="623.5684789503875" type="line"/>
      <point x="747.2103422815425" y="865.035545230657" type="line"/>
    </contour>
    <contour>
      <point x="587.6099778067081" y="479.16101077612734" type="line"/>
      <point x="338.388778563947" y="229.9398115333663" type="line"/>
      <point x="225.25169357409942" y="343.0768965232139" type="line"/>
      <point x="474.4728928168605" y="592.298095765975" type="line"/>
    </contour>
    <contour>
      <point x="293.2739517106829" y="184.8249846801022" type="line"/>
      <point x="84.43844916861039" y="-24.0105178619704" type="line"/>
      <point x="-28.698635821237218" y="89.1265671278772" type="line"/>
      <point x="180.13686672083531" y="297.9620696699498" type="line"/>
    </contour>
    <contour>
      <point x="940.428684454329" y="747.1269036813625" type="line"/>
      <point x="703.7331747335065" y="510.43139396053994" type="line"/>
      <point x="590.5960897436589" y="623.5684789503875" type="line"/>
      <point x="827.2915994644814" y="860.2639886712101" type="line"/>
    </contour>
    <contour>
      <point x="670.5981509671049" y="477.2963701941384" type="line"/>
      <point x="413.3350263019092" y="220.03324552894276" type="line"/>
      <point x="300.1979413120616" y="333.17033051879037" type="line"/>
      <point x="557.4610659772572" y="590.433455183986" type="line"/>
    </contour>
    <contour>
      <point x="374.41516195862044" y="181.11338118565402" type="line"/>
      <point x="149.4378258156214" y="-43.86395495734509" type="line"/>
      <point x="36.300740825773794" y="69.27313003250251" type="line"/>
      <point x="261.27807696877284" y="294.25046617550163" type="line"/>
    </contour>
    <contour>
      <point x="1018.9514782915327" y="740.7968837761805" type="line"/>
      <point x="788.3448650635075" y="510.19027054815547" type="line"/>
      <point x="675.2077800736599" y="623.3273555380031" type="line"/>
      <point x="905.8143933016851" y="853.9339687660281" type="line"/>
    </contour>
    <contour>
      <point x="753.5856170207205" y="475.43102250536845" type="line"/>
      <point x="492.483609640463" y="214.32901512511086" type="line"/>
      <point x="379.3465246506154" y="327.46610011495846" type="line"/>
      <point x="640.4485320308729" y="588.568107495216" type="line"/>
    </contour>
    <contour>
      <point x="456.8524989364729" y="178.69790442112077" type="line"/>
      <point x="227.10289912724585" y="-51.051695388106346" type="line"/>
      <point x="113.96581413739824" y="62.085389601741255" type="line"/>
      <point x="343.7154139466253" y="291.8349894109684" type="line"/>
    </contour>
    <contour>
      <point x="1096.3994698213328" y="733.392061563595" type="line"/>
      <point x="871.43769002752" y="508.43028176978214" type="line"/>
      <point x="758.3006050376724" y="621.5673667596297" type="line"/>
      <point x="983.2623848314852" y="846.5291465534426" type="line"/>
    </contour>
    <contour>
      <point x="835.3363533140408" y="472.3289450563029" type="line"/>
      <point x="574.6557815753705" y="211.64837331763266" type="line"/>
      <point x="461.5186965855229" y="324.78545830748027" type="line"/>
      <point x="722.1992683241932" y="585.4660300461505" type="line"/>
    </contour>
    <contour>
      <point x="540.5484859848375" y="177.5410777270996" type="line"/>
      <point x="305.82226864961945" y="-57.185139608118455" type="line"/>
      <point x="192.6851836597718" y="55.951945381729146" type="line"/>
      <point x="427.41140099498983" y="290.6781627169472" type="line"/>
    </contour>
    <contour>
      <point x="1172.8299346930055" y="724.969712692882" type="line"/>
      <point x="953.0399338967911" y="505.17971189666764" type="line"/>
      <point x="839.9028489069435" y="618.3167968865152" type="line"/>
      <point x="1059.692849703158" y="838.1067976827296" type="line"/>
    </contour>
    <contour>
      <point x="914.3597787523246" y="466.499556752201" type="line"/>
      <point x="657.354748062262" y="209.4945260621385" type="line"/>
      <point x="544.2176630724144" y="322.6316110519861" type="line"/>
      <point x="801.222693762477" y="579.6366417420486" type="line"/>
    </contour>
    <contour>
      <point x="625.2916981761392" y="177.43147617601562" type="line"/>
      <point x="385.6723019151103" y="-62.18792008501327" type="line"/>
      <point x="272.5352169252627" y="50.94916490483433" type="line"/>
      <point x="512.1546131862916" y="290.56856116586323" type="line"/>
    </contour>
    <contour>
      <point x="1173.0293388053003" y="640.3163030627911" type="line"/>
      <point x="1033.314231230994" y="500.6011954884848" type="line"/>
      <point x="920.1771462411464" y="613.7382804783324" type="line"/>
      <point x="1059.8922538154527" y="753.4533880526387" type="line"/>
    </contour>
    <contour>
      <point x="989.5407859416407" y="456.8277501991315" type="line"/>
      <point x="740.0586642966218" y="207.34562855411258" type="line"/>
      <point x="626.9215793067742" y="320.4827135439602" type="line"/>
      <point x="876.4037009517931" y="569.9648351889791" type="line"/>
    </contour>
    <contour>
      <point x="710.1445119185249" y="177.43147617601562" type="line"/>
      <point x="467.0461502940582" y="-65.6668854484511" type="line"/>
      <point x="353.90906530421057" y="47.47019954139651" type="line"/>
      <point x="597.0074269286773" y="290.56856116586323" type="line"/>
    </contour>
    <contour>
      <point x="1059.3357607786588" y="441.76991129376404" type="line"/>
      <point x="822.2166940959056" y="204.6508446110107" type="line"/>
      <point x="709.079609106058" y="317.7879296008583" type="line"/>
      <point x="946.1986757888112" y="554.9069962836116" type="line"/>
    </contour>
    <contour>
      <point x="795.1486465120846" y="177.58279702718963" type="line"/>
      <point x="550.9974028904311" y="-66.56844659446392" type="line"/>
      <point x="437.8603179005835" y="46.56863839538369" type="line"/>
      <point x="682.011561522237" y="290.7198820170372" type="line"/>
    </contour>
    <contour>
      <point x="1121.6735875012837" y="419.25492427400314" type="line"/>
      <point x="635.8502166328167" y="-66.56844659446392" type="line"/>
      <point x="522.7131316429691" y="46.56863839538369" type="line"/>
      <point x="1008.5365025114361" y="532.3920092638507" type="line"/>
    </contour>
    <contour>
      <point x="1173.960598436123" y="386.68912146645675" type="line"/>
      <point x="721.1824487728469" y="-66.08902819681941" type="line"/>
      <point x="608.0453637829993" y="47.048056793028195" type="line"/>
      <point x="1060.8235134462755" y="499.82620645630436" type="line"/>
    </contour>
    <contour>
      <point x="1213.389579661866" y="341.265288949814" type="line"/>
      <point x="809.4293750649281" y="-62.694915647123985" type="line"/>
      <point x="696.2922900750805" y="50.442169342723616" type="line"/>
      <point x="1100.2524946720184" y="454.40237393966163" type="line"/>
    </contour>
    <contour>
      <point x="1237.7444585262742" y="280.7673540718366" type="line"/>
      <point x="902.504426458951" y="-54.47267799548677" type="line"/>
      <point x="789.3673414691034" y="58.66440699436083" type="line"/>
      <point x="1124.6073735364266" y="393.90443906168423" type="line"/>
    </contour>
    <contour>
      <point x="1246.5019760112696" y="204.6720578144463" type="line"/>
      <point x="1004.6495365352537" y="-37.18038166156969" type="line"/>
      <point x="891.5124515454061" y="75.95670332827791" type="line"/>
      <point x="1133.364891021422" y="317.8091428042939" type="line"/>
    </contour>
    <contour>
      <point x="1225.2937223231415" y="98.6109903839326" type="line"/>
      <point x="1138.3082745286972" y="11.625542589488163" type="line"/>
      <point x="1025.1711895388496" y="124.76262757933571" type="line"/>
      <point x="1112.156637333294" y="211.74807537378015" type="line"/>
    </contour>
  </outline>
</glyph>
<glyph name="s_angle_180_step_40" format="2">
  <advance width="1210"/>
  <outline>
    <contour>
      <point x="1129.0" y="700.0000000000001" type="line"/>
      <point x="260.9379999999999" y="700.0" type="line"/>
      <point x="260.9379999999999" y="860.0" type="line"/>
      <point x="1129.0" y="860.0000000000001" type="line"/>
    </contour>
    <contour>
      <point x="1122.966" y="660.0000000000001" type="line"/>
      <point x="145.9399999999999" y="660.0" type="line"/>
      <point x="145.9399999999999" y="820.0" type="line"/>
      <point x="1122.966" y="820.0000000000001" type="line"/>
    </contour>
    <contour>
      <point x="1116.931" y="620.0000000000001" type="line"/>
      <point x="87.47199999999991" y="620.0" type="line"/>
      <point x="87.47199999999991" y="780.0" type="line"/>
      <point x="1116.931" y="780.0000000000001" type="line"/>
    </contour>
    <contour>
      <point x="1110.897" y="580.0000000000001" type="line"/>
      <point x="53.76399999999993" y="580.0" type="line"/>
      <point x="53.76399999999993" y="740.0" type="line"/>
      <point x="1110.897" y="740.0000000000001" type="line"/>
    </contour>
    <contour>
      <point x="1104.862" y="540.0000000000001" type="line"/>
      <point x="34.26299999999993" y="540.0" type="line"/>
      <point x="34.26299999999993" y="700.0" type="line"/>
      <point x="1104.862" y="700.0000000000001" type="line"/>
    </contour>
    <contour>
      <point x="1098.828" y="500.0000000000001" type="line"/>
      <point x="23.99299999999993" y="500.0" type="line"/>
      <point x="23.99299999999993" y="660.0" type="line"/>
      <point x="1098.828" y="660.0000000000001" type="line"/>
    </contour>
    <contour>
      <point x="409.14099999999996" y="460.0" type="line"/>
      <point x="20.167999999999918" y="460.0" type="line"/>
      <point x="20.167999999999957" y="620.0" type="line"/>
      <point x="409.14099999999996" y="620.0" type="line"/>
    </contour>
    <contour>
      <point x="996.6209999999999" y="420.0000000000001" type="line"/>
      <point x="21.289999999999942" y="420.0" type="line"/>
      <point x="21.289999999999942" y="580.0" type="line"/>
      <point x="996.6209999999999" y="580.0000000000001" type="line"/>
    </contour>
    <contour>
      <point x="1094.243" y="380.0000000000001" type="line"/>
      <point x="28.170999999999946" y="380.0" type="line"/>
      <point x="28.170999999999946" y="540.0" type="line"/>
      <point x="1094.243" y="540.0000000000001" type="line"/>
    </contour>
    <contour>
      <point x="1140.867" y="340.0000000000001" type="line"/>
      <point x="43.24099999999996" y="340.0" type="line"/>
      <point x="43.24099999999996" y="500.0" type="line"/>
      <point x="1140.867" y="500.0000000000001" type="line"/>
    </contour>
    <contour>
      <point x="1166.41" y="300.00000000000017" type="line"/>
      <point x="70.85699999999996" y="300.0" type="line"/>
      <point x="70.85699999999996" y="460.0" type="line"/>
      <point x="1166.41" y="460.00000000000017" type="line"/>
    </contour>
    <contour>
      <point x="1180.52" y="260.00000000000017" type="line"/>
      <point x="120.28399999999996" y="260.0" type="line"/>
      <point x="120.28399999999996" y="420.0" type="line"/>
      <point x="1180.52" y="420.00000000000017" type="line"/>
    </contour>
    <contour>
      <point x="1187.58" y="220.00000000000017" type="line"/>
      <point x="219.22199999999998" y="220.0" type="line"/>
      <point x="219.22199999999998" y="380.0" type="line"/>
      <point x="1187.58" y="380.00000000000017" type="line"/>
    </contour>
    <contour>
      <point x="1189.952" y="180.00000000000017" type="line"/>
      <point x="785.209" y="180.0000000000001" type="line"/>
      <point x="785.209" y="340.0000000000001" type="line"/>
      <point x="1189.952" y="340.00000000000017" type="line"/>
    </contour>
    <contour>
      <point x="1188.002" y="140.00000000000014" type="line"/>
      <point x="55.78699999999998" y="140.0" type="line"/>
      <point x="55.78699999999998" y="300.0" type="line"/>
      <point x="1188.002" y="300.0000000000001" type="line"/>
    </contour>
    <contour>
      <point x="1179.044" y="100.00000000000014" type="line"/>
      <point x="49.829999999999984" y="100.0" type="line"/>
      <point x="49.829999999999984" y="260.0" type="line"/>
      <point x="1179.044" y="260.0000000000001" type="line"/>
    </contour>
    <contour>
      <point x="1160.11" y="60.00000000000014" type="line"/>
      <point x="43.87199999999999" y="60.0" type="line"/>
      <point x="43.87199999999999" y="220.0" type="line"/>
      <point x="1160.11" y="220.00000000000014" type="line"/>
    </contour>
    <contour>
      <point x="1126.108" y="20.000000000000142" type="line"/>
      <point x="37.91499999999999" y="20.0" type="line"/>
      <point x="37.91499999999999" y="180.0" type="line"/>
      <point x="1126.108" y="180.00000000000014" type="line"/>
    </contour>
    <contour>
      <point x="1066.548" y="-19.999999999999872" type="line"/>
      <point x="31.956999999999997" y="-19.999999999999993" type="line"/>
      <point x="31.956999999999997" y="140.0" type="line"/>
      <point x="1066.548" y="140.0000000000001" type="line"/>
    </contour>
    <contour>
      <point x="950.743" y="-59.999999999999886" type="line"/>
      <point x="26.0" y="-60.0" type="line"/>
      <point x="26.0" y="100.0" type="line"/>
      <point x="950.743" y="100.00000000000011" type="line"/>
    </contour>
  </outline>
</glyph>
<glyph name="s_angle_225_step_60" format="2">
  <advance width="1210"/>
  <outline>
    <contour>
      <point x="1059.454554717898" y="637.4136297260204" type="line"/>
      <point x="961.2635857619905" y="735.604598681928" type="line"/>
      <point x="1074.400670751838" y="848.7416836717755" type="line"/>
      <point x="1172.5916397077456" y="750.5507147158679" type="line"/>
    </contour>
    <contour>
      <point x="1048.3317650498336" y="563.6836056516992" type="line"/>
      <point x="868.0075150319838" y="744.0078556695489" type="line"/>
      <point x="981.1446000218314" y="857.1449406593965" type="line"/>
      <point x="1161.4688500396812" y="676.8206906415468" type="line"/>
    </contour>
    <contour>
      <point x="1035.5600023680422" y="491.6025545911049" type="line"/>
      <point x="776.7681128419212" y="750.3944441172258" type="line"/>
      <point x="889.9051978317688" y="863.5315291070734" type="line"/>
      <point x="1148.6970873578898" y="604.7396395809525" type="line"/>
    </contour>
    <contour>
      <point x="1098.9634390099152" y="343.34630420684624" type="line"/>
      <point x="1041.0337159612072" y="401.27602725555414" type="line"/>
      <point x="1154.1708009510548" y="514.4131122454017" type="line"/>
      <point x="1212.1005239997628" y="456.4833891966939" type="line"/>
    </contour>
    <contour>
      <point x="943.2762034621671" y="499.03353975459436" type="line"/>
      <point x="688.8796896879016" y="753.4300535288596" type="line"/>
      <point x="802.0167746777493" y="866.5671385187072" type="line"/>
      <point x="1056.4132884520147" y="612.170624744442" type="line"/>
    </contour>
    <contour>
      <point x="1132.5948517367099" y="224.86207773766597" type="line"/>
      <point x="906.1163278972516" y="451.34060157712406" type="line"/>
      <point x="1019.2534128870992" y="564.4776865669717" type="line"/>
      <point x="1245.7319367265575" y="337.99916272751364" type="line"/>
    </contour>
    <contour>
      <point x="852.9284629231806" y="504.5284665511949" type="line"/>
      <point x="604.0254617319536" y="753.431467742422" type="line"/>
      <point x="717.1625467218012" y="866.5685527322696" type="line"/>
      <point x="966.0655479130282" y="617.6655515410425" type="line"/>
    </contour>
    <contour>
      <point x="1128.198061771292" y="144.40605396069816" type="line"/>
      <point x="806.6433743470529" y="465.9607413849369" type="line"/>
      <point x="919.7804593369005" y="579.0978263747845" type="line"/>
      <point x="1241.3351467611396" y="257.54313895054577" type="line"/>
    </contour>
    <contour>
      <point x="764.3654598999093" y="508.23865583208067" type="line"/>
      <point x="519.3911439849546" y="753.2129717470352" type="line"/>
      <point x="632.5282289748022" y="866.3500567368828" type="line"/>
      <point x="877.5025448897569" y="621.3757408219283" type="line"/>
    </contour>
    <contour>
      <point x="1103.8424758001024" y="83.90882618950185" type="line"/>
      <point x="715.0504187663971" y="472.70088322320714" type="line"/>
      <point x="828.1875037562447" y="585.8379682130548" type="line"/>
      <point x="1216.97956078995" y="197.04591117934942" type="line"/>
    </contour>
    <contour>
      <point x="677.5886086059149" y="510.1626933836892" type="line"/>
      <point x="436.7473318269956" y="751.0039701626084" type="line"/>
      <point x="549.8844168168432" y="864.141055152456" type="line"/>
      <point x="790.7256935957626" y="623.2997783735368" type="line"/>
    </contour>
    <contour>
      <point x="1064.1667143077252" y="38.73177393949335" type="line"/>
      <point x="627.1690666801894" y="475.72942156702914" type="line"/>
      <point x="740.306151670037" y="588.8665065568767" type="line"/>
      <point x="1177.3037992975728" y="151.86885892934092" type="line"/>
    </contour>
    <contour>
      <point x="592.4670942866784" y="510.43139396054005" type="line"/>
      <point x="356.93406811412643" y="745.964420133092" type="line"/>
      <point x="470.07115310397404" y="859.1015051229396" type="line"/>
      <point x="705.604179276526" y="623.5684789503877" type="line"/>
    </contour>
    <contour>
      <point x="1013.0436011347192" y="5.002073370113791" type="line"/>
      <point x="540.36534532851" y="477.68032917632274" type="line"/>
      <point x="653.5024303183576" y="590.8174141661704" type="line"/>
      <point x="1126.1806861245668" y="118.13915835996144" type="line"/>
    </contour>
    <contour>
      <point x="507.6142805442927" y="510.43139396054005" type="line"/>
      <point x="280.6407819580039" y="737.4048925468287" type="line"/>
      <point x="393.77786694785146" y="850.5419775366763" type="line"/>
      <point x="620.7513655341403" y="623.5684789503877" type="line"/>
    </contour>
    <contour>
      <point x="953.2152963785254" y="-20.022435616078113" type="line"/>
      <point x="751.8072434660362" y="181.38561729641094" type="line"/>
      <point x="864.9443284558838" y="294.52270228625855" type="line"/>
      <point x="1066.352381368373" y="93.11464937376954" type="line"/>
    </contour>
    <contour>
      <point x="729.8579418712245" y="203.33491889122257" type="line"/>
      <point x="453.56162397683056" y="479.63123678561647" type="line"/>
      <point x="566.6987089666782" y="592.7683217754641" type="line"/>
      <point x="842.9950268610721" y="316.4720038810701" type="line"/>
    </contour>
    <contour>
      <point x="422.7671236561564" y="510.4257371062906" type="line"/>
      <point x="208.76196343682898" y="724.4308973256179" type="line"/>
      <point x="321.89904842667653" y="837.5679823154655" type="line"/>
      <point x="535.904208646004" y="623.5628220961382" type="line"/>
    </contour>
    <contour>
      <point x="886.619272619595" y="-38.27922559953355" type="line"/>
      <point x="670.8583662625814" y="177.48168075748004" type="line"/>
      <point x="783.995451252429" y="290.6187657473276" type="line"/>
      <point x="999.7563576094426" y="74.85785939031402" type="line"/>
    </contour>
    <contour>
      <point x="641.3621139921659" y="206.97793302789563" type="line"/>
      <point x="365.75593231620985" y="482.58411470385147" type="line"/>
      <point x="478.8930173060574" y="595.7211996936991" type="line"/>
      <point x="754.4991989820135" y="320.1150180177433" type="line"/>
    </contour>
    <contour>
      <point x="340.96759699493424" y="507.372450025127" type="line"/>
      <point x="142.466460059903" y="705.8735869601583" type="line"/>
      <point x="255.6035450497506" y="819.0106719500059" type="line"/>
      <point x="454.10468198478185" y="620.5095350149746" type="line"/>
    </contour>
    <contour>
      <point x="814.64499468296" y="-51.157761405284205" type="line"/>
      <point x="586.05575710166" y="177.43147617601574" type="line"/>
      <point x="699.1928420915076" y="290.5685611658634" type="line"/>
      <point x="927.7820796728076" y="61.979323584563446" type="line"/>
    </contour>
    <contour>
      <point x="554.2543367245762" y="209.23289655309952" type="line"/>
      <point x="83.2766727271207" y="680.2105605505549" type="line"/>
      <point x="196.41375771696826" y="793.3476455404025" type="line"/>
      <point x="667.3914217144238" y="322.36998154294713" type="line"/>
    </contour>
    <contour>
      <point x="738.3099892267475" y="-59.67556969145734" type="line"/>
      <point x="501.2029433592743" y="177.43147617601574" type="line"/>
      <point x="614.3400283491219" y="290.56856116586334" type="line"/>
      <point x="851.4470742165951" y="53.46151529839031" type="line"/>
    </contour>
    <contour>
      <point x="467.13241732136294" y="211.50200221392714" type="line"/>
      <point x="33.159065396961765" y="645.475354138328" type="line"/>
      <point x="146.29615038680933" y="758.6124391281757" type="line"/>
      <point x="580.2695023112105" y="324.6390872037748" type="line"/>
    </contour>
    <contour>
      <point x="658.3786386814202" y="-64.5970328885157" type="line"/>
      <point x="416.1592107859683" y="177.62239500693607" type="line"/>
      <point x="529.2962957758159" y="290.75947999678374" type="line"/>
      <point x="771.5157236712678" y="48.54005210133195" type="line"/>
    </contour>
    <contour>
      <point x="379.4582475220429" y="214.32335827086143" type="line"/>
      <point x="-5.422801904919751" y="599.2044076978239" type="line"/>
      <point x="107.71428308492781" y="712.3414926876715" type="line"/>
      <point x="492.59533251189043" y="327.4604432607091" type="line"/>
    </contour>
    <contour>
      <point x="575.434306141457" y="-66.50551409093823" type="line"/>
      <point x="329.916932218551" y="179.01185983196763" type="line"/>
      <point x="443.05401720839853" y="292.14894482181523" type="line"/>
      <point x="688.5713911313046" y="46.631570898909416" type="line"/>
    </contour>
    <contour>
      <point x="287.5888131899431" y="221.33997886057557" type="line"/>
      <point x="-29.581105084158125" y="538.5098971346766" type="line"/>
      <point x="83.55597990568944" y="651.6469821245242" type="line"/>
      <point x="400.72589817979065" y="334.4770638504232" type="line"/>
    </contour>
    <contour>
      <point x="490.64442490259694" y="-66.56844659446388" type="line"/>
      <point x="242.21447814798353" y="181.86150016014938" type="line"/>
      <point x="355.3515631378311" y="294.99858514999704" type="line"/>
      <point x="603.7815098924445" y="46.56863839538377" type="line"/>
    </contour>
    <contour>
      <point x="186.503656178639" y="237.5723221294939" type="line"/>
      <point x="-36.35660226148762" y="460.4325805696204" type="line"/>
      <point x="76.78048272835994" y="573.569665559468" type="line"/>
      <point x="299.64074116848656" y="350.70940711934156" type="line"/>
    </contour>
    <contour>
      <point x="405.7866614127429" y="-66.56349684699556" type="line"/>
      <point x="152.82416019072372" y="186.39900437502348" type="line"/>
      <point x="265.96124518057127" y="299.53608936487115" type="line"/>
      <point x="518.9237464025905" y="46.57358814285209" type="line"/>
    </contour>
    <contour>
      <point x="318.7800004148629" y="-64.40964959150132" type="line"/>
      <point x="61.32878534587158" y="193.04156547748988" type="line"/>
      <point x="174.46587033571922" y="306.17865046733743" type="line"/>
      <point x="431.9170854047105" y="48.727435398346245" type="line"/>
    </contour>
    <contour>
      <point x="229.15068036556204" y="-59.63314328458624" type="line"/>
      <point x="0.10889444430267758" y="169.40864263667305" type="line"/>
      <point x="113.24597943415023" y="282.5457276265207" type="line"/>
      <point x="342.2877653554096" y="53.50394170526141" type="line"/>
    </contour>
    <contour>
      <point x="137.68358979195744" y="-53.01886645336732" type="line"/>
      <point x="-10.890151537054045" y="95.55487487564407" type="line"/>
      <point x="102.24693345279351" y="208.69195986549173" type="line"/>
      <point x="250.820674781805" y="60.11821853648033" type="line"/>
    </contour>
    <contour>
      <point x="44.491865779038775" y="-44.679956182834374" type="line"/>
      <point x="-21.889904625191953" y="21.70181422139632" type="line"/>
      <point x="91.2471803646556" y="134.83889921124398" type="line"/>
      <point x="157.62895076888634" y="68.45712880701328" type="line"/>
    </contour>
  </outline>
</glyph>
<glyph name="s_angle_90_step_40" format="2">
  <advance width="1210"/>
  <outline>
    <contour>
      <point x="129.99999999999994" y="653.844" type="line"/>
      <point x="129.99999999999997" y="407.879" type="line"/>
      <point x="-30.00000000000003" y="407.879" type="line"/>
      <point x="-30.000000000000043" y="653.844" type="line"/>
    </contour>
    <contour>
      <point x="130.0" y="181.143" type="line"/>
      <point x="130.0" y="17.238000000000003" type="line"/>
      <point x="-30.0" y="17.238000000000014" type="line"/>
      <point x="-30.000000000000014" y="181.143" type="line"/>
    </contour>
    <contour>
      <point x="169.99999999999994" y="702.287" type="line"/>
      <point x="169.99999999999997" y="361.571" type="line"/>
      <point x="9.999999999999972" y="361.571" type="line"/>
      <point x="9.999999999999957" y="702.287" type="line"/>
    </contour>
    <contour>
      <point x="170.0" y="252.115" type="line"/>
      <point x="170.0" y="12.994000000000005" type="line"/>
      <point x="10.0" y="12.994000000000016" type="line"/>
      <point x="9.999999999999986" y="252.115" type="line"/>
    </contour>
    <contour>
      <point x="209.99999999999994" y="731.208" type="line"/>
      <point x="209.99999999999997" y="334.407" type="line"/>
      <point x="49.99999999999997" y="334.407" type="line"/>
      <point x="49.99999999999994" y="731.208" type="line"/>
    </contour>
    <contour>
      <point x="209.99999999999997" y="248.59900000000002" type="line"/>
      <point x="210.0" y="9.119000000000025" type="line"/>
      <point x="50.0" y="9.119000000000018" type="line"/>
      <point x="49.99999999999997" y="248.599" type="line"/>
    </contour>
    <contour>
      <point x="249.99999999999994" y="751.279" type="line"/>
      <point x="249.99999999999997" y="315.914" type="line"/>
      <point x="89.99999999999997" y="315.914" type="line"/>
      <point x="89.99999999999994" y="751.279" type="line"/>
    </contour>
    <contour>
      <point x="249.99999999999997" y="245.55500000000004" type="line"/>
      <point x="250.0" y="5.562000000000029" type="line"/>
      <point x="90.0" y="5.562000000000021" type="line"/>
      <point x="89.99999999999997" y="245.555" type="line"/>
    </contour>
    <contour>
      <point x="289.99999999999994" y="766.099" type="line"/>
      <point x="290.0" y="302.551" type="line"/>
      <point x="129.99999999999997" y="302.551" type="line"/>
      <point x="129.99999999999994" y="766.099" type="line"/>
    </contour>
    <contour>
      <point x="290.0" y="242.93100000000004" type="line"/>
      <point x="290.0" y="2.3000000000000305" type="line"/>
      <point x="130.0" y="2.3000000000000225" type="line"/>
      <point x="129.99999999999997" y="242.931" type="line"/>
    </contour>
    <contour>
      <point x="329.99999999999994" y="777.388" type="line"/>
      <point x="330.0" y="292.618" type="line"/>
      <point x="169.99999999999997" y="292.618" type="line"/>
      <point x="169.99999999999994" y="777.388" type="line"/>
    </contour>
    <contour>
      <point x="330.0" y="240.68800000000005" type="line"/>
      <point x="330.0" y="-0.668999999999967" type="line"/>
      <point x="170.0" y="-0.668999999999975" type="line"/>
      <point x="169.99999999999997" y="240.68800000000002" type="line"/>
    </contour>
    <contour>
      <point x="369.99999999999994" y="786.124" type="line"/>
      <point x="370.0" y="285.148" type="line"/>
      <point x="210.0" y="285.148" type="line"/>
      <point x="209.99999999999994" y="786.124" type="line"/>
    </contour>
    <contour>
      <point x="370.0" y="238.80000000000004" type="line"/>
      <point x="370.0" y="-3.334999999999982" type="line"/>
      <point x="210.0" y="-3.3349999999999724" type="line"/>
      <point x="210.0" y="238.80000000000004" type="line"/>
    </contour>
    <contour>
      <point x="409.99999999999994" y="792.921" type="line"/>
      <point x="410.0" y="279.533" type="line"/>
      <point x="250.0" y="279.533" type="line"/>
      <point x="249.99999999999994" y="792.921" type="line"/>
    </contour>
    <contour>
      <point x="410.0" y="237.24300000000002" type="line"/>
      <point x="410.0" y="-5.66799999999998" type="line"/>
      <point x="250.0" y="-5.66799999999997" type="line"/>
      <point x="250.0" y="237.24300000000002" type="line"/>
    </contour>
    <contour>
      <point x="449.99999999999994" y="798.191" type="line"/>
      <point x="450.0" y="275.361" type="line"/>
      <point x="290.0" y="275.361" type="line"/>
      <point x="289.99999999999994" y="798.191" type="line"/>
    </contour>
    <contour>
      <point x="450.0" y="236.00300000000001" type="line"/>
      <point x="450.0" y="-7.613999999999977" type="line"/>
      <point x="290.0" y="-7.613999999999967" type="line"/>
      <point x="290.0" y="236.00300000000001" type="line"/>
    </contour>
    <contour>
      <point x="489.99999999999994" y="802.23" type="line"/>
      <point x="489.99999999999994" y="565.144" type="line"/>
      <point x="329.99999999999994" y="565.144" type="line"/>
      <point x="329.99999999999994" y="802.23" type="line"/>
    </contour>
    <contour>
      <point x="489.99999999999994" y="539.937" type="line"/>
      <point x="490.0" y="272.342" type="line"/>
      <point x="330.0" y="272.342" type="line"/>
      <point x="329.99999999999994" y="539.937" type="line"/>
    </contour>
    <contour>
      <point x="490.0" y="235.06600000000003" type="line"/>
      <point x="490.0" y="-9.083999999999975" type="line"/>
      <point x="330.0" y="-9.083999999999964" type="line"/>
      <point x="330.0" y="235.06600000000003" type="line"/>
    </contour>
    <contour>
      <point x="530.0" y="805.254" type="line"/>
      <point x="530.0" y="566.734" type="line"/>
      <point x="369.99999999999994" y="566.734" type="line"/>
      <point x="369.99999999999994" y="805.254" type="line"/>
    </contour>
    <contour>
      <point x="530.0" y="537.91" type="line"/>
      <point x="530.0" y="270.26" type="line"/>
      <point x="370.0" y="270.26" type="line"/>
      <point x="369.99999999999994" y="537.91" type="line"/>
    </contour>
    <contour>
      <point x="530.0" y="234.42600000000002" type="line"/>
      <point x="530.0" y="-9.912999999999972" type="line"/>
      <point x="370.0" y="-9.912999999999961" type="line"/>
      <point x="370.0" y="234.42600000000002" type="line"/>
    </contour>
    <contour>
      <point x="570.0" y="807.426" type="line"/>
      <point x="570.0" y="567.0" type="line"/>
      <point x="409.99999999999994" y="567.0" type="line"/>
      <point x="409.99999999999994" y="807.426" type="line"/>
    </contour>
    <contour>
      <point x="570.0" y="536.69" type="line"/>
      <point x="570.0" y="268.94800000000004" type="line"/>
      <point x="410.0" y="268.94800000000004" type="line"/>
      <point x="409.99999999999994" y="536.69" type="line"/>
    </contour>
    <contour>
      <point x="570.0" y="234.07500000000002" type="line"/>
      <point x="570.0" y="-9.99999999999997" type="line"/>
      <point x="410.0" y="-9.99999999999996" type="line"/>
      <point x="410.0" y="234.07500000000002" type="line"/>
    </contour>
    <contour>
      <point x="610.0" y="808.876" type="line"/>
      <point x="610.0" y="567.0" type="line"/>
      <point x="450.0" y="567.0" type="line"/>
      <point x="450.0" y="808.876" type="line"/>
    </contour>
    <contour>
      <point x="610.0" y="535.753" type="line"/>
      <point x="610.0" y="267.90600000000006" type="line"/>
      <point x="450.0" y="267.90600000000006" type="line"/>
      <point x="450.0" y="535.753" type="line"/>
    </contour>
    <contour>
      <point x="610.0" y="234.00000000000003" type="line"/>
      <point x="610.0" y="-9.999999999999968" type="line"/>
      <point x="450.0" y="-9.999999999999957" type="line"/>
      <point x="450.0" y="234.00000000000003" type="line"/>
    </contour>
    <contour>
      <point x="650.0" y="809.706" type="line"/>
      <point x="650.0" y="567.0" type="line"/>
      <point x="490.0" y="567.0" type="line"/>
      <point x="490.0" y="809.706" type="line"/>
    </contour>
    <contour>
      <point x="650.0" y="534.854" type="line"/>
      <point x="650.0" y="266.86500000000007" type="line"/>
      <point x="490.0" y="266.86500000000007" type="line"/>
      <point x="490.0" y="534.854" type="line"/>
    </contour>
    <contour>
      <point x="650.0" y="234.00000000000003" type="line"/>
      <point x="650.0" y="-9.999999999999964" type="line"/>
      <point x="490.0" y="-9.999999999999954" type="line"/>
      <point x="490.0" y="234.00000000000003" type="line"/>
    </contour>
    <contour>
      <point x="690.0" y="809.998" type="line"/>
      <point x="690.0" y="567.0" type="line"/>
      <point x="530.0" y="567.0" type="line"/>
      <point x="530.0" y="809.998" type="line"/>
    </contour>
    <contour>
      <point x="690.0" y="533.955" type="line"/>
      <point x="690.0" y="265.82300000000004" type="line"/>
      <point x="530.0" y="265.82300000000004" type="line"/>
      <point x="530.0" y="533.955" type="line"/>
    </contour>
    <contour>
      <point x="690.0" y="234.00000000000003" type="line"/>
      <point x="690.0" y="-9.999999999999963" type="line"/>
      <point x="530.0" y="-9.999999999999952" type="line"/>
      <point x="530.0" y="234.00000000000003" type="line"/>
    </contour>
    <contour>
      <point x="730.0" y="810.0" type="line"/>
      <point x="730.0" y="567.0" type="line"/>
      <point x="570.0" y="567.0" type="line"/>
      <point x="570.0" y="810.0" type="line"/>
    </contour>
    <contour>
      <point x="730.0" y="533.056" type="line"/>
      <point x="730.0" y="264.78100000000006" type="line"/>
      <point x="570.0" y="264.78100000000006" type="line"/>
      <point x="570.0" y="533.056" type="line"/>
    </contour>
    <contour>
      <point x="730.0" y="234.00000000000003" type="line"/>
      <point x="730.0" y="-9.75699999999996" type="line"/>
      <point x="570.0" y="-9.75699999999995" type="line"/>
      <point x="570.0" y="234.00000000000003" type="line"/>
    </contour>
    <contour>
      <point x="770.0" y="810.0" type="line"/>
      <point x="770.0" y="567.0" type="line"/>
      <point x="610.0" y="567.0" type="line"/>
      <point x="610.0" y="810.0" type="line"/>
    </contour>
    <contour>
      <point x="770.0" y="532.157" type="line"/>
      <point x="770.0" y="263.75100000000003" type="line"/>
      <point x="610.0" y="263.75100000000003" type="line"/>
      <point x="610.0" y="532.157" type="line"/>
    </contour>
    <contour>
      <point x="770.0" y="234.00000000000003" type="line"/>
      <point x="770.0" y="-8.904999999999957" type="line"/>
      <point x="610.0" y="-8.904999999999946" type="line"/>
      <point x="610.0" y="234.00000000000003" type="line"/>
    </contour>
    <contour>
      <point x="810.0" y="810.0" type="line"/>
      <point x="810.0" y="566.778" type="line"/>
      <point x="650.0" y="566.778" type="line"/>
      <point x="650.0" y="810.0" type="line"/>
    </contour>
    <contour>
      <point x="810.0" y="531.029" type="line"/>
      <point x="810.0" y="262.62800000000004" type="line"/>
      <point x="650.0" y="262.62800000000004" type="line"/>
      <point x="650.0" y="531.029" type="line"/>
    </contour>
    <contour>
      <point x="810.0" y="234.06800000000007" type="line"/>
      <point x="810.0" y="-7.359999999999956" type="line"/>
      <point x="650.0" y="-7.359999999999946" type="line"/>
      <point x="650.0" y="234.06800000000007" type="line"/>
    </contour>
    <contour>
      <point x="850.0" y="809.656" type="line"/>
      <point x="850.0" y="566.153" type="line"/>
      <point x="690.0" y="566.153" type="line"/>
      <point x="690.0" y="809.656" type="line"/>
    </contour>
    <contour>
      <point x="850.0" y="529.35" type="line"/>
      <point x="850.0" y="260.99000000000007" type="line"/>
      <point x="690.0" y="260.99000000000007" type="line"/>
      <point x="690.0" y="529.35" type="line"/>
    </contour>
    <contour>
      <point x="850.0" y="234.88000000000005" type="line"/>
      <point x="850.0" y="-5.018999999999953" type="line"/>
      <point x="690.0" y="-5.018999999999943" type="line"/>
      <point x="690.0" y="234.88000000000005" type="line"/>
    </contour>
    <contour>
      <point x="890.0" y="808.181" type="line"/>
      <point x="890.0" y="565.146" type="line"/>
      <point x="730.0" y="565.146" type="line"/>
      <point x="730.0" y="808.181" type="line"/>
    </contour>
    <contour>
      <point x="890.0" y="526.999" type="line"/>
      <point x="890.0" y="256.90200000000004" type="line"/>
      <point x="730.0" y="256.90200000000004" type="line"/>
      <point x="730.0" y="526.999" type="line"/>
    </contour>
    <contour>
      <point x="890.0" y="238.22900000000007" type="line"/>
      <point x="890.0" y="-1.7559999999999505" type="line"/>
      <point x="730.0" y="-1.7559999999999407" type="line"/>
      <point x="730.0" y="238.22900000000007" type="line"/>
    </contour>
    <contour>
      <point x="930.0" y="805.971" type="line"/>
      <point x="930.0" y="563.777" type="line"/>
      <point x="770.0" y="563.777" type="line"/>
      <point x="770.0" y="805.971" type="line"/>
    </contour>
    <contour>
      <point x="930.0" y="523.806" type="line"/>
      <point x="930.0" y="2.593000000000052" type="line"/>
      <point x="770.0" y="2.5930000000000617" type="line"/>
      <point x="770.0" y="523.806" type="line"/>
    </contour>
    <contour>
      <point x="970.0" y="803.25" type="line"/>
      <point x="970.0" y="562.058" type="line"/>
      <point x="810.0" y="562.058" type="line"/>
      <point x="810.0" y="803.25" type="line"/>
    </contour>
    <contour>
      <point x="970.0" y="519.541" type="line"/>
      <point x="970.0" y="8.243000000000055" type="line"/>
      <point x="810.0" y="8.243000000000066" type="line"/>
      <point x="810.0" y="519.541" type="line"/>
    </contour>
    <contour>
      <point x="1010.0" y="800.1330000000002" type="line"/>
      <point x="1010.0" y="560.0000000000001" type="line"/>
      <point x="850.0" y="560.0000000000001" type="line"/>
      <point x="850.0" y="800.1330000000002" type="line"/>
    </contour>
    <contour>
      <point x="1010.0" y="513.8840000000001" type="line"/>
      <point x="1010.0" y="15.486000000000057" type="line"/>
      <point x="850.0" y="15.486000000000068" type="line"/>
      <point x="850.0" y="513.8840000000001" type="line"/>
    </contour>
    <contour>
      <point x="1050.0" y="796.6850000000001" type="line"/>
      <point x="1050.0" y="557.6070000000001" type="line"/>
      <point x="890.0" y="557.6070000000001" type="line"/>
      <point x="890.0" y="796.6850000000001" type="line"/>
    </contour>
    <contour>
      <point x="1050.0" y="506.36800000000005" type="line"/>
      <point x="1050.0" y="24.73700000000006" type="line"/>
      <point x="890.0" y="24.73700000000007" type="line"/>
      <point x="890.0" y="506.36800000000005" type="line"/>
    </contour>
    <contour>
      <point x="1090.0" y="792.9400000000002" type="line"/>
      <point x="1090.0" y="554.8770000000001" type="line"/>
      <point x="930.0" y="554.8770000000001" type="line"/>
      <point x="930.0" y="792.9400000000002" type="line"/>
    </contour>
    <contour>
      <point x="1090.0" y="496.27900000000005" type="line"/>
      <point x="1090.0" y="36.619000000000064" type="line"/>
      <point x="930.0" y="36.61900000000007" type="line"/>
      <point x="930.0" y="496.27900000000005" type="line"/>
    </contour>
    <contour>
      <point x="1130.0" y="788.9080000000001" type="line"/>
      <point x="1130.0" y="551.8030000000001" type="line"/>
      <point x="970.0" y="551.8030000000001" type="line"/>
      <point x="970.0" y="788.9080000000001" type="line"/>
    </contour>
    <contour>
      <point x="1130.0" y="482.43100000000004" type="line"/>
      <point x="1130.0" y="52.13600000000007" type="line"/>
      <point x="970.0" y="52.136000000000074" type="line"/>
      <point x="970.0" y="482.43100000000004" type="line"/>
    </contour>
    <contour>
      <point x="1170.0" y="784.5730000000001" type="line"/>
      <point x="1170.0" y="548.3650000000001" type="line"/>
      <point x="1010.0" y="548.3650000000001" type="line"/>
      <point x="1010.0" y="784.5730000000001" type="line"/>
    </contour>
    <contour>
      <point x="1170.0" y="462.61100000000005" type="line"/>
      <point x="1170.0" y="73.11600000000007" type="line"/>
      <point x="1010.0" y="73.11600000000008" type="line"/>
      <point x="1010.0" y="462.61100000000005" type="line"/>
    </contour>
    <contour>
      <point x="1210.0" y="431.79600000000005" type="line"/>
      <point x="1210.0" y="103.60600000000007" type="line"/>
      <point x="1050.0" y="103.60600000000008" type="line"/>
      <point x="1050.0" y="431.79600000000005" type="line"/>
    </contour>
    <contour>
      <point x="1250.0" y="371.90900000000005" type="line"/>
      <point x="1250.0" y="157.75400000000008" type="line"/>
      <point x="1090.0" y="157.75400000000008" type="line"/>
      <point x="1090.0" y="371.90900000000005" type="line"/>
    </contour>
  </outline>
</glyph>
<glyph name="s_angle_90_step_60" format="2">
  <advance width="1210"/>
  <outline>
    <contour>
      <point x="109.99999999999997" y="606.731" type="line"/>
      <point x="109.99999999999997" y="453.431" type="line"/>
      <point x="-50.00000000000003" y="453.431" type="line"/>
      <point x="-50.000000000000036" y="606.731" type="line"/>
    </contour>
    <contour>
      <point x="169.99999999999994" y="702.287" type="line"/>
      <point x="169.99999999999997" y="361.571" type="line"/>
      <point x="9.999999999999972" y="361.571" type="line"/>
      <point x="9.999999999999957" y="702.287" type="line"/>
    </contour>
    <contour>
      <point x="170.0" y="252.115" type="line"/>
      <point x="170.0" y="12.994000000000005" type="line"/>
      <point x="10.0" y="12.994000000000016" type="line"/>
      <point x="9.999999999999986" y="252.115" type="line"/>
    </contour>
    <contour>
      <point x="229.99999999999994" y="742.057" type="line"/>
      <point x="229.99999999999997" y="324.364" type="line"/>
      <point x="69.99999999999997" y="324.364" type="line"/>
      <point x="69.99999999999994" y="742.057" type="line"/>
    </contour>
    <contour>
      <point x="229.99999999999997" y="247.02100000000002" type="line"/>
      <point x="230.0" y="7.303000000000027" type="line"/>
      <point x="70.0" y="7.303000000000019" type="line"/>
      <point x="69.99999999999997" y="247.021" type="line"/>
    </contour>
    <contour>
      <point x="289.99999999999994" y="766.099" type="line"/>
      <point x="290.0" y="302.551" type="line"/>
      <point x="129.99999999999997" y="302.551" type="line"/>
      <point x="129.99999999999994" y="766.099" type="line"/>
    </contour>
    <contour>
      <point x="290.0" y="242.93100000000004" type="line"/>
      <point x="290.0" y="2.3000000000000305" type="line"/>
      <point x="130.0" y="2.3000000000000225" type="line"/>
      <point x="129.99999999999997" y="242.931" type="line"/>
    </contour>
    <contour>
      <point x="349.99999999999994" y="782.031" type="line"/>
      <point x="350.0" y="288.619" type="line"/>
      <point x="190.0" y="288.619" type="line"/>
      <point x="189.99999999999994" y="782.031" type="line"/>
    </contour>
    <contour>
      <point x="350.0" y="239.70100000000002" type="line"/>
      <point x="350.0" y="-2.0409999999999835" type="line"/>
      <point x="190.0" y="-2.0409999999999737" type="line"/>
      <point x="190.0" y="239.70100000000002" type="line"/>
    </contour>
    <contour>
      <point x="409.99999999999994" y="792.921" type="line"/>
      <point x="410.0" y="279.533" type="line"/>
      <point x="250.0" y="279.533" type="line"/>
      <point x="249.99999999999994" y="792.921" type="line"/>
    </contour>
    <contour>
      <point x="410.0" y="237.24300000000002" type="line"/>
      <point x="410.0" y="-5.66799999999998" type="line"/>
      <point x="250.0" y="-5.66799999999997" type="line"/>
      <point x="250.0" y="237.24300000000002" type="line"/>
    </contour>
    <contour>
      <point x="469.99999999999994" y="800.35" type="line"/>
      <point x="469.99999999999994" y="562.814" type="line"/>
      <point x="309.99999999999994" y="562.814" type="line"/>
      <point x="309.99999999999994" y="800.35" type="line"/>
    </contour>
    <contour>
      <point x="469.99999999999994" y="541.974" type="line"/>
      <point x="470.0" y="273.723" type="line"/>
      <point x="310.0" y="273.723" type="line"/>
      <point x="309.99999999999994" y="541.974" type="line"/>
    </contour>
    <contour>
      <point x="470.0" y="235.49700000000004" type="line"/>
      <point x="470.0" y="-8.416999999999977" type="line"/>
      <point x="310.0" y="-8.416999999999966" type="line"/>
      <point x="310.0" y="235.49700000000004" type="line"/>
    </contour>
    <contour>
      <point x="530.0" y="805.254" type="line"/>
      <point x="530.0" y="566.734" type="line"/>
      <point x="369.99999999999994" y="566.734" type="line"/>
      <point x="369.99999999999994" y="805.254" type="line"/>
    </contour>
    <contour>
      <point x="530.0" y="537.91" type="line"/>
      <point x="530.0" y="270.26" type="line"/>
      <point x="370.0" y="270.26" type="line"/>
      <point x="369.99999999999994" y="537.91" type="line"/>
    </contour>
    <contour>
      <point x="530.0" y="234.42600000000002" type="line"/>
      <point x="530.0" y="-9.912999999999972" type="line"/>
      <point x="370.0" y="-9.912999999999961" type="line"/>
      <point x="370.0" y="234.42600000000002" type="line"/>
    </contour>
    <contour>
      <point x="590.0" y="808.235" type="line"/>
      <point x="590.0" y="567.0" type="line"/>
      <point x="429.99999999999994" y="567.0" type="line"/>
      <point x="429.99999999999994" y="808.235" type="line"/>
    </contour>
    <contour>
      <point x="590.0" y="536.203" type="line"/>
      <point x="590.0" y="268.4270000000001" type="line"/>
      <point x="430.0" y="268.4270000000001" type="line"/>
      <point x="429.99999999999994" y="536.203" type="line"/>
    </contour>
    <contour>
      <point x="590.0" y="234.00700000000003" type="line"/>
      <point x="590.0" y="-9.999999999999968" type="line"/>
      <point x="430.0" y="-9.999999999999957" type="line"/>
      <point x="430.0" y="234.00700000000003" type="line"/>
    </contour>
    <contour>
      <point x="650.0" y="809.706" type="line"/>
      <point x="650.0" y="567.0" type="line"/>
      <point x="490.0" y="567.0" type="line"/>
      <point x="490.0" y="809.706" type="line"/>
    </contour>
    <contour>
      <point x="650.0" y="534.854" type="line"/>
      <point x="650.0" y="266.86500000000007" type="line"/>
      <point x="490.0" y="266.86500000000007" type="line"/>
      <point x="490.0" y="534.854" type="line"/>
    </contour>
    <contour>
      <point x="650.0" y="234.00000000000003" type="line"/>
      <point x="650.0" y="-9.999999999999964" type="line"/>
      <point x="490.0" y="-9.999999999999954" type="line"/>
      <point x="490.0" y="234.00000000000003" type="line"/>
    </contour>
    <contour>
      <point x="710.0" y="810.0" type="line"/>
      <point x="710.0" y="567.0" type="line"/>
      <point x="550.0" y="567.0" type="line"/>
      <point x="550.0" y="810.0" type="line"/>
    </contour>
    <contour>
      <point x="710.0" y="533.506" type="line"/>
      <point x="710.0" y="265.3020000000001" type="line"/>
      <point x="550.0" y="265.3020000000001" type="line"/>
      <point x="550.0" y="533.506" type="line"/>
    </contour>
    <contour>
      <point x="710.0" y="234.00000000000003" type="line"/>
      <point x="710.0" y="-9.94999999999996" type="line"/>
      <point x="550.0" y="-9.94999999999995" type="line"/>
      <point x="550.0" y="234.00000000000003" type="line"/>
    </contour>
    <contour>
      <point x="770.0" y="810.0" type="line"/>
      <point x="770.0" y="567.0" type="line"/>
      <point x="610.0" y="567.0" type="line"/>
      <point x="610.0" y="810.0" type="line"/>
    </contour>
    <contour>
      <point x="770.0" y="532.157" type="line"/>
      <point x="770.0" y="263.75100000000003" type="line"/>
      <point x="610.0" y="263.75100000000003" type="line"/>
      <point x="610.0" y="532.157" type="line"/>
    </contour>
    <contour>
      <point x="770.0" y="234.00000000000003" type="line"/>
      <point x="770.0" y="-8.904999999999957" type="line"/>
      <point x="610.0" y="-8.904999999999946" type="line"/>
      <point x="610.0" y="234.00000000000003" type="line"/>
    </contour>
    <contour>
      <point x="830.0" y="809.979" type="line"/>
      <point x="830.0" y="566.514" type="line"/>
      <point x="670.0" y="566.514" type="line"/>
      <point x="670.0" y="809.979" type="line"/>
    </contour>
    <contour>
      <point x="830.0" y="530.264" type="line"/>
      <point x="830.0" y="261.91900000000004" type="line"/>
      <point x="670.0" y="261.91900000000004" type="line"/>
      <point x="670.0" y="530.264" type="line"/>
    </contour>
    <contour>
      <point x="830.0" y="234.32700000000006" type="line"/>
      <point x="830.0" y="-6.295999999999954" type="line"/>
      <point x="670.0" y="-6.295999999999944" type="line"/>
      <point x="670.0" y="234.32700000000006" type="line"/>
    </contour>
    <contour>
      <point x="890.0" y="808.181" type="line"/>
      <point x="890.0" y="565.146" type="line"/>
      <point x="730.0" y="565.146" type="line"/>
      <point x="730.0" y="808.181" type="line"/>
    </contour>
    <contour>
      <point x="890.0" y="526.999" type="line"/>
      <point x="890.0" y="256.90200000000004" type="line"/>
      <point x="730.0" y="256.90200000000004" type="line"/>
      <point x="730.0" y="526.999" type="line"/>
    </contour>
    <contour>
      <point x="890.0" y="238.22900000000007" type="line"/>
      <point x="890.0" y="-1.7559999999999505" type="line"/>
      <point x="730.0" y="-1.7559999999999407" type="line"/>
      <point x="730.0" y="238.22900000000007" type="line"/>
    </contour>
    <contour>
      <point x="950.0" y="804.665" type="line"/>
      <point x="950.0" y="562.96" type="line"/>
      <point x="790.0" y="562.96" type="line"/>
      <point x="790.0" y="804.665" type="line"/>
    </contour>
    <contour>
      <point x="950.0" y="521.825" type="line"/>
      <point x="950.0" y="5.239000000000053" type="line"/>
      <point x="790.0" y="5.239000000000063" type="line"/>
      <point x="790.0" y="521.825" type="line"/>
    </contour>
    <contour>
      <point x="1010.0" y="800.1330000000002" type="line"/>
      <point x="1010.0" y="560.0000000000001" type="line"/>
      <point x="850.0" y="560.0000000000001" type="line"/>
      <point x="850.0" y="800.1330000000002" type="line"/>
    </contour>
    <contour>
      <point x="1010.0" y="513.8840000000001" type="line"/>
      <point x="1010.0" y="15.486000000000057" type="line"/>
      <point x="850.0" y="15.486000000000068" type="line"/>
      <point x="850.0" y="513.8840000000001" type="line"/>
    </contour>
    <contour>
      <point x="1070.0" y="794.8480000000001" type="line"/>
      <point x="1070.0" y="556.2840000000001" type="line"/>
      <point x="910.0" y="556.2840000000001" type="line"/>
      <point x="910.0" y="794.8480000000001" type="line"/>
    </contour>
    <contour>
      <point x="1070.0" y="501.70500000000004" type="line"/>
      <point x="1070.0" y="30.29900000000006" type="line"/>
      <point x="910.0" y="30.29900000000007" type="line"/>
      <point x="910.0" y="501.70500000000004" type="line"/>
    </contour>
    <contour>
      <point x="1130.0" y="788.9080000000001" type="line"/>
      <point x="1130.0" y="551.8030000000001" type="line"/>
      <point x="970.0" y="551.8030000000001" type="line"/>
      <point x="970.0" y="788.9080000000001" type="line"/>
    </contour>
    <contour>
      <point x="1130.0" y="482.43100000000004" type="line"/>
      <point x="1130.0" y="52.13600000000007" type="line"/>
      <point x="970.0" y="52.136000000000074" type="line"/>
      <point x="970.0" y="482.43100000000004" type="line"/>
    </contour>
    <contour>
      <point x="1190.0" y="782.2770000000002" type="line"/>
      <point x="1190.0" y="654.0570000000001" type="line"/>
      <point x="1030.0" y="654.0570000000001" type="line"/>
      <point x="1030.0" y="782.2770000000002" type="line"/>
    </contour>
    <contour>
      <point x="1190.0" y="449.1240000000001" type="line"/>
      <point x="1190.0" y="86.73700000000007" type="line"/>
      <point x="1030.0" y="86.73700000000008" type="line"/>
      <point x="1030.0" y="449.1240000000001" type="line"/>
    </contour>
    <contour>
      <point x="1250.0" y="371.90900000000005" type="line"/>
      <point x="1250.0" y="157.75400000000008" type="line"/>
      <point x="1090.0" y="157.75400000000008" type="line"/>
      <point x="1090.0" y="371.90900000000005" type="line"/>
    </contour>
  </outline>
</glyph>
<glyph name="x_angle_135_step_20" format="2">
  <advance width="1280"/>
  <outline>
    <contour>
      <point x="203.84827841436373" y="743.4315636428817" type="line"/>
      <point x="140.4314067436482" y="680.0146919721662" type="line"/>
      <point x="27.294321753800716" y="793.1517769620139" type="line"/>
      <point x="90.71119342451624" y="856.5686486327293" type="line"/>
    </contour>
    <contour>
      <point x="232.13254966182566" y="743.4315636428817" type="line"/>
      <point x="154.62374694884355" y="665.9227609298995" type="line"/>
      <point x="41.48666195899589" y="779.0598459197471" type="line"/>
      <point x="118.995464671978" y="856.5686486327293" type="line"/>
    </contour>
    <contour>
      <point x="260.41682090928754" y="743.4315636428817" type="line"/>
      <point x="168.81538004725746" y="651.8301227808515" type="line"/>
      <point x="55.67829505740986" y="764.9672077706991" type="line"/>
      <point x="147.27973591943993" y="856.5686486327293" type="line"/>
    </contour>
    <contour>
      <point x="288.70109215674944" y="743.4315636428817" type="line"/>
      <point x="183.00701314567152" y="637.7374846318037" type="line"/>
      <point x="69.86992815582391" y="750.8745696216513" type="line"/>
      <point x="175.56400716690183" y="856.5686486327293" type="line"/>
    </contour>
    <contour>
      <point x="316.98536340421134" y="743.4315636428817" type="line"/>
      <point x="197.19864624408547" y="623.6448464827557" type="line"/>
      <point x="84.06156125423786" y="736.7819314726033" type="line"/>
      <point x="203.84827841436373" y="856.5686486327293" type="line"/>
    </contour>
    <contour>
      <point x="345.26963465167324" y="743.4315636428817" type="line"/>
      <point x="211.39027934249953" y="609.5522083337079" type="line"/>
      <point x="98.25319435265192" y="722.6892933235555" type="line"/>
      <point x="232.13254966182564" y="856.5686486327293" type="line"/>
    </contour>
    <contour>
      <point x="373.55390589913515" y="743.4315636428817" type="line"/>
      <point x="225.58191244091347" y="595.4595701846599" type="line"/>
      <point x="112.44482745106586" y="708.5966551745075" type="line"/>
      <point x="260.41682090928754" y="856.5686486327293" type="line"/>
    </contour>
    <contour>
      <point x="401.83817714659705" y="743.4315636428817" type="line"/>
      <point x="239.77425264610872" y="581.3676391423933" type="line"/>
      <point x="126.63716765626111" y="694.5047241322409" type="line"/>
      <point x="288.70109215674944" y="856.5686486327293" type="line"/>
    </contour>
    <contour>
      <point x="430.12244839405895" y="743.4315636428817" type="line"/>
      <point x="253.96588574452272" y="567.2750009933454" type="line"/>
      <point x="140.82880075467511" y="680.412085983193" type="line"/>
      <point x="316.98536340421134" y="856.5686486327293" type="line"/>
    </contour>
    <contour>
      <point x="458.40671964152085" y="743.4315636428817" type="line"/>
      <point x="268.1575188429367" y="553.1823628442975" type="line"/>
      <point x="155.02043385308912" y="666.3194478341451" type="line"/>
      <point x="345.26963465167324" y="856.5686486327293" type="line"/>
    </contour>
    <contour>
      <point x="486.69099088898275" y="743.4315636428817" type="line"/>
      <point x="282.3491519413508" y="539.0897246952496" type="line"/>
      <point x="169.21206695150318" y="652.2268096850972" type="line"/>
      <point x="373.55390589913515" y="856.5686486327293" type="line"/>
    </contour>
    <contour>
      <point x="514.9752621364446" y="743.4315636428817" type="line"/>
      <point x="296.5407850397647" y="524.9970865462017" type="line"/>
      <point x="183.40370004991712" y="638.1341715360493" type="line"/>
      <point x="401.83817714659705" y="856.5686486327293" type="line"/>
    </contour>
    <contour>
      <point x="543.2595333839065" y="743.4315636428817" type="line"/>
      <point x="310.7324181381788" y="510.9044483971538" type="line"/>
      <point x="197.59533314833118" y="624.0415333870014" type="line"/>
      <point x="430.12244839405895" y="856.5686486327293" type="line"/>
    </contour>
    <contour>
      <point x="568.9642790936" y="740.8520381051131" type="line"/>
      <point x="324.924758343374" y="496.8125173548872" type="line"/>
      <point x="211.78767335352637" y="609.9496023447348" type="line"/>
      <point x="455.8271941037524" y="853.9891230949607" type="line"/>
    </contour>
    <contour>
      <point x="582.5824485924716" y="726.1859363565229" type="line"/>
      <point x="339.1163914417879" y="482.7198792058392" type="line"/>
      <point x="225.97930645194032" y="595.8569641956868" type="line"/>
      <point x="469.44536360262396" y="839.3230213463705" type="line"/>
    </contour>
    <contour>
      <point x="596.2006180913435" y="711.5198346079328" type="line"/>
      <point x="353.308024540202" y="468.6272410567914" type="line"/>
      <point x="240.17093955035438" y="581.764326046639" type="line"/>
      <point x="483.06353310149586" y="824.6569195977804" type="line"/>
    </contour>
    <contour>
      <point x="609.8187875902152" y="696.8537328593426" type="line"/>
      <point x="367.49965763861593" y="454.5346029077434" type="line"/>
      <point x="254.36257264876832" y="567.671687897591" type="line"/>
      <point x="496.68170260036754" y="809.9908178491902" type="line"/>
    </contour>
    <contour>
      <point x="623.437664195868" y="682.1883382175336" type="line"/>
      <point x="381.69129073703" y="440.4419647586956" type="line"/>
      <point x="268.5542057471824" y="553.5790497485432" type="line"/>
      <point x="510.3005792060204" y="795.3254232073812" type="line"/>
    </contour>
    <contour>
      <point x="637.0558336947398" y="667.5222364689434" type="line"/>
      <point x="395.88363094222524" y="426.3500337164289" type="line"/>
      <point x="282.74654595237763" y="539.4871187062765" type="line"/>
      <point x="523.9187487048922" y="780.659321458791" type="line"/>
    </contour>
    <contour>
      <point x="650.6740031936115" y="652.8561347203532" type="line"/>
      <point x="410.0752640406392" y="412.25739556738097" type="line"/>
      <point x="296.9381790507916" y="525.3944805572286" type="line"/>
      <point x="537.5369182037639" y="765.9932197102008" type="line"/>
    </contour>
    <contour>
      <point x="664.2921726924833" y="638.1900329717631" type="line"/>
      <point x="424.26689713905324" y="398.1647574183331" type="line"/>
      <point x="311.12981214920563" y="511.30184240818073" type="line"/>
      <point x="551.1550877026357" y="751.3271179616107" type="line"/>
    </contour>
    <contour>
      <point x="677.9110492981362" y="623.5246383299541" type="line"/>
      <point x="438.4585302374672" y="384.07211926928517" type="line"/>
      <point x="325.3214452476196" y="497.2092042591328" type="line"/>
      <point x="564.7739643082886" y="736.6617233198017" type="line"/>
    </contour>
    <contour>
      <point x="691.5292187970078" y="608.8585365813639" type="line"/>
      <point x="452.65016333588125" y="369.9794811202373" type="line"/>
      <point x="339.51307834603364" y="483.11656611008493" type="line"/>
      <point x="578.3921338071602" y="721.9956215712115" type="line"/>
    </contour>
    <contour>
      <point x="705.1473882958796" y="594.1924348327738" type="line"/>
      <point x="276.2114650806516" y="165.25651161754567" type="line"/>
      <point x="163.07438009080397" y="278.3935966073933" type="line"/>
      <point x="592.010303306032" y="707.3295198226214" type="line"/>
    </contour>
    <contour>
      <point x="718.7655577947513" y="579.5263330841834" type="line"/>
      <point x="82.67068221564402" y="-56.5685424949238" type="line"/>
      <point x="-30.46640277420358" y="56.568542494923804" type="line"/>
      <point x="605.6284728049037" y="692.663418074031" type="line"/>
    </contour>
    <contour>
      <point x="910.9550596009113" y="743.4315636428817" type="line"/>
      <point x="764.5266802460199" y="597.0031842879902" type="line"/>
      <point x="651.3895952561722" y="710.1402692778378" type="line"/>
      <point x="797.8179746110637" y="856.5686486327293" type="line"/>
    </contour>
    <contour>
      <point x="732.3844344004042" y="564.8609384423745" type="line"/>
      <point x="110.95495346310592" y="-56.56854249492379" type="line"/>
      <point x="-2.182131526741678" y="56.568542494923804" type="line"/>
      <point x="619.2473494105566" y="677.9980234322221" type="line"/>
    </contour>
    <contour>
      <point x="939.2393308483732" y="743.4315636428817" type="line"/>
      <point x="139.2392247105678" y="-56.56854249492379" type="line"/>
      <point x="26.10213972072021" y="56.56854249492381" type="line"/>
      <point x="826.1022458585256" y="856.5686486327293" type="line"/>
    </contour>
    <contour>
      <point x="967.5236020958351" y="743.4315636428817" type="line"/>
      <point x="167.5234959580297" y="-56.56854249492378" type="line"/>
      <point x="54.38641096818211" y="56.56854249492382" type="line"/>
      <point x="854.3865171059875" y="856.5686486327293" type="line"/>
    </contour>
    <contour>
      <point x="995.807873343297" y="743.4315636428817" type="line"/>
      <point x="195.80776720549161" y="-56.5685424949238" type="line"/>
      <point x="82.670682215644" y="56.568542494923804" type="line"/>
      <point x="882.6707883534494" y="856.5686486327293" type="line"/>
    </contour>
    <contour>
      <point x="1024.0921445907588" y="743.4315636428817" type="line"/>
      <point x="224.0920384529535" y="-56.56854249492378" type="line"/>
      <point x="110.95495346310588" y="56.56854249492382" type="line"/>
      <point x="910.9550596009113" y="856.5686486327293" type="line"/>
    </contour>
    <contour>
      <point x="1052.376415838221" y="743.4315636428817" type="line"/>
      <point x="252.3763097004154" y="-56.56854249492378" type="line"/>
      <point x="139.23922471056778" y="56.56854249492382" type="line"/>
      <point x="939.2393308483732" y="856.5686486327293" type="line"/>
    </contour>
    <contour>
      <point x="1080.6606870856826" y="743.4315636428817" type="line"/>
      <point x="280.6605809478773" y="-56.56854249492378" type="line"/>
      <point x="167.52349595802968" y="56.56854249492382" type="line"/>
      <point x="967.523602095835" y="856.5686486327293" type="line"/>
    </contour>
    <contour>
      <point x="1108.9449583331445" y="743.4315636428817" type="line"/>
      <point x="308.9448521953392" y="-56.56854249492378" type="line"/>
      <point x="195.8077672054916" y="56.56854249492382" type="line"/>
      <point x="995.8078733432969" y="856.5686486327293" type="line"/>
    </contour>
    <contour>
      <point x="1137.2292295806064" y="743.4315636428817" type="line"/>
      <point x="337.2291234428011" y="-56.56854249492377" type="line"/>
      <point x="224.0920384529535" y="56.56854249492383" type="line"/>
      <point x="1024.0921445907588" y="856.5686486327293" type="line"/>
    </contour>
    <contour>
      <point x="1165.5135008280683" y="743.4315636428817" type="line"/>
      <point x="365.513394690263" y="-56.56854249492377" type="line"/>
      <point x="252.3763097004154" y="56.56854249492383" type="line"/>
      <point x="1052.3764158382207" y="856.5686486327293" type="line"/>
    </contour>
    <contour>
      <point x="1193.7977720755302" y="743.4315636428817" type="line"/>
      <point x="393.7976659377249" y="-56.56854249492377" type="line"/>
      <point x="280.6605809478773" y="56.56854249492383" type="line"/>
      <point x="1080.6606870856826" y="856.5686486327293" type="line"/>
    </contour>
    <contour>
      <point x="1222.0820433229921" y="743.4315636428817" type="line"/>
      <point x="422.0819371851868" y="-56.56854249492377" type="line"/>
      <point x="308.9448521953392" y="56.56854249492383" type="line"/>
      <point x="1108.9449583331445" y="856.5686486327293" type="line"/>
    </contour>
    <contour>
      <point x="1250.366314570454" y="743.4315636428817" type="line"/>
      <point x="450.3662084326487" y="-56.56854249492377" type="line"/>
      <point x="337.2291234428011" y="56.56854249492383" type="line"/>
      <point x="1137.2292295806064" y="856.5686486327293" type="line"/>
    </contour>
    <contour>
      <point x="1278.650585817916" y="743.4315636428817" type="line"/>
      <point x="665.8753847755598" y="130.65636260052548" type="line"/>
      <point x="552.7382997857122" y="243.7934475903731" type="line"/>
      <point x="1165.5135008280683" y="856.5686486327293" type="line"/>
    </contour>
    <contour>
      <point x="609.0049076850695" y="73.78588551003509" type="line"/>
      <point x="478.6504796801106" y="-56.56854249492377" type="line"/>
      <point x="365.513394690263" y="56.56854249492383" type="line"/>
      <point x="495.8678226952219" y="186.9229704998827" type="line"/>
    </contour>
    <contour>
      <point x="1306.9348570653779" y="743.4315636428817" type="line"/>
      <point x="678.9391825579813" y="115.43588913548507" type="line"/>
      <point x="565.8020975681337" y="228.57297412533268" type="line"/>
      <point x="1193.7977720755302" y="856.5686486327293" type="line"/>
    </contour>
    <contour>
      <point x="937.2481181525519" y="345.46055348259375" type="line"/>
      <point x="692.0029803404028" y="100.21541567044466" type="line"/>
      <point x="578.8658953505552" y="213.35250066029226" type="line"/>
      <point x="824.1110331627043" y="458.59763847244136" type="line"/>
    </contour>
    <contour>
      <point x="950.9794247364135" y="330.90758881899353" type="line"/>
      <point x="705.0667781228243" y="84.99494220540427" type="line"/>
      <point x="591.9296931329767" y="198.13202719525188" type="line"/>
      <point x="837.8423397465659" y="444.04467380884114" type="line"/>
    </contour>
    <contour>
      <point x="964.710731320275" y="316.3546241553931" type="line"/>
      <point x="718.1298687984645" y="69.77376163358255" type="line"/>
      <point x="604.9927838086169" y="182.91084662343022" type="line"/>
      <point x="851.5736463304274" y="429.49170914524075" type="line"/>
    </contour>
    <contour>
      <point x="978.4413307973555" y="301.8009523850116" type="line"/>
      <point x="731.193666580886" y="54.553288168542146" type="line"/>
      <point x="618.0565815910384" y="167.6903731583898" type="line"/>
      <point x="865.3042458075079" y="414.9380373748593" type="line"/>
    </contour>
    <contour>
      <point x="992.1726373812169" y="287.2479877214112" type="line"/>
      <point x="744.2574643633075" y="39.33281470350176" type="line"/>
      <point x="631.1203793734599" y="152.46989969334936" type="line"/>
      <point x="879.0355523913693" y="400.38507271125883" type="line"/>
    </contour>
    <contour>
      <point x="1005.9039439650785" y="272.69502305781094" type="line"/>
      <point x="757.321262145729" y="24.112341238461347" type="line"/>
      <point x="644.1841771558813" y="137.24942622830895" type="line"/>
      <point x="892.7668589752309" y="385.83210804765855" type="line"/>
    </contour>
    <contour>
      <point x="1019.6345434421589" y="258.14135128742936" type="line"/>
      <point x="770.3850599281504" y="8.891867773420877" type="line"/>
      <point x="657.2479749383028" y="122.02895276326848" type="line"/>
      <point x="906.4974584523113" y="371.27843627727697" type="line"/>
    </contour>
    <contour>
      <point x="1033.3658500260206" y="243.58838662382908" type="line"/>
      <point x="783.4481506037907" y="-6.329312798400785" type="line"/>
      <point x="670.3110656139431" y="106.80777219144682" type="line"/>
      <point x="920.228765036173" y="356.7254716136767" type="line"/>
    </contour>
    <contour>
      <point x="1047.097156609882" y="229.03542196022872" type="line"/>
      <point x="796.5119483862122" y="-21.549786263441177" type="line"/>
      <point x="683.3748633963646" y="91.58729872640637" type="line"/>
      <point x="933.9600716200343" y="342.17250695007624" type="line"/>
    </contour>
    <contour>
      <point x="1060.8284631937436" y="214.4824572966285" type="line"/>
      <point x="809.5757461686337" y="-36.770259728481534" type="line"/>
      <point x="696.4386611787861" y="76.36682526136602" type="line"/>
      <point x="947.691378203896" y="327.6195422864761" type="line"/>
    </contour>
    <contour>
      <point x="1074.559062670824" y="199.92878552624688" type="line"/>
      <point x="822.6395439510552" y="-51.99073319352197" type="line"/>
      <point x="709.5024589612076" y="61.14635179632563" type="line"/>
      <point x="961.4219776809764" y="313.0658705160945" type="line"/>
    </contour>
    <contour>
      <point x="1088.2903692546856" y="185.3758208626466" type="line"/>
      <point x="846.3460058971153" y="-56.56854249492368" type="line"/>
      <point x="733.2089209072677" y="56.56854249492392" type="line"/>
      <point x="975.153284264838" y="298.5129058524942" type="line"/>
    </contour>
    <contour>
      <point x="1102.0216758385473" y="170.82285619904633" type="line"/>
      <point x="874.6302771445772" y="-56.56854249492368" type="line"/>
      <point x="761.4931921547296" y="56.56854249492392" type="line"/>
      <point x="988.8845908486996" y="283.95994118889394" type="line"/>
    </contour>
    <contour>
      <point x="1115.7529824224089" y="156.2698915354459" type="line"/>
      <point x="902.9145483920391" y="-56.56854249492371" type="line"/>
      <point x="789.7774634021915" y="56.568542494923946" type="line"/>
      <point x="1002.6158974325613" y="269.40697652529354" type="line"/>
    </contour>
    <contour>
      <point x="1129.4835818994893" y="141.71621976506444" type="line"/>
      <point x="931.198819639501" y="-56.56854249492371" type="line"/>
      <point x="818.0617346496534" y="56.568542494923946" type="line"/>
      <point x="1016.3464969096417" y="254.8533047549121" type="line"/>
    </contour>
    <contour>
      <point x="1143.2148884833507" y="127.16325510146407" type="line"/>
      <point x="959.4830908869629" y="-56.56854249492368" type="line"/>
      <point x="846.3460058971153" y="56.56854249492392" type="line"/>
      <point x="1030.077803493503" y="240.30034009131168" type="line"/>
    </contour>
    <contour>
      <point x="1156.946195067212" y="112.61029043786371" type="line"/>
      <point x="987.7673621344248" y="-56.56854249492366" type="line"/>
      <point x="874.6302771445772" y="56.56854249492389" type="line"/>
      <point x="1043.8091100773645" y="225.74737542771126" type="line"/>
    </contour>
    <contour>
      <point x="1170.6767945442925" y="98.05661866748224" type="line"/>
      <point x="1016.0516333818867" y="-56.56854249492366" type="line"/>
      <point x="902.9145483920391" y="56.56854249492389" type="line"/>
      <point x="1057.539709554445" y="211.1937036573298" type="line"/>
    </contour>
    <contour>
      <point x="1184.4081011281542" y="83.50365400388182" type="line"/>
      <point x="1044.3359046293485" y="-56.56854249492368" type="line"/>
      <point x="931.198819639501" y="56.56854249492392" type="line"/>
      <point x="1071.2710161383065" y="196.64073899372943" type="line"/>
    </contour>
    <contour>
      <point x="1198.1394077120158" y="68.95068934028154" type="line"/>
      <point x="1072.6201758768107" y="-56.56854249492368" type="line"/>
      <point x="959.4830908869629" y="56.56854249492392" type="line"/>
      <point x="1085.0023227221682" y="182.08777433012915" type="line"/>
    </contour>
    <contour>
      <point x="1211.8707142958774" y="54.39772467668109" type="line"/>
      <point x="1100.9044471242723" y="-56.568542494923754" type="line"/>
      <point x="987.7673621344248" y="56.568542494924" type="line"/>
      <point x="1098.7336293060298" y="167.53480966652884" type="line"/>
    </contour>
    <contour>
      <point x="1225.6013137729578" y="39.84405290629969" type="line"/>
      <point x="1129.1887183717345" y="-56.56854249492368" type="line"/>
      <point x="1016.0516333818869" y="56.56854249492392" type="line"/>
      <point x="1112.4642287831102" y="152.9811378961473" type="line"/>
    </contour>
    <contour>
      <point x="1239.3326203568195" y="25.291088242699338" type="line"/>
      <point x="1157.4729896191961" y="-56.568542494923754" type="line"/>
      <point x="1044.3359046293485" y="56.568542494924" type="line"/>
      <point x="1126.1955353669719" y="138.4281732325471" type="line"/>
    </contour>
    <contour>
      <point x="1253.0639269406809" y="10.73812357909906" type="line"/>
      <point x="1185.7572608666583" y="-56.56854249492364" type="line"/>
      <point x="1072.6201758768107" y="56.568542494923875" type="line"/>
      <point x="1139.9268419508332" y="123.87520856894658" type="line"/>
    </contour>
  </outline>
</glyph>
<glyph name="x_angle_135_step_80" format="2">
  <advance width="1280"/>
  <outline>
    <contour>
      <point x="232.13254966182566" y="743.4315636428817" type="line"/>
      <point x="154.62374694884355" y="665.9227609298995" type="line"/>
      <point x="41.48666195899589" y="779.0598459197471" type="line"/>
      <point x="118.995464671978" y="856.5686486327293" type="line"/>
    </contour>
    <contour>
      <point x="345.26963465167324" y="743.4315636428817" type="line"/>
      <point x="211.39027934249953" y="609.5522083337079" type="line"/>
      <point x="98.25319435265192" y="722.6892933235555" type="line"/>
      <point x="232.13254966182564" y="856.5686486327293" type="line"/>
    </contour>
    <contour>
      <point x="458.40671964152085" y="743.4315636428817" type="line"/>
      <point x="268.1575188429367" y="553.1823628442975" type="line"/>
      <point x="155.02043385308912" y="666.3194478341451" type="line"/>
      <point x="345.26963465167324" y="856.5686486327293" type="line"/>
    </contour>
    <contour>
      <point x="568.9642790936" y="740.8520381051131" type="line"/>
      <point x="324.924758343374" y="496.8125173548872" type="line"/>
      <point x="211.78767335352637" y="609.9496023447348" type="line"/>
      <point x="455.8271941037524" y="853.9891230949607" type="line"/>
    </contour>
    <contour>
      <point x="623.437664195868" y="682.1883382175336" type="line"/>
      <point x="381.69129073703" y="440.4419647586956" type="line"/>
      <point x="268.5542057471824" y="553.5790497485432" type="line"/>
      <point x="510.3005792060204" y="795.3254232073812" type="line"/>
    </contour>
    <contour>
      <point x="677.9110492981362" y="623.5246383299541" type="line"/>
      <point x="438.4585302374672" y="384.07211926928517" type="line"/>
      <point x="325.3214452476196" y="497.2092042591328" type="line"/>
      <point x="564.7739643082886" y="736.6617233198017" type="line"/>
    </contour>
    <contour>
      <point x="910.9550596009113" y="743.4315636428817" type="line"/>
      <point x="764.5266802460199" y="597.0031842879902" type="line"/>
      <point x="651.3895952561722" y="710.1402692778378" type="line"/>
      <point x="797.8179746110637" y="856.5686486327293" type="line"/>
    </contour>
    <contour>
      <point x="732.3844344004042" y="564.8609384423745" type="line"/>
      <point x="110.95495346310592" y="-56.56854249492379" type="line"/>
      <point x="-2.182131526741678" y="56.568542494923804" type="line"/>
      <point x="619.2473494105566" y="677.9980234322221" type="line"/>
    </contour>
    <contour>
      <point x="1024.0921445907588" y="743.4315636428817" type="line"/>
      <point x="224.0920384529535" y="-56.56854249492378" type="line"/>
      <point x="110.95495346310588" y="56.56854249492382" type="line"/>
      <point x="910.9550596009113" y="856.5686486327293" type="line"/>
    </contour>
    <contour>
      <point x="1137.2292295806064" y="743.4315636428817" type="line"/>
      <point x="337.2291234428011" y="-56.56854249492377" type="line"/>
      <point x="224.0920384529535" y="56.56854249492383" type="line"/>
      <point x="1024.0921445907588" y="856.5686486327293" type="line"/>
    </contour>
    <contour>
      <point x="1250.366314570454" y="743.4315636428817" type="line"/>
      <point x="450.3662084326487" y="-56.56854249492377" type="line"/>
      <point x="337.2291234428011" y="56.56854249492383" type="line"/>
      <point x="1137.2292295806064" y="856.5686486327293" type="line"/>
    </contour>
    <contour>
      <point x="950.9794247364135" y="330.90758881899353" type="line"/>
      <point x="705.0667781228243" y="84.99494220540427" type="line"/>
      <point x="591.9296931329767" y="198.13202719525188" type="line"/>
      <point x="837.8423397465659" y="444.04467380884114" type="line"/>
    </contour>
    <contour>
      <point x="1005.9039439650785" y="272.69502305781094" type="line"/>
      <point x="757.321262145729" y="24.112341238461347" type="line"/>
      <point x="644.1841771558813" y="137.24942622830895" type="line"/>
      <point x="892.7668589752309" y="385.83210804765855" type="line"/>
    </contour>
    <contour>
      <point x="1060.8284631937436" y="214.4824572966285" type="line"/>
      <point x="809.5757461686337" y="-36.770259728481534" type="line"/>
      <point x="696.4386611787861" y="76.36682526136602" type="line"/>
      <point x="947.691378203896" y="327.6195422864761" type="line"/>
    </contour>
    <contour>
      <point x="1115.7529824224089" y="156.2698915354459" type="line"/>
      <point x="902.9145483920391" y="-56.56854249492371" type="line"/>
      <point x="789.7774634021915" y="56.568542494923946" type="line"/>
      <point x="1002.6158974325613" y="269.40697652529354" type="line"/>
    </contour>
    <contour>
      <point x="1170.6767945442925" y="98.05661866748224" type="line"/>
      <point x="1016.0516333818867" y="-56.56854249492366" type="line"/>
      <point x="902.9145483920391" y="56.56854249492389" type="line"/>
      <point x="1057.539709554445" y="211.1937036573298" type="line"/>
    </contour>
    <contour>
      <point x="1225.6013137729578" y="39.84405290629969" type="line"/>
      <point x="1129.1887183717345" y="-56.56854249492368" type="line"/>
      <point x="1016.0516333818869" y="56.56854249492392" type="line"/>
      <point x="1112.4642287831102" y="152.9811378961473" type="line"/>
    </contour>
  </outline>
</glyph>
<glyph name="x_angle_180_step_60" format="2">
  <advance width="1280"/>
  <outline>
    <contour>
      <point x="1250.376" y="710.0000000000001" type="line"/>
      <point x="803.0309999999998" y="710.0000000000001" type="line"/>
      <point x="803.0309999999998" y="870.0000000000001" type="line"/>
      <point x="1250.376" y="870.0000000000001" type="line"/>
    </contour>
    <contour>
      <point x="519.2859999999998" y="710.0000000000001" type="line"/>
      <point x="30.069999999999943" y="710.0" type="line"/>
      <point x="30.069999999999872" y="870.0" type="line"/>
      <point x="519.2859999999998" y="870.0000000000001" type="line"/>
    </contour>
    <contour>
      <point x="1192.63" y="650.0000000000001" type="line"/>
      <point x="761.2189999999999" y="650.0000000000001" type="line"/>
      <point x="761.2189999999999" y="810.0000000000001" type="line"/>
      <point x="1192.63" y="810.0000000000001" type="line"/>
    </contour>
    <contour>
      <point x="574.9999999999999" y="650.0000000000001" type="line"/>
      <point x="90.49299999999995" y="650.0" type="line"/>
      <point x="90.49299999999988" y="810.0" type="line"/>
      <point x="574.9999999999999" y="810.0000000000001" type="line"/>
    </contour>
    <contour>
      <point x="1134.885" y="590.0000000000001" type="line"/>
      <point x="719.4059999999998" y="590.0000000000001" type="line"/>
      <point x="719.4059999999998" y="750.0000000000001" type="line"/>
      <point x="1134.885" y="750.0000000000001" type="line"/>
    </contour>
    <contour>
      <point x="630.7139999999999" y="590.0000000000001" type="line"/>
      <point x="150.91499999999994" y="590.0" type="line"/>
      <point x="150.91499999999988" y="750.0" type="line"/>
      <point x="630.7139999999999" y="750.0000000000001" type="line"/>
    </contour>
    <contour>
      <point x="1077.14" y="530.0000000000001" type="line"/>
      <point x="211.3379999999999" y="530.0" type="line"/>
      <point x="211.3379999999999" y="690.0" type="line"/>
      <point x="1077.14" y="690.0000000000001" type="line"/>
    </contour>
    <contour>
      <point x="1019.3949999999999" y="470.0000000000001" type="line"/>
      <point x="271.76099999999997" y="470.0" type="line"/>
      <point x="271.76099999999997" y="630.0" type="line"/>
      <point x="1019.3949999999999" y="630.0000000000001" type="line"/>
    </contour>
    <contour>
      <point x="961.6489999999999" y="410.0000000000001" type="line"/>
      <point x="332.18299999999994" y="410.00000000000006" type="line"/>
      <point x="332.18299999999994" y="570.0" type="line"/>
      <point x="961.6489999999999" y="570.0000000000001" type="line"/>
    </contour>
    <contour>
      <point x="903.904" y="350.0000000000001" type="line"/>
      <point x="392.60599999999994" y="350.00000000000006" type="line"/>
      <point x="392.60599999999994" y="510.00000000000006" type="line"/>
      <point x="903.904" y="510.0000000000001" type="line"/>
    </contour>
    <contour>
      <point x="910.9" y="290.0000000000001" type="line"/>
      <point x="352.99999999999994" y="290.00000000000006" type="line"/>
      <point x="352.99999999999994" y="450.00000000000006" type="line"/>
      <point x="910.9" y="450.0000000000001" type="line"/>
    </contour>
    <contour>
      <point x="967.51" y="230.0000000000001" type="line"/>
      <point x="298.99999999999994" y="230.00000000000006" type="line"/>
      <point x="298.99999999999994" y="390.00000000000006" type="line"/>
      <point x="967.51" y="390.0000000000001" type="line"/>
    </contour>
    <contour>
      <point x="1024.121" y="170.0000000000001" type="line"/>
      <point x="244.99999999999997" y="170.00000000000003" type="line"/>
      <point x="244.99999999999997" y="330.0" type="line"/>
      <point x="1024.121" y="330.0000000000001" type="line"/>
    </contour>
    <contour>
      <point x="1080.732" y="110.00000000000014" type="line"/>
      <point x="606.925" y="110.00000000000009" type="line"/>
      <point x="606.925" y="270.0000000000001" type="line"/>
      <point x="1080.732" y="270.0000000000001" type="line"/>
    </contour>
    <contour>
      <point x="590.156" y="110.00000000000009" type="line"/>
      <point x="190.99999999999997" y="110.00000000000003" type="line"/>
      <point x="190.99999999999997" y="270.0" type="line"/>
      <point x="590.156" y="270.0000000000001" type="line"/>
    </contour>
    <contour>
      <point x="1137.343" y="50.00000000000014" type="line"/>
      <point x="658.422" y="50.000000000000085" type="line"/>
      <point x="658.422" y="210.00000000000009" type="line"/>
      <point x="1137.343" y="210.00000000000014" type="line"/>
    </contour>
    <contour>
      <point x="552.212" y="50.00000000000006" type="line"/>
      <point x="136.99999999999997" y="50.00000000000003" type="line"/>
      <point x="136.99999999999997" y="210.00000000000003" type="line"/>
      <point x="552.212" y="210.00000000000006" type="line"/>
    </contour>
    <contour>
      <point x="1193.954" y="-9.999999999999858" type="line"/>
      <point x="709.92" y="-9.999999999999915" type="line"/>
      <point x="709.92" y="150.00000000000009" type="line"/>
      <point x="1193.954" y="150.00000000000014" type="line"/>
    </contour>
    <contour>
      <point x="514.268" y="-9.999999999999943" type="line"/>
      <point x="82.99999999999999" y="-9.999999999999986" type="line"/>
      <point x="82.99999999999999" y="150.0" type="line"/>
      <point x="514.268" y="150.00000000000006" type="line"/>
    </contour>
    <contour>
      <point x="1250.565" y="-69.99999999999984" type="line"/>
      <point x="761.417" y="-69.99999999999991" type="line"/>
      <point x="761.417" y="90.00000000000009" type="line"/>
      <point x="1250.565" y="90.00000000000016" type="line"/>
    </contour>
    <contour>
      <point x="476.324" y="-69.99999999999994" type="line"/>
      <point x="29.000000000000004" y="-70.0" type="line"/>
      <point x="29.000000000000004" y="90.0" type="line"/>
      <point x="476.324" y="90.00000000000006" type="line"/>
    </contour>
  </outline>
</glyph>
<glyph name="x_angle_180_step_80" format="2">
  <advance width="1280"/>
  <outline>
    <contour>
      <point x="1231.127" y="690.0000000000001" type="line"/>
      <point x="789.0939999999999" y="690.0000000000001" type="line"/>
      <point x="789.0939999999999" y="850.0000000000001" type="line"/>
      <point x="1231.127" y="850.0000000000001" type="line"/>
    </contour>
    <contour>
      <point x="537.8569999999999" y="690.0000000000001" type="line"/>
      <point x="50.21099999999995" y="690.0" type="line"/>
      <point x="50.21099999999988" y="850.0" type="line"/>
      <point x="537.8569999999999" y="850.0000000000001" type="line"/>
    </contour>
    <contour>
      <point x="1154.134" y="610.0000000000001" type="line"/>
      <point x="733.3439999999999" y="610.0000000000001" type="line"/>
      <point x="733.3439999999999" y="770.0000000000001" type="line"/>
      <point x="1154.134" y="770.0000000000001" type="line"/>
    </contour>
    <contour>
      <point x="612.1429999999999" y="610.0000000000001" type="line"/>
      <point x="130.77499999999995" y="610.0" type="line"/>
      <point x="130.7749999999999" y="770.0" type="line"/>
      <point x="612.1429999999999" y="770.0000000000001" type="line"/>
    </contour>
    <contour>
      <point x="1077.14" y="530.0000000000001" type="line"/>
      <point x="211.3379999999999" y="530.0" type="line"/>
      <point x="211.3379999999999" y="690.0" type="line"/>
      <point x="1077.14" y="690.0000000000001" type="line"/>
    </contour>
    <contour>
      <point x="1000.1459999999998" y="450.0000000000001" type="line"/>
      <point x="291.90099999999995" y="450.0" type="line"/>
      <point x="291.90099999999995" y="610.0" type="line"/>
      <point x="1000.1459999999998" y="610.0000000000001" type="line"/>
    </contour>
    <contour>
      <point x="923.152" y="370.0000000000001" type="line"/>
      <point x="372.4649999999999" y="370.00000000000006" type="line"/>
      <point x="372.4649999999999" y="530.0" type="line"/>
      <point x="923.152" y="530.0000000000001" type="line"/>
    </contour>
    <contour>
      <point x="910.9" y="290.0000000000001" type="line"/>
      <point x="352.99999999999994" y="290.00000000000006" type="line"/>
      <point x="352.99999999999994" y="450.00000000000006" type="line"/>
      <point x="910.9" y="450.0000000000001" type="line"/>
    </contour>
    <contour>
      <point x="986.381" y="210.0000000000001" type="line"/>
      <point x="280.99999999999994" y="210.00000000000006" type="line"/>
      <point x="280.99999999999994" y="370.00000000000006" type="line"/>
      <point x="986.381" y="370.0000000000001" type="line"/>
    </contour>
    <contour>
      <point x="1061.862" y="130.00000000000014" type="line"/>
      <point x="208.99999999999997" y="130.00000000000003" type="line"/>
      <point x="208.99999999999997" y="290.0" type="line"/>
      <point x="1061.862" y="290.0000000000001" type="line"/>
    </contour>
    <contour>
      <point x="1137.343" y="50.00000000000014" type="line"/>
      <point x="658.422" y="50.000000000000085" type="line"/>
      <point x="658.422" y="210.00000000000009" type="line"/>
      <point x="1137.343" y="210.00000000000014" type="line"/>
    </contour>
    <contour>
      <point x="552.212" y="50.00000000000006" type="line"/>
      <point x="136.99999999999997" y="50.00000000000003" type="line"/>
      <point x="136.99999999999997" y="210.00000000000003" type="line"/>
      <point x="552.212" y="210.00000000000006" type="line"/>
    </contour>
    <contour>
      <point x="1212.824" y="-29.99999999999985" type="line"/>
      <point x="727.086" y="-29.999999999999908" type="line"/>
      <point x="727.086" y="130.00000000000009" type="line"/>
      <point x="1212.824" y="130.00000000000014" type="line"/>
    </contour>
    <contour>
      <point x="501.62" y="-29.999999999999936" type="line"/>
      <point x="65.0" y="-29.999999999999993" type="line"/>
      <point x="65.0" y="130.0" type="line"/>
      <point x="501.62" y="130.00000000000006" type="line"/>
    </contour>
  </outline>
</glyph>
<glyph name="x_angle_225_step_40" format="2">
  <advance width="1280"/>
  <outline>
    <contour>
      <point x="1127.1395229198556" y="664.1599437244017" type="line"/>
      <point x="1047.8679030013755" y="743.431563642882" type="line"/>
      <point x="1161.004987991223" y="856.5686486327295" type="line"/>
      <point x="1240.2766079097032" y="777.2970287142492" type="line"/>
    </contour>
    <contour>
      <point x="1099.3961883600016" y="635.3347357893321" type="line"/>
      <point x="991.2993605064516" y="743.4315636428819" type="line"/>
      <point x="1104.4364454962993" y="856.5686486327295" type="line"/>
      <point x="1212.5332733498492" y="748.4718207791797" type="line"/>
    </contour>
    <contour>
      <point x="1071.6535609069285" y="606.5088207474812" type="line"/>
      <point x="934.7308180115277" y="743.4315636428819" type="line"/>
      <point x="1047.8679030013752" y="856.5686486327295" type="line"/>
      <point x="1184.7906458967761" y="719.6459057373288" type="line"/>
    </contour>
    <contour>
      <point x="1043.9109334538555" y="577.6829057056304" type="line"/>
      <point x="878.1622755166039" y="743.4315636428819" type="line"/>
      <point x="991.2993605064515" y="856.5686486327295" type="line"/>
      <point x="1157.048018443703" y="690.819990695478" type="line"/>
    </contour>
    <contour>
      <point x="1016.1683060007824" y="548.8569906637797" type="line"/>
      <point x="821.5937330216801" y="743.4315636428819" type="line"/>
      <point x="934.7308180115277" y="856.5686486327295" type="line"/>
      <point x="1129.30539099063" y="661.9940756536273" type="line"/>
    </contour>
    <contour>
      <point x="988.4256785477094" y="520.0310756219288" type="line"/>
      <point x="765.0251905267563" y="743.4315636428819" type="line"/>
      <point x="878.1622755166039" y="856.5686486327295" type="line"/>
      <point x="1101.562763537557" y="633.1681606117764" type="line"/>
    </contour>
    <contour>
      <point x="960.6830510946364" y="491.2051605800781" type="line"/>
      <point x="734.9611315110479" y="716.9270801636665" type="line"/>
      <point x="848.0982165008955" y="830.0641651535141" type="line"/>
      <point x="1073.820136084484" y="604.3422455699257" type="line"/>
    </contour>
    <contour>
      <point x="932.9404236415635" y="462.3792455382272" type="line"/>
      <point x="711.729845321945" y="683.5898238578455" type="line"/>
      <point x="824.8669303117927" y="796.7269088476932" type="line"/>
      <point x="1046.077508631411" y="575.5163305280748" type="line"/>
    </contour>
    <contour>
      <point x="905.1977961884904" y="433.5533304963765" type="line"/>
      <point x="688.4978520260611" y="650.2532746588058" type="line"/>
      <point x="801.6349370159087" y="763.3903596486534" type="line"/>
      <point x="1018.334881178338" y="546.6904154862241" type="line"/>
    </contour>
    <contour>
      <point x="877.4551687354174" y="404.72741545452556" type="line"/>
      <point x="665.2665658369581" y="616.9160183529847" type="line"/>
      <point x="778.4036508268057" y="730.0531033428323" type="line"/>
      <point x="990.592253725265" y="517.8645004443732" type="line"/>
    </contour>
    <contour>
      <point x="849.7125412823444" y="375.90150041267475" type="line"/>
      <point x="642.0345725410742" y="583.579469153945" type="line"/>
      <point x="755.1716575309218" y="696.7165541437926" type="line"/>
      <point x="962.849626272192" y="489.03858540252236" type="line"/>
    </contour>
    <contour>
      <point x="832.9010775596342" y="336.14442164046113" type="line"/>
      <point x="425.6139355572135" y="743.4315636428817" type="line"/>
      <point x="538.7510205470611" y="856.5686486327293" type="line"/>
      <point x="946.0381625494819" y="449.28150663030874" type="line"/>
    </contour>
    <contour>
      <point x="1169.0454992000953" y="-56.56854249492359" type="line"/>
      <point x="369.0453930622897" y="743.4315636428817" type="line"/>
      <point x="482.18247805213724" y="856.5686486327293" type="line"/>
      <point x="1282.1825841899429" y="56.56854249492406" type="line"/>
    </contour>
    <contour>
      <point x="1112.4769567051715" y="-56.56854249492359" type="line"/>
      <point x="312.4768505673659" y="743.4315636428817" type="line"/>
      <point x="425.61393555721344" y="856.5686486327293" type="line"/>
      <point x="1225.614041695019" y="56.56854249492406" type="line"/>
    </contour>
    <contour>
      <point x="1055.9084142102477" y="-56.56854249492359" type="line"/>
      <point x="255.90830807244208" y="743.4315636428817" type="line"/>
      <point x="369.04539306228963" y="856.5686486327293" type="line"/>
      <point x="1169.0454992000953" y="56.56854249492406" type="line"/>
    </contour>
    <contour>
      <point x="999.3398717153239" y="-56.56854249492359" type="line"/>
      <point x="199.33976557751822" y="743.4315636428817" type="line"/>
      <point x="312.4768505673658" y="856.5686486327293" type="line"/>
      <point x="1112.4769567051715" y="56.56854249492406" type="line"/>
    </contour>
    <contour>
      <point x="942.7713292204" y="-56.56854249492359" type="line"/>
      <point x="142.77122308259442" y="743.4315636428817" type="line"/>
      <point x="255.908308072442" y="856.5686486327293" type="line"/>
      <point x="1055.9084142102477" y="56.56854249492406" type="line"/>
    </contour>
    <contour>
      <point x="886.2027867254762" y="-56.56854249492359" type="line"/>
      <point x="86.20268058767063" y="743.4315636428817" type="line"/>
      <point x="199.3397655775182" y="856.5686486327293" type="line"/>
      <point x="999.3398717153239" y="56.56854249492406" type="line"/>
    </contour>
    <contour>
      <point x="829.6342442305524" y="-56.56854249492359" type="line"/>
      <point x="29.634138092746824" y="743.4315636428817" type="line"/>
      <point x="142.7712230825944" y="856.5686486327293" type="line"/>
      <point x="942.7713292204" y="56.56854249492406" type="line"/>
    </contour>
    <contour>
      <point x="773.0657017356286" y="-56.56854249492359" type="line"/>
      <point x="-26.93440440217698" y="743.4315636428817" type="line"/>
      <point x="86.20268058767059" y="856.5686486327293" type="line"/>
      <point x="886.2027867254762" y="56.56854249492406" type="line"/>
    </contour>
    <contour>
      <point x="530.8406169859272" y="129.08799975985391" type="line"/>
      <point x="320.14683782289643" y="339.78177892288466" type="line"/>
      <point x="433.28392281274404" y="452.91886391273226" type="line"/>
      <point x="643.9777019757748" y="242.22508474970147" type="line"/>
    </contour>
    <contour>
      <point x="508.92525651661265" y="94.43481773424473" type="line"/>
      <point x="293.3510263498322" y="310.00904790102504" type="line"/>
      <point x="406.48811133967973" y="423.14613289087265" type="line"/>
      <point x="622.0623415064603" y="207.57190272409238" type="line"/>
    </contour>
    <contour>
      <point x="487.01060315407915" y="59.78092860185443" type="line"/>
      <point x="266.555214876768" y="280.2363168791655" type="line"/>
      <point x="379.69229986661554" y="393.37340186901315" type="line"/>
      <point x="600.1476881439268" y="172.91801359170208" type="line"/>
    </contour>
    <contour>
      <point x="465.09594979154565" y="25.127039469464037" type="line"/>
      <point x="239.76011051048494" y="250.46287875052468" type="line"/>
      <point x="352.8971955003325" y="363.59996374037235" type="line"/>
      <point x="578.2330347813933" y="138.2641244593117" type="line"/>
    </contour>
    <contour>
      <point x="443.180589322231" y="-9.526142556145103" type="line"/>
      <point x="212.96429903742074" y="220.69014772866507" type="line"/>
      <point x="326.1013840272683" y="333.82723271851273" type="line"/>
      <point x="556.3176743120786" y="103.61094243370255" type="line"/>
    </contour>
    <contour>
      <point x="421.2659359596975" y="-44.18003168853538" type="line"/>
      <point x="186.16848756435655" y="190.9174167068055" type="line"/>
      <point x="299.3055725542041" y="304.0545016966531" type="line"/>
      <point x="534.4030209495451" y="68.95705330131227" type="line"/>
    </contour>
    <contour>
      <point x="377.085904271162" y="-56.56854249492373" type="line"/>
      <point x="159.37338319807355" y="161.1439785781647" type="line"/>
      <point x="272.5104681879211" y="274.2810635680123" type="line"/>
      <point x="490.22298926100956" y="56.56854249492392" type="line"/>
    </contour>
    <contour>
      <point x="320.5173617762382" y="-56.568542494923705" type="line"/>
      <point x="132.5775717250093" y="131.37124755630515" type="line"/>
      <point x="245.71465671485691" y="244.5083325461527" type="line"/>
      <point x="433.6544467660858" y="56.56854249492386" type="line"/>
    </contour>
    <contour>
      <point x="263.9488192813144" y="-56.56854249492373" type="line"/>
      <point x="105.7817602519451" y="101.59851653444552" type="line"/>
      <point x="218.91884524179267" y="214.73560152429317" type="line"/>
      <point x="377.08590427116195" y="56.56854249492392" type="line"/>
    </contour>
    <contour>
      <point x="207.38027678639065" y="-56.56854249492376" type="line"/>
      <point x="78.98594877888091" y="71.82578551258594" type="line"/>
      <point x="192.12303376872848" y="184.9628705024336" type="line"/>
      <point x="320.5173617762382" y="56.56854249492389" type="line"/>
    </contour>
    <contour>
      <point x="150.81173429146685" y="-56.568542494923776" type="line"/>
      <point x="52.19084441259787" y="42.05234738394516" type="line"/>
      <point x="165.32792940244542" y="155.1894323737928" type="line"/>
      <point x="263.9488192813144" y="56.568542494923875" type="line"/>
    </contour>
    <contour>
      <point x="94.24319179654306" y="-56.56854249492379" type="line"/>
      <point x="25.395032939533664" y="12.279616362085576" type="line"/>
      <point x="138.53211792938123" y="125.41670135193323" type="line"/>
      <point x="207.38027678639062" y="56.56854249492386" type="line"/>
    </contour>
  </outline>
</glyph>
<glyph name="x_angle_315_step_80" format="2">
  <advance width="1280"/>
  <outline>
    <contour>
      <point x="1047.8686101081566" y="56.56854249492403" type="line"/>
      <point x="1127.9109764181303" y="136.6109088048977" type="line"/>
      <point x="1241.048061407978" y="23.473823815050068" type="line"/>
      <point x="1161.0056950980043" y="-56.56854249492359" type="line"/>
    </contour>
    <contour>
      <point x="934.731525118309" y="56.56854249492399" type="line"/>
      <point x="1072.986457189465" y="194.82347456608017" type="line"/>
      <point x="1186.1235421793126" y="81.68638957623266" type="line"/>
      <point x="1047.8686101081566" y="-56.568542494923534" type="line"/>
    </contour>
    <contour>
      <point x="821.5944401284614" y="56.568542494923975" type="line"/>
      <point x="1018.0619379608002" y="253.0360403272627" type="line"/>
      <point x="1131.1990229506478" y="139.8989553374151" type="line"/>
      <point x="934.731525118309" y="-56.56854249492365" type="line"/>
    </contour>
    <contour>
      <point x="711.1337543054049" y="59.24494166171502" type="line"/>
      <point x="963.137418732135" y="311.2486060884451" type="line"/>
      <point x="1076.2745037219825" y="198.1115210985975" type="line"/>
      <point x="824.2708392952525" y="-53.892143328132605" type="line"/>
    </contour>
    <contour>
      <point x="658.8792702825002" y="120.127542628658" type="line"/>
      <point x="908.2128995034698" y="369.4611718496278" type="line"/>
      <point x="1021.3499844933174" y="256.32408685978027" type="line"/>
      <point x="772.0163552723478" y="6.990457638810469" type="line"/>
    </contour>
    <contour>
      <point x="606.6247862595956" y="181.01014359560085" type="line"/>
      <point x="853.2883802748047" y="427.67373761081024" type="line"/>
      <point x="966.4254652646523" y="314.53665262096274" type="line"/>
      <point x="719.7618712494432" y="67.87305860575331" type="line"/>
    </contour>
    <contour>
      <point x="369.046100169071" y="56.56854249492392" type="line"/>
      <point x="489.79094701770464" y="177.31338934355762" type="line"/>
      <point x="602.9280320075522" y="64.17630435371" type="line"/>
      <point x="482.1831851589186" y="-56.568542494923705" type="line"/>
    </contour>
    <contour>
      <point x="554.3703022366908" y="241.89274456254384" type="line"/>
      <point x="1169.045499200095" y="856.5679415259483" type="line"/>
      <point x="1282.1825841899426" y="743.4308565361007" type="line"/>
      <point x="667.5073872265384" y="128.75565957269623" type="line"/>
    </contour>
    <contour>
      <point x="255.9090151792234" y="56.56854249492389" type="line"/>
      <point x="1055.9084142102474" y="856.5679415259483" type="line"/>
      <point x="1169.045499200095" y="743.4308565361007" type="line"/>
      <point x="369.046100169071" y="-56.56854249492373" type="line"/>
    </contour>
    <contour>
      <point x="142.7719301893758" y="56.56854249492382" type="line"/>
      <point x="942.7713292203999" y="856.5679415259483" type="line"/>
      <point x="1055.9084142102477" y="743.4308565361007" type="line"/>
      <point x="255.90901517922347" y="-56.56854249492372" type="line"/>
    </contour>
    <contour>
      <point x="29.634845199528208" y="56.56854249492382" type="line"/>
      <point x="829.6342442305523" y="856.5679415259483" type="line"/>
      <point x="942.7713292203999" y="743.4308565361007" type="line"/>
      <point x="142.77193018937578" y="-56.568542494923804" type="line"/>
    </contour>
    <contour>
      <point x="341.28579504646825" y="481.35657733171166" type="line"/>
      <point x="580.0927256159138" y="720.1635079011572" type="line"/>
      <point x="693.2298106057614" y="607.0264229113096" type="line"/>
      <point x="454.42288003631586" y="368.21949234186405" type="line"/>
    </contour>
    <contour>
      <point x="284.518555546031" y="537.726422821122" type="line"/>
      <point x="525.6193405136457" y="778.8272077887368" type="line"/>
      <point x="638.7564255034933" y="665.6901227988892" type="line"/>
      <point x="397.6556405358786" y="424.58933783127435" type="line"/>
    </contour>
    <contour>
      <point x="227.752023152375" y="594.0969754173136" type="line"/>
      <point x="471.1459554113776" y="837.4909076763163" type="line"/>
      <point x="584.2830404012252" y="724.3538226864687" type="line"/>
      <point x="340.8891081422226" y="480.959890427466" type="line"/>
    </contour>
    <contour>
      <point x="170.98478365193773" y="650.466820906724" type="line"/>
      <point x="377.0859042711619" y="856.5679415259483" type="line"/>
      <point x="490.22298926100956" y="743.4308565361007" type="line"/>
      <point x="284.1218686417854" y="537.3297359168764" type="line"/>
    </contour>
    <contour>
      <point x="114.21754415150045" y="706.8366663961343" type="line"/>
      <point x="263.9488192813143" y="856.5679415259482" type="line"/>
      <point x="377.0859042711619" y="743.4308565361006" type="line"/>
      <point x="227.35462914134803" y="593.6995814062867" type="line"/>
    </contour>
    <contour>
      <point x="57.450304651063256" y="763.2065118855446" type="line"/>
      <point x="150.81173429146665" y="856.5679415259481" type="line"/>
      <point x="263.94881928131434" y="743.4308565361005" type="line"/>
      <point x="170.5873896409109" y="650.069426895697" type="line"/>
    </contour>
  </outline>
</glyph>
<glyph name="x_angle_45_step_40" format="2">
  <advance width="1280"/>
  <outline>
    <contour>
      <point x="150.2566554682354" y="138.44372958173295" type="line"/>
      <point x="232.13184255504456" y="56.56854249492381" type="line"/>
      <point x="118.99475756519693" y="-56.568542494923776" type="line"/>
      <point x="37.119570478387786" y="25.306644591885373" type="line"/>
    </contour>
    <contour>
      <point x="177.05175983451844" y="168.21716771037373" type="line"/>
      <point x="288.70038504996836" y="56.56854249492383" type="line"/>
      <point x="175.56330006012075" y="-56.56854249492376" type="line"/>
      <point x="63.91467484467081" y="55.080082720526136" type="line"/>
    </contour>
    <contour>
      <point x="203.84757130758265" y="197.9898987322333" type="line"/>
      <point x="345.26892754489216" y="56.5685424949238" type="line"/>
      <point x="232.13184255504456" y="-56.56854249492379" type="line"/>
      <point x="90.71048631773503" y="84.85281374238572" type="line"/>
    </contour>
    <contour>
      <point x="230.64338278064685" y="227.7626297540929" type="line"/>
      <point x="401.8374700398159" y="56.568542494923825" type="line"/>
      <point x="288.7003850499683" y="-56.56854249492376" type="line"/>
      <point x="117.50629779079922" y="114.6255447642453" type="line"/>
    </contour>
    <contour>
      <point x="257.4391942537111" y="257.5353607759525" type="line"/>
      <point x="458.4060125347397" y="56.568542494923825" type="line"/>
      <point x="345.2689275448921" y="-56.56854249492376" type="line"/>
      <point x="144.30210926386343" y="144.39827578610488" type="line"/>
    </contour>
    <contour>
      <point x="284.2342986199941" y="287.30879890459323" type="line"/>
      <point x="514.9745550296635" y="56.568542494923825" type="line"/>
      <point x="401.8374700398159" y="-56.56854249492376" type="line"/>
      <point x="171.09721363014648" y="174.17171391474562" type="line"/>
    </contour>
    <contour>
      <point x="311.03011009305834" y="317.08152992645284" type="line"/>
      <point x="543.9920960092159" y="84.11954401029533" type="line"/>
      <point x="430.85501101936825" y="-29.017540979552265" type="line"/>
      <point x="197.89302510321073" y="203.94444493660524" type="line"/>
    </contour>
    <contour>
      <point x="337.82592156612253" y="346.85426094831246" type="line"/>
      <point x="565.9067493717494" y="118.77343314268563" type="line"/>
      <point x="452.76966438190175" y="5.636348152838039" type="line"/>
      <point x="224.68883657627492" y="233.71717595846485" type="line"/>
    </contour>
    <contour>
      <point x="364.6217330391868" y="376.626991970172" type="line"/>
      <point x="587.8214027342829" y="153.42732227507594" type="line"/>
      <point x="474.68431774443525" y="40.29023728522834" type="line"/>
      <point x="251.48464804933917" y="263.4899069803244" type="line"/>
    </contour>
    <contour>
      <point x="391.4168374054698" y="406.4004300988128" type="line"/>
      <point x="609.7367632035975" y="188.08050430068508" type="line"/>
      <point x="496.59967821374994" y="74.94341931083748" type="line"/>
      <point x="278.27975241562217" y="293.2633451089652" type="line"/>
    </contour>
    <contour>
      <point x="418.2126488785341" y="436.17316112067243" type="line"/>
      <point x="631.651416566131" y="222.73439343307544" type="line"/>
      <point x="518.5143315762834" y="109.59730844322785" type="line"/>
      <point x="305.0755638886865" y="323.0360761308248" type="line"/>
    </contour>
    <contour>
      <point x="445.0084603515982" y="465.94589214253205" type="line"/>
      <point x="653.5667770354457" y="257.3875754586846" type="line"/>
      <point x="540.4296920455981" y="144.25049046883697" type="line"/>
      <point x="331.8713753617506" y="352.80880715268444" type="line"/>
    </contour>
    <contour>
      <point x="658.0894320079149" y="252.86492048621545" type="line"/>
      <point x="854.3858099992065" y="56.56854249492392" type="line"/>
      <point x="741.2487250093589" y="-56.568542494923676" type="line"/>
      <point x="544.9523470180673" y="139.72783549636785" type="line"/>
    </contour>
    <contour>
      <point x="110.95424635632463" y="856.5686486327294" type="line"/>
      <point x="910.9543524941303" y="56.56854249492392" type="line"/>
      <point x="797.8172675042827" y="-56.568542494923676" type="line"/>
      <point x="-2.182838633522991" y="743.4315636428818" type="line"/>
    </contour>
    <contour>
      <point x="167.5227888512485" y="856.5686486327293" type="line"/>
      <point x="967.5228949890541" y="56.56854249492392" type="line"/>
      <point x="854.3858099992065" y="-56.568542494923676" type="line"/>
      <point x="54.38570386140087" y="743.4315636428817" type="line"/>
    </contour>
    <contour>
      <point x="224.0913313461723" y="856.5686486327293" type="line"/>
      <point x="1024.0914374839779" y="56.56854249492392" type="line"/>
      <point x="910.9543524941303" y="-56.568542494923676" type="line"/>
      <point x="110.95424635632467" y="743.4315636428817" type="line"/>
    </contour>
    <contour>
      <point x="280.65987384109616" y="856.5686486327293" type="line"/>
      <point x="1080.6599799789017" y="56.5685424949238" type="line"/>
      <point x="967.5228949890541" y="-56.56854249492379" type="line"/>
      <point x="167.52278885124855" y="743.4315636428817" type="line"/>
    </contour>
    <contour>
      <point x="337.22841633601996" y="856.5686486327293" type="line"/>
      <point x="1137.2285224738255" y="56.5685424949238" type="line"/>
      <point x="1024.0914374839779" y="-56.56854249492379" type="line"/>
      <point x="224.09133134617235" y="743.4315636428817" type="line"/>
    </contour>
    <contour>
      <point x="393.79695883094377" y="856.5686486327293" type="line"/>
      <point x="1193.7970649687493" y="56.5685424949238" type="line"/>
      <point x="1080.6599799789017" y="-56.56854249492379" type="line"/>
      <point x="280.65987384109616" y="743.4315636428817" type="line"/>
    </contour>
    <contour>
      <point x="450.36550132586757" y="856.5686486327293" type="line"/>
      <point x="1250.365607463673" y="56.5685424949238" type="line"/>
      <point x="1137.2285224738255" y="-56.56854249492379" type="line"/>
      <point x="337.22841633601996" y="743.4315636428817" type="line"/>
    </contour>
    <contour>
      <point x="506.93404382079126" y="856.5686486327293" type="line"/>
      <point x="1306.9341499585967" y="56.56854249492391" type="line"/>
      <point x="1193.797064968749" y="-56.568542494923676" type="line"/>
      <point x="393.79695883094365" y="743.4315636428817" type="line"/>
    </contour>
    <contour>
      <point x="742.1050313213756" y="677.9662036270688" type="line"/>
      <point x="947.2459009317486" y="472.82533401669593" type="line"/>
      <point x="834.108815941901" y="359.6882490268483" type="line"/>
      <point x="628.967946331528" y="564.8291186372212" type="line"/>
    </contour>
    <contour>
      <point x="765.3363175104785" y="711.3034599328897" type="line"/>
      <point x="974.9885283848215" y="501.6512490585467" type="line"/>
      <point x="861.8514433949739" y="388.5141640686991" type="line"/>
      <point x="652.1992325206309" y="598.1663749430421" type="line"/>
    </contour>
    <contour>
      <point x="788.5683108063624" y="744.6400091319296" type="line"/>
      <point x="1002.7311558378946" y="530.4771641003974" type="line"/>
      <point x="889.594070848047" y="417.3400791105499" type="line"/>
      <point x="675.4312258165148" y="631.502924142082" type="line"/>
    </contour>
    <contour>
      <point x="811.8003041022465" y="777.9765583309693" type="line"/>
      <point x="1030.4737832909675" y="559.3030791422483" type="line"/>
      <point x="917.3366983011199" y="446.1659941524007" type="line"/>
      <point x="698.6632191123989" y="664.8394733411217" type="line"/>
    </contour>
    <contour>
      <point x="835.0315902913493" y="811.3138146367903" type="line"/>
      <point x="1058.2164107440406" y="588.1289941840992" type="line"/>
      <point x="945.079325754193" y="474.99190919425155" type="line"/>
      <point x="721.8945053015017" y="698.1767296469427" type="line"/>
    </contour>
    <contour>
      <point x="858.2635835872334" y="844.65036383583" type="line"/>
      <point x="1085.9590381971136" y="616.9549092259499" type="line"/>
      <point x="972.821953207266" y="503.8178242361023" type="line"/>
      <point x="745.1264985973858" y="731.5132788459824" type="line"/>
    </contour>
    <contour>
      <point x="902.913841285258" y="856.5686486327293" type="line"/>
      <point x="1113.7016656501864" y="645.7808242678007" type="line"/>
      <point x="1000.5645806603388" y="532.643739277953" type="line"/>
      <point x="789.7767562954103" y="743.4315636428817" type="line"/>
    </contour>
    <contour>
      <point x="959.4823837801817" y="856.5686486327293" type="line"/>
      <point x="1141.4442931032595" y="674.6067393096515" type="line"/>
      <point x="1028.307208113412" y="561.4696543198039" type="line"/>
      <point x="846.3452987903341" y="743.4315636428817" type="line"/>
    </contour>
    <contour>
      <point x="1016.0509262751056" y="856.5686486327293" type="line"/>
      <point x="1169.1869205563326" y="703.4326543515023" type="line"/>
      <point x="1056.049835566485" y="590.2955693616547" type="line"/>
      <point x="902.913841285258" y="743.4315636428817" type="line"/>
    </contour>
    <contour>
      <point x="1072.6194687700292" y="856.5686486327294" type="line"/>
      <point x="1196.9295480094056" y="732.2585693933531" type="line"/>
      <point x="1083.792463019558" y="619.1214844035055" type="line"/>
      <point x="959.4823837801816" y="743.4315636428818" type="line"/>
    </contour>
    <contour>
      <point x="1129.188011264953" y="856.5686486327294" type="line"/>
      <point x="1224.6721754624787" y="761.0844844352039" type="line"/>
      <point x="1111.535090472631" y="647.9473994453563" type="line"/>
      <point x="1016.0509262751054" y="743.4315636428818" type="line"/>
    </contour>
    <contour>
      <point x="1185.7565537598769" y="856.5686486327294" type="line"/>
      <point x="1252.4148029155517" y="789.9103994770546" type="line"/>
      <point x="1139.277717925704" y="676.773314487207" type="line"/>
      <point x="1072.6194687700292" y="743.4315636428818" type="line"/>
    </contour>
  </outline>
</glyph>
<glyph name="y_angle_180_step_80" format="2">
  <advance width="1210"/>
  <outline>
    <contour>
      <point x="1170.932" y="690.0000000000001" type="line"/>
      <point x="824.4919999999998" y="690.0000000000001" type="line"/>
      <point x="824.4919999999998" y="850.0000000000001" type="line"/>
      <point x="1170.932" y="850.0000000000001" type="line"/>
    </contour>
    <contour>
      <point x="467.03399999999993" y="690.0000000000001" type="line"/>
      <point x="39.06799999999995" y="690.0" type="line"/>
      <point x="39.06799999999988" y="850.0" type="line"/>
      <point x="467.0339999999998" y="850.0000000000001" type="line"/>
    </contour>
    <contour>
      <point x="1120.085" y="610.0000000000001" type="line"/>
      <point x="783.1359999999999" y="610.0000000000001" type="line"/>
      <point x="783.1359999999999" y="770.0000000000001" type="line"/>
      <point x="1120.085" y="770.0000000000001" type="line"/>
    </contour>
    <contour>
      <point x="512.4579999999999" y="610.0000000000001" type="line"/>
      <point x="89.91499999999996" y="610.0" type="line"/>
      <point x="89.91499999999989" y="770.0" type="line"/>
      <point x="512.4579999999999" y="770.0000000000001" type="line"/>
    </contour>
    <contour>
      <point x="1069.237" y="530.0000000000001" type="line"/>
      <point x="741.7799999999999" y="530.0000000000001" type="line"/>
      <point x="741.7799999999999" y="690.0000000000001" type="line"/>
      <point x="1069.237" y="690.0000000000001" type="line"/>
    </contour>
    <contour>
      <point x="557.8809999999999" y="530.0000000000001" type="line"/>
      <point x="140.76299999999995" y="530.0" type="line"/>
      <point x="140.7629999999999" y="690.0" type="line"/>
      <point x="557.8809999999999" y="690.0000000000001" type="line"/>
    </contour>
    <contour>
      <point x="1018.3899999999999" y="450.0000000000001" type="line"/>
      <point x="700.4239999999999" y="450.0000000000001" type="line"/>
      <point x="700.4239999999999" y="610.0000000000001" type="line"/>
      <point x="1018.3899999999999" y="610.0000000000001" type="line"/>
    </contour>
    <contour>
      <point x="603.3049999999998" y="450.0000000000001" type="line"/>
      <point x="191.60999999999999" y="450.0" type="line"/>
      <point x="191.60999999999993" y="610.0" type="line"/>
      <point x="603.3049999999998" y="610.0000000000001" type="line"/>
    </contour>
    <contour>
      <point x="967.542" y="370.0000000000001" type="line"/>
      <point x="659.068" y="370.00000000000006" type="line"/>
      <point x="659.068" y="530.0" type="line"/>
      <point x="967.542" y="530.0000000000001" type="line"/>
    </contour>
    <contour>
      <point x="648.729" y="370.00000000000006" type="line"/>
      <point x="242.4579999999999" y="370.00000000000006" type="line"/>
      <point x="242.45799999999997" y="530.0" type="line"/>
      <point x="648.729" y="530.0" type="line"/>
    </contour>
    <contour>
      <point x="916.695" y="290.0000000000001" type="line"/>
      <point x="293.30499999999995" y="290.00000000000006" type="line"/>
      <point x="293.30499999999995" y="450.00000000000006" type="line"/>
      <point x="916.695" y="450.0000000000001" type="line"/>
    </contour>
    <contour>
      <point x="865.847" y="210.0000000000001" type="line"/>
      <point x="344.15299999999996" y="210.00000000000006" type="line"/>
      <point x="344.15299999999996" y="370.00000000000006" type="line"/>
      <point x="865.847" y="370.0000000000001" type="line"/>
    </contour>
    <contour>
      <point x="815.0" y="130.0000000000001" type="line"/>
      <point x="395.0" y="130.00000000000006" type="line"/>
      <point x="395.0" y="290.00000000000006" type="line"/>
      <point x="815.0" y="290.0000000000001" type="line"/>
    </contour>
    <contour>
      <point x="815.0" y="50.000000000000114" type="line"/>
      <point x="395.0" y="50.00000000000006" type="line"/>
      <point x="395.0" y="210.00000000000006" type="line"/>
      <point x="815.0" y="210.0000000000001" type="line"/>
    </contour>
    <contour>
      <point x="815.0" y="-29.9999999999999" type="line"/>
      <point x="395.0" y="-29.99999999999995" type="line"/>
      <point x="395.0" y="130.00000000000006" type="line"/>
      <point x="815.0" y="130.0000000000001" type="line"/>
    </contour>
  </outline>
</glyph>
<glyph name="y_angle_270_step_40" format="2">
  <advance width="1210"/>
  <outline>
    <contour>
      <point x="1039.9999999999998" y="689.8670000000002" type="line"/>
      <point x="1039.9999999999998" y="800.0000000000002" type="line"/>
      <point x="1199.9999999999998" y="800.0000000000002" type="line"/>
      <point x="1199.9999999999998" y="689.8670000000002" type="line"/>
    </contour>
    <contour>
      <point x="999.9999999999998" y="626.9330000000002" type="line"/>
      <point x="999.9999999999998" y="800.0000000000002" type="line"/>
      <point x="1159.9999999999998" y="800.0000000000002" type="line"/>
      <point x="1159.9999999999998" y="626.9330000000002" type="line"/>
    </contour>
    <contour>
      <point x="960.0" y="564.0000000000001" type="line"/>
      <point x="959.9999999999998" y="800.0000000000001" type="line"/>
      <point x="1119.9999999999998" y="800.0000000000002" type="line"/>
      <point x="1120.0" y="564.0000000000002" type="line"/>
    </contour>
    <contour>
      <point x="919.9999999999999" y="501.0670000000002" type="line"/>
      <point x="919.9999999999999" y="800.0000000000002" type="line"/>
      <point x="1080.0" y="800.0000000000002" type="line"/>
      <point x="1080.0" y="501.0670000000002" type="line"/>
    </contour>
    <contour>
      <point x="879.9999999999999" y="438.13300000000015" type="line"/>
      <point x="879.9999999999999" y="800.0000000000002" type="line"/>
      <point x="1040.0" y="800.0000000000002" type="line"/>
      <point x="1040.0" y="438.13300000000015" type="line"/>
    </contour>
    <contour>
      <point x="839.9999999999999" y="375.20000000000016" type="line"/>
      <point x="839.9999999999999" y="800.0000000000001" type="line"/>
      <point x="999.9999999999999" y="800.0000000000001" type="line"/>
      <point x="999.9999999999999" y="375.20000000000016" type="line"/>
    </contour>
    <contour>
      <point x="799.9999999999999" y="312.26700000000017" type="line"/>
      <point x="799.9999999999999" y="800.0000000000001" type="line"/>
      <point x="959.9999999999999" y="800.0000000000001" type="line"/>
      <point x="959.9999999999999" y="312.26700000000017" type="line"/>
    </contour>
    <contour>
      <point x="760.0" y="249.33300000000014" type="line"/>
      <point x="759.9999999999999" y="800.0000000000001" type="line"/>
      <point x="919.9999999999999" y="800.0000000000001" type="line"/>
      <point x="920.0" y="249.3330000000001" type="line"/>
    </contour>
    <contour>
      <point x="720.0" y="1.5675479029086122e-13" type="line"/>
      <point x="719.9999999999999" y="722.6230000000002" type="line"/>
      <point x="879.9999999999999" y="722.6230000000002" type="line"/>
      <point x="880.0" y="1.2736326711132473e-13" type="line"/>
    </contour>
    <contour>
      <point x="680.0" y="1.4940690949597708e-13" type="line"/>
      <point x="679.9999999999999" y="645.2460000000001" type="line"/>
      <point x="839.9999999999999" y="645.2460000000001" type="line"/>
      <point x="840.0" y="1.200153863164406e-13" type="line"/>
    </contour>
    <contour>
      <point x="640.0" y="1.4205902870109297e-13" type="line"/>
      <point x="639.9999999999999" y="567.8690000000001" type="line"/>
      <point x="799.9999999999999" y="567.8690000000001" type="line"/>
      <point x="800.0" y="1.1266750552155649e-13" type="line"/>
    </contour>
    <contour>
      <point x="600.0" y="1.3471114790620886e-13" type="line"/>
      <point x="599.9999999999999" y="490.49200000000013" type="line"/>
      <point x="759.9999999999999" y="490.49200000000013" type="line"/>
      <point x="760.0" y="1.0531962472667238e-13" type="line"/>
    </contour>
    <contour>
      <point x="560.0" y="1.2736326711132473e-13" type="line"/>
      <point x="559.9999999999999" y="465.3730000000001" type="line"/>
      <point x="719.9999999999999" y="465.3730000000001" type="line"/>
      <point x="720.0" y="9.797174393178824e-14" type="line"/>
    </contour>
    <contour>
      <point x="520.0" y="1.2001538631644062e-13" type="line"/>
      <point x="519.9999999999999" y="535.8210000000001" type="line"/>
      <point x="679.9999999999999" y="535.8210000000001" type="line"/>
      <point x="680.0" y="9.062386313690414e-14" type="line"/>
    </contour>
    <contour>
      <point x="480.0" y="1.1266750552155649e-13" type="line"/>
      <point x="479.9999999999999" y="606.2690000000001" type="line"/>
      <point x="639.9999999999999" y="606.2690000000001" type="line"/>
      <point x="640.0" y="8.327598234202001e-14" type="line"/>
    </contour>
    <contour>
      <point x="440.0" y="1.0531962472667237e-13" type="line"/>
      <point x="439.9999999999999" y="676.7160000000001" type="line"/>
      <point x="599.9999999999999" y="676.7160000000001" type="line"/>
      <point x="600.0" y="7.592810154713589e-14" type="line"/>
    </contour>
    <contour>
      <point x="400.0" y="9.797174393178824e-14" type="line"/>
      <point x="399.9999999999999" y="747.1640000000001" type="line"/>
      <point x="559.9999999999999" y="747.1640000000001" type="line"/>
      <point x="560.0" y="6.858022075225177e-14" type="line"/>
    </contour>
    <contour>
      <point x="360.0" y="9.062386313690414e-14" type="line"/>
      <point x="359.99999999999983" y="800.0000000000001" type="line"/>
      <point x="519.9999999999998" y="800.0000000000001" type="line"/>
      <point x="520.0" y="6.123233995736766e-14" type="line"/>
    </contour>
    <contour>
      <point x="320.0" y="8.327598234202001e-14" type="line"/>
      <point x="319.99999999999983" y="800.0000000000001" type="line"/>
      <point x="479.99999999999983" y="800.0000000000001" type="line"/>
      <point x="480.0" y="5.388445916248354e-14" type="line"/>
    </contour>
    <contour>
      <point x="279.99999999999994" y="265.06700000000006" type="line"/>
      <point x="279.99999999999983" y="800.0000000000001" type="line"/>
      <point x="439.99999999999983" y="800.0000000000001" type="line"/>
      <point x="439.99999999999994" y="265.06700000000006" type="line"/>
    </contour>
    <contour>
      <point x="239.99999999999994" y="328.00000000000006" type="line"/>
      <point x="239.99999999999983" y="800.0000000000001" type="line"/>
      <point x="399.99999999999983" y="800.0000000000001" type="line"/>
      <point x="399.99999999999994" y="328.00000000000006" type="line"/>
    </contour>
    <contour>
      <point x="199.99999999999994" y="390.93300000000005" type="line"/>
      <point x="199.99999999999983" y="800.0" type="line"/>
      <point x="359.99999999999983" y="800.0" type="line"/>
      <point x="359.99999999999994" y="390.93300000000005" type="line"/>
    </contour>
    <contour>
      <point x="159.99999999999991" y="453.8670000000001" type="line"/>
      <point x="159.99999999999986" y="800.0" type="line"/>
      <point x="319.9999999999999" y="800.0" type="line"/>
      <point x="319.9999999999999" y="453.8670000000001" type="line"/>
    </contour>
    <contour>
      <point x="119.99999999999991" y="516.8" type="line"/>
      <point x="119.99999999999986" y="800.0" type="line"/>
      <point x="279.9999999999999" y="800.0" type="line"/>
      <point x="279.9999999999999" y="516.8" type="line"/>
    </contour>
    <contour>
      <point x="79.99999999999989" y="579.733" type="line"/>
      <point x="79.99999999999986" y="800.0" type="line"/>
      <point x="239.99999999999986" y="800.0" type="line"/>
      <point x="239.9999999999999" y="579.733" type="line"/>
    </contour>
    <contour>
      <point x="39.999999999999886" y="642.667" type="line"/>
      <point x="39.99999999999986" y="800.0" type="line"/>
      <point x="199.99999999999986" y="800.0" type="line"/>
      <point x="199.9999999999999" y="642.667" type="line"/>
    </contour>
    <contour>
      <point x="-1.2789769243681803e-13" y="705.6" type="line"/>
      <point x="-1.4210854715202004e-13" y="800.0" type="line"/>
      <point x="159.99999999999986" y="800.0" type="line"/>
      <point x="159.9999999999999" y="705.6" type="line"/>
    </contour>
  </outline>
</glyph>
<glyph name="y_angle_315_step_60" format="2">
  <advance width="1210"/>
  <outline>
    <contour>
      <point x="659.4364704260752" y="56.568542494923975" type="line"/>
      <point x="758.431419792192" y="155.5634918610407" type="line"/>
      <point x="871.5685047820396" y="42.426406871193066" type="line"/>
      <point x="772.5735554159228" y="-56.56854249492365" type="line"/>
    </contour>
    <contour>
      <point x="574.5836566836895" y="56.56854249492389" type="line"/>
      <point x="758.4314197921918" y="240.41630560342637" type="line"/>
      <point x="871.5685047820394" y="127.27922061357883" type="line"/>
      <point x="687.7207416735371" y="-56.56854249492365" type="line"/>
    </contour>
    <contour>
      <point x="489.73084294130376" y="56.56854249492392" type="line"/>
      <point x="860.8162390673167" y="427.653938620937" type="line"/>
      <point x="973.9533240571643" y="314.5168536310894" type="line"/>
      <point x="602.8679279311514" y="-56.568542494923705" type="line"/>
    </contour>
    <contour>
      <point x="404.87802919891806" y="56.56854249492386" type="line"/>
      <point x="1008.8151025832233" y="660.5056158792295" type="line"/>
      <point x="1121.952187573071" y="547.3685308893819" type="line"/>
      <point x="518.0151141887657" y="-56.568542494923676" type="line"/>
    </contour>
    <contour>
      <point x="338.4312049708182" y="74.97453200920972" type="line"/>
      <point x="1120.0253215943376" y="856.5686486327295" type="line"/>
      <point x="1233.1624065841852" y="743.4315636428819" type="line"/>
      <point x="451.5682899606659" y="-38.16255298063781" type="line"/>
    </contour>
    <contour>
      <point x="338.43120497081827" y="159.8273457515954" type="line"/>
      <point x="1035.1725078519519" y="856.5686486327295" type="line"/>
      <point x="1148.3095928417995" y="743.4315636428819" type="line"/>
      <point x="451.56828996066594" y="46.690260761747865" type="line"/>
    </contour>
    <contour>
      <point x="338.4312049708182" y="244.68015949398114" type="line"/>
      <point x="595.1152091822221" y="501.36416370538507" type="line"/>
      <point x="708.2522941720697" y="388.22707871553746" type="line"/>
      <point x="451.5682899606658" y="131.54307450413353" type="line"/>
    </contour>
    <contour>
      <point x="604.8315634625064" y="511.0805179856694" type="line"/>
      <point x="950.3196941095662" y="856.5686486327295" type="line"/>
      <point x="1063.4567790994138" y="743.4315636428819" type="line"/>
      <point x="717.968648452354" y="397.94343299582187" type="line"/>
    </contour>
    <contour>
      <point x="313.9631890214201" y="305.0649572869687" type="line"/>
      <point x="564.385055578636" y="555.4868238441846" type="line"/>
      <point x="677.5221405684836" y="442.34973885433703" type="line"/>
      <point x="427.1002740112677" y="191.9278722971211" type="line"/>
    </contour>
    <contour>
      <point x="695.638923409264" y="686.7406916748128" type="line"/>
      <point x="865.4668803671807" y="856.5686486327295" type="line"/>
      <point x="978.6039653570283" y="743.4315636428819" type="line"/>
      <point x="808.7760083991116" y="573.6036066849651" type="line"/>
    </contour>
    <contour>
      <point x="280.989385601129" y="356.9439676090633" type="line"/>
      <point x="533.6541948682684" y="609.6087768762029" type="line"/>
      <point x="646.791279858116" y="496.47169188635536" type="line"/>
      <point x="394.1264705909767" y="243.80688261921574" type="line"/>
    </contour>
    <contour>
      <point x="248.01558218083787" y="408.8229779311579" type="line"/>
      <point x="502.9240412646823" y="663.7314370150025" type="line"/>
      <point x="616.0611262545299" y="550.5943520251549" type="line"/>
      <point x="361.15266717068556" y="295.6858929413104" type="line"/>
    </contour>
    <contour>
      <point x="215.04177876054675" y="460.70198825325247" type="line"/>
      <point x="472.19318055431484" y="717.8533900470209" type="line"/>
      <point x="585.3302655441624" y="604.7163050571733" type="line"/>
      <point x="328.17886375039444" y="347.564903263405" type="line"/>
    </contour>
    <contour>
      <point x="182.06797534025569" y="512.5809985753472" type="line"/>
      <point x="441.4630269507287" y="771.9760501858202" type="line"/>
      <point x="554.6001119405763" y="658.8389651959726" type="line"/>
      <point x="295.20506033010327" y="399.44391358549956" type="line"/>
    </contour>
    <contour>
      <point x="149.09417191996462" y="564.4600088974418" type="line"/>
      <point x="410.7321662403614" y="826.0980032178386" type="line"/>
      <point x="523.869251230209" y="712.960918227991" type="line"/>
      <point x="262.2312569098122" y="451.32292390759415" type="line"/>
    </contour>
    <contour>
      <point x="116.11966139289234" y="616.3383121127553" type="line"/>
      <point x="356.34999791286634" y="856.5686486327294" type="line"/>
      <point x="469.48708290271395" y="743.4315636428818" type="line"/>
      <point x="229.25674638273995" y="503.20122712290765" type="line"/>
    </contour>
    <contour>
      <point x="83.14585797260119" y="668.2173224348498" type="line"/>
      <point x="271.49718417048064" y="856.5686486327294" type="line"/>
      <point x="384.63426916032824" y="743.4315636428818" type="line"/>
      <point x="196.28294296244877" y="555.0802374450022" type="line"/>
    </contour>
    <contour>
      <point x="50.17205455231006" y="720.0963327569444" type="line"/>
      <point x="186.64437042809482" y="856.5686486327294" type="line"/>
      <point x="299.78145541794254" y="743.4315636428818" type="line"/>
      <point x="163.30913954215774" y="606.9592477670968" type="line"/>
    </contour>
    <contour>
      <point x="17.19825113201899" y="771.975343079039" type="line"/>
      <point x="101.79155668570922" y="856.5686486327293" type="line"/>
      <point x="214.92864167555683" y="743.4315636428817" type="line"/>
      <point x="130.3353361218666" y="658.8382580891914" type="line"/>
    </contour>
  </outline>
</glyph>
<glyph name="y_angle_45_step_40" format="2">
  <advance width="1210"/>
  <outline>
    <contour>
      <point x="451.5682899606659" y="155.56349186104052" type="line"/>
      <point x="550.5632393267825" y="56.568542494923854" type="line"/>
      <point x="437.4261543369349" y="-56.56854249492373" type="line"/>
      <point x="338.43120497081827" y="42.426406871192924" type="line"/>
    </contour>
    <contour>
      <point x="451.5682899606659" y="212.1320343559643" type="line"/>
      <point x="607.1317818217063" y="56.5685424949238" type="line"/>
      <point x="493.99469683185873" y="-56.56854249492379" type="line"/>
      <point x="338.43120497081827" y="98.9949493661167" type="line"/>
    </contour>
    <contour>
      <point x="447.84961539840583" y="272.4192514131481" type="line"/>
      <point x="663.7003243166301" y="56.5685424949238" type="line"/>
      <point x="550.5632393267825" y="-56.56854249492379" type="line"/>
      <point x="334.7125304085582" y="159.2821664233005" type="line"/>
    </contour>
    <contour>
      <point x="349.18347068554084" y="427.65393862093686" type="line"/>
      <point x="720.2688668115538" y="56.568542494923854" type="line"/>
      <point x="607.1317818217062" y="-56.56854249492373" type="line"/>
      <point x="236.04638569569323" y="314.51685363108925" type="line"/>
    </contour>
    <contour>
      <point x="250.51732597267593" y="582.8886258287255" type="line"/>
      <point x="776.8374093064776" y="56.568542494923854" type="line"/>
      <point x="663.70032431663" y="-56.56854249492373" type="line"/>
      <point x="137.3802409828283" y="469.7515408388779" type="line"/>
    </contour>
    <contour>
      <point x="151.85188836659222" y="738.122605929733" type="line"/>
      <point x="833.4059518014014" y="56.568542494923854" type="line"/>
      <point x="720.2688668115538" y="-56.56854249492373" type="line"/>
      <point x="38.7148033767446" y="624.9855209398854" type="line"/>
    </contour>
    <contour>
      <point x="89.97438815851984" y="856.5686486327293" type="line"/>
      <point x="871.5685047820396" y="74.97453200920967" type="line"/>
      <point x="758.431419792192" y="-38.162552980637926" type="line"/>
      <point x="-23.16269683132778" y="743.4315636428817" type="line"/>
    </contour>
    <contour>
      <point x="146.5429306534436" y="856.5686486327293" type="line"/>
      <point x="871.5685047820396" y="131.54307450413347" type="line"/>
      <point x="758.431419792192" y="18.405989514285878" type="line"/>
      <point x="33.40584566359597" y="743.4315636428817" type="line"/>
    </contour>
    <contour>
      <point x="203.1114731483674" y="856.5686486327293" type="line"/>
      <point x="871.5685047820396" y="188.11161699905728" type="line"/>
      <point x="758.431419792192" y="74.97453200920968" type="line"/>
      <point x="89.97438815851977" y="743.4315636428817" type="line"/>
    </contour>
    <contour>
      <point x="259.6800156432912" y="856.5686486327293" type="line"/>
      <point x="871.5685047820396" y="244.68015949398108" type="line"/>
      <point x="758.431419792192" y="131.54307450413347" type="line"/>
      <point x="146.5429306534436" y="743.4315636428817" type="line"/>
    </contour>
    <contour>
      <point x="316.248558138215" y="856.5686486327293" type="line"/>
      <point x="885.0452529246738" y="287.77195384627055" type="line"/>
      <point x="771.9081679348262" y="174.63486885642294" type="line"/>
      <point x="203.1114731483674" y="743.4315636428817" type="line"/>
    </contour>
    <contour>
      <point x="372.8171006331388" y="856.5686486327294" type="line"/>
      <point x="682.280969205869" y="547.1047800599993" type="line"/>
      <point x="569.1438842160214" y="433.9676950701516" type="line"/>
      <point x="259.6800156432912" y="743.4315636428818" type="line"/>
    </contour>
    <contour>
      <point x="718.0831997509063" y="511.3025495149619" type="line"/>
      <point x="907.0277885382013" y="322.357960727667" type="line"/>
      <point x="793.8907035483537" y="209.22087573781937" type="line"/>
      <point x="604.9461147610587" y="398.1654645251143" type="line"/>
    </contour>
    <contour>
      <point x="429.3856431280626" y="856.5686486327294" type="line"/>
      <point x="607.9647536099441" y="677.9895381508479" type="line"/>
      <point x="494.82766862009646" y="564.8524531610003" type="line"/>
      <point x="316.248558138215" y="743.4315636428818" type="line"/>
    </contour>
    <contour>
      <point x="737.3610519263951" y="548.5932398343969" type="line"/>
      <point x="929.0103241517287" y="356.94396760906335" type="line"/>
      <point x="815.8732391618811" y="243.80688261921574" type="line"/>
      <point x="624.2239669365475" y="435.45615484454925" type="line"/>
    </contour>
    <contour>
      <point x="756.6381969951028" y="585.8846372606131" type="line"/>
      <point x="950.9928597652561" y="391.5299744904598" type="line"/>
      <point x="837.8557747754085" y="278.39288950061217" type="line"/>
      <point x="643.5011120052552" y="472.7475522707655" type="line"/>
    </contour>
    <contour>
      <point x="775.9160491705916" y="623.175327580048" type="line"/>
      <point x="972.9753953787834" y="426.1159813718562" type="line"/>
      <point x="859.8383103889358" y="312.9788963820086" type="line"/>
      <point x="662.778964180744" y="510.0382425902004" type="line"/>
    </contour>
    <contour>
      <point x="795.1939013460805" y="660.466017899483" type="line"/>
      <point x="994.9579309923108" y="460.7019882532526" type="line"/>
      <point x="881.8208460024632" y="347.564903263405" type="line"/>
      <point x="682.0568163562328" y="547.3289329096353" type="line"/>
    </contour>
    <contour>
      <point x="814.4710464147881" y="697.7574153256991" type="line"/>
      <point x="1016.9404666058382" y="495.287995134649" type="line"/>
      <point x="903.8033816159906" y="382.1509101448014" type="line"/>
      <point x="701.3339614249405" y="584.6203303358515" type="line"/>
    </contour>
    <contour>
      <point x="833.748898590277" y="735.048105645134" type="line"/>
      <point x="1038.9237093261468" y="529.8732949092642" type="line"/>
      <point x="925.7866243362992" y="416.73620991941664" type="line"/>
      <point x="720.6118136004294" y="621.9110206552864" type="line"/>
    </contour>
    <contour>
      <point x="853.0260436589847" y="772.3395030713502" type="line"/>
      <point x="1060.9062449396743" y="564.4593017906607" type="line"/>
      <point x="947.7691599498266" y="451.32221680081307" type="line"/>
      <point x="739.8889586691371" y="659.2024180815026" type="line"/>
    </contour>
    <contour>
      <point x="872.3038958344735" y="809.6301933907852" type="line"/>
      <point x="1082.8887805532015" y="599.045308672057" type="line"/>
      <point x="969.7516955633539" y="485.90822368220944" type="line"/>
      <point x="759.1668108446258" y="696.4931084009376" type="line"/>
    </contour>
    <contour>
      <point x="891.5810409031811" y="846.9215908170013" type="line"/>
      <point x="1104.871316166729" y="633.6313155534535" type="line"/>
      <point x="991.7342311768814" y="520.4942305636059" type="line"/>
      <point x="778.4439559133335" y="733.7845058271537" type="line"/>
    </contour>
    <contour>
      <point x="938.5025255823768" y="856.5686486327294" type="line"/>
      <point x="1126.8538517802563" y="668.2173224348498" type="line"/>
      <point x="1013.7167667904087" y="555.0802374450022" type="line"/>
      <point x="825.3654405925292" y="743.4315636428818" type="line"/>
    </contour>
    <contour>
      <point x="995.0710680773007" y="856.5686486327294" type="line"/>
      <point x="1148.8363873937838" y="702.8033293162464" type="line"/>
      <point x="1035.6993024039361" y="589.6662443263988" type="line"/>
      <point x="881.933983087453" y="743.4315636428818" type="line"/>
    </contour>
    <contour>
      <point x="1051.6396105722245" y="856.5686486327294" type="line"/>
      <point x="1170.8189230073112" y="737.3893361976427" type="line"/>
      <point x="1057.6818380174636" y="624.2522512077951" type="line"/>
      <point x="938.5025255823768" y="743.4315636428818" type="line"/>
    </contour>
    <contour>
      <point x="1108.2081530671483" y="856.5686486327294" type="line"/>
      <point x="1192.8014586208385" y="771.9753430790391" type="line"/>
      <point x="1079.664373630991" y="658.8382580891915" type="line"/>
      <point x="995.0710680773007" y="743.4315636428818" type="line"/>
    </contour>
  </outline>
</glyph>
<glyph name="y_angle_45_step_80" format="2">
  <advance width="1210"/>
  <outline>
    <contour>
      <point x="451.5682899606659" y="212.1320343559643" type="line"/>
      <point x="607.1317818217063" y="56.5685424949238" type="line"/>
      <point x="493.99469683185873" y="-56.56854249492379" type="line"/>
      <point x="338.43120497081827" y="98.9949493661167" type="line"/>
    </contour>
    <contour>
      <point x="349.18347068554084" y="427.65393862093686" type="line"/>
      <point x="720.2688668115538" y="56.568542494923854" type="line"/>
      <point x="607.1317818217062" y="-56.56854249492373" type="line"/>
      <point x="236.04638569569323" y="314.51685363108925" type="line"/>
    </contour>
    <contour>
      <point x="151.85188836659222" y="738.122605929733" type="line"/>
      <point x="833.4059518014014" y="56.568542494923854" type="line"/>
      <point x="720.2688668115538" y="-56.56854249492373" type="line"/>
      <point x="38.7148033767446" y="624.9855209398854" type="line"/>
    </contour>
    <contour>
      <point x="146.5429306534436" y="856.5686486327293" type="line"/>
      <point x="871.5685047820396" y="131.54307450413347" type="line"/>
      <point x="758.431419792192" y="18.405989514285878" type="line"/>
      <point x="33.40584566359597" y="743.4315636428817" type="line"/>
    </contour>
    <contour>
      <point x="259.6800156432912" y="856.5686486327293" type="line"/>
      <point x="871.5685047820396" y="244.68015949398108" type="line"/>
      <point x="758.431419792192" y="131.54307450413347" type="line"/>
      <point x="146.5429306534436" y="743.4315636428817" type="line"/>
    </contour>
    <contour>
      <point x="372.8171006331388" y="856.5686486327294" type="line"/>
      <point x="682.280969205869" y="547.1047800599993" type="line"/>
      <point x="569.1438842160214" y="433.9676950701516" type="line"/>
      <point x="259.6800156432912" y="743.4315636428818" type="line"/>
    </contour>
    <contour>
      <point x="718.0831997509063" y="511.3025495149619" type="line"/>
      <point x="907.0277885382013" y="322.357960727667" type="line"/>
      <point x="793.8907035483537" y="209.22087573781937" type="line"/>
      <point x="604.9461147610587" y="398.1654645251143" type="line"/>
    </contour>
    <contour>
      <point x="756.6381969951028" y="585.8846372606131" type="line"/>
      <point x="950.9928597652561" y="391.5299744904598" type="line"/>
      <point x="837.8557747754085" y="278.39288950061217" type="line"/>
      <point x="643.5011120052552" y="472.7475522707655" type="line"/>
    </contour>
    <contour>
      <point x="795.1939013460805" y="660.466017899483" type="line"/>
      <point x="994.9579309923108" y="460.7019882532526" type="line"/>
      <point x="881.8208460024632" y="347.564903263405" type="line"/>
      <point x="682.0568163562328" y="547.3289329096353" type="line"/>
    </contour>
    <contour>
      <point x="833.748898590277" y="735.048105645134" type="line"/>
      <point x="1038.9237093261468" y="529.8732949092642" type="line"/>
      <point x="925.7866243362992" y="416.73620991941664" type="line"/>
      <point x="720.6118136004294" y="621.9110206552864" type="line"/>
    </contour>
    <contour>
      <point x="872.3038958344735" y="809.6301933907852" type="line"/>
      <point x="1082.8887805532015" y="599.045308672057" type="line"/>
      <point x="969.7516955633539" y="485.90822368220944" type="line"/>
      <point x="759.1668108446258" y="696.4931084009376" type="line"/>
    </contour>
    <contour>
      <point x="938.5025255823768" y="856.5686486327294" type="line"/>
      <point x="1126.8538517802563" y="668.2173224348498" type="line"/>
      <point x="1013.7167667904087" y="555.0802374450022" type="line"/>
      <point x="825.3654405925292" y="743.4315636428818" type="line"/>
    </contour>
    <contour>
      <point x="1051.6396105722245" y="856.5686486327294" type="line"/>
      <point x="1170.8189230073112" y="737.3893361976427" type="line"/>
      <point x="1057.6818380174636" y="624.2522512077951" type="line"/>
      <point x="938.5025255823768" y="743.4315636428818" type="line"/>
    </contour>
  </outline>
</glyph>
<glyph name="y_angle_90_step_40" format="2">
  <advance width="1210"/>
  <outline>
    <contour>
      <point x="169.99999999999994" y="800.0" type="line"/>
      <point x="169.99999999999994" y="689.867" type="line"/>
      <point x="9.999999999999957" y="689.867" type="line"/>
      <point x="9.999999999999957" y="800.0" type="line"/>
    </contour>
    <contour>
      <point x="209.99999999999994" y="800.0" type="line"/>
      <point x="209.99999999999997" y="626.933" type="line"/>
      <point x="49.99999999999997" y="626.933" type="line"/>
      <point x="49.99999999999994" y="800.0" type="line"/>
    </contour>
    <contour>
      <point x="249.99999999999994" y="800.0" type="line"/>
      <point x="249.99999999999997" y="564.0" type="line"/>
      <point x="89.99999999999997" y="564.0" type="line"/>
      <point x="89.99999999999994" y="800.0" type="line"/>
    </contour>
    <contour>
      <point x="289.99999999999994" y="800.0" type="line"/>
      <point x="290.0" y="501.067" type="line"/>
      <point x="129.99999999999997" y="501.067" type="line"/>
      <point x="129.99999999999994" y="800.0" type="line"/>
    </contour>
    <contour>
      <point x="329.99999999999994" y="800.0" type="line"/>
      <point x="330.0" y="438.133" type="line"/>
      <point x="169.99999999999997" y="438.133" type="line"/>
      <point x="169.99999999999994" y="800.0" type="line"/>
    </contour>
    <contour>
      <point x="369.99999999999994" y="800.0" type="line"/>
      <point x="370.0" y="375.2" type="line"/>
      <point x="210.0" y="375.2" type="line"/>
      <point x="209.99999999999994" y="800.0" type="line"/>
    </contour>
    <contour>
      <point x="409.99999999999994" y="800.0" type="line"/>
      <point x="410.0" y="312.267" type="line"/>
      <point x="250.0" y="312.267" type="line"/>
      <point x="249.99999999999994" y="800.0" type="line"/>
    </contour>
    <contour>
      <point x="449.99999999999994" y="800.0" type="line"/>
      <point x="450.0" y="249.33300000000003" type="line"/>
      <point x="290.0" y="249.33300000000003" type="line"/>
      <point x="289.99999999999994" y="800.0" type="line"/>
    </contour>
    <contour>
      <point x="489.99999999999994" y="800.0" type="line"/>
      <point x="490.0" y="2.510525938252074e-14" type="line"/>
      <point x="330.0" y="3.490243377569957e-14" type="line"/>
      <point x="329.99999999999994" y="800.0" type="line"/>
    </contour>
    <contour>
      <point x="530.0" y="800.0" type="line"/>
      <point x="530.0" y="2.7554552980815446e-14" type="line"/>
      <point x="370.0" y="3.735172737399427e-14" type="line"/>
      <point x="369.99999999999994" y="800.0" type="line"/>
    </contour>
    <contour>
      <point x="570.0" y="729.552" type="line"/>
      <point x="570.0" y="3.0003846579110155e-14" type="line"/>
      <point x="410.0" y="3.980102097228898e-14" type="line"/>
      <point x="409.99999999999994" y="729.552" type="line"/>
    </contour>
    <contour>
      <point x="610.0" y="659.104" type="line"/>
      <point x="610.0" y="3.245314017740486e-14" type="line"/>
      <point x="450.0" y="4.225031457058368e-14" type="line"/>
      <point x="450.0" y="659.104" type="line"/>
    </contour>
    <contour>
      <point x="650.0" y="588.657" type="line"/>
      <point x="650.0" y="3.490243377569957e-14" type="line"/>
      <point x="490.0" y="4.469960816887839e-14" type="line"/>
      <point x="490.0" y="588.657" type="line"/>
    </contour>
    <contour>
      <point x="690.0" y="518.209" type="line"/>
      <point x="690.0" y="3.735172737399427e-14" type="line"/>
      <point x="530.0" y="4.7148901767173095e-14" type="line"/>
      <point x="530.0" y="518.209" type="line"/>
    </contour>
    <contour>
      <point x="730.0" y="447.7610000000001" type="line"/>
      <point x="730.0" y="3.980102097228898e-14" type="line"/>
      <point x="570.0" y="4.9598195365467804e-14" type="line"/>
      <point x="570.0" y="447.7610000000001" type="line"/>
    </contour>
    <contour>
      <point x="770.0" y="509.83600000000007" type="line"/>
      <point x="770.0" y="4.225031457058368e-14" type="line"/>
      <point x="610.0" y="5.204748896376251e-14" type="line"/>
      <point x="610.0" y="509.83600000000007" type="line"/>
    </contour>
    <contour>
      <point x="810.0" y="587.213" type="line"/>
      <point x="810.0" y="4.469960816887839e-14" type="line"/>
      <point x="650.0" y="5.4496782562057217e-14" type="line"/>
      <point x="650.0" y="587.213" type="line"/>
    </contour>
    <contour>
      <point x="850.0" y="664.59" type="line"/>
      <point x="850.0" y="4.71489017671731e-14" type="line"/>
      <point x="690.0" y="5.694607616035193e-14" type="line"/>
      <point x="690.0" y="664.59" type="line"/>
    </contour>
    <contour>
      <point x="890.0" y="741.967" type="line"/>
      <point x="890.0" y="4.9598195365467804e-14" type="line"/>
      <point x="730.0" y="5.939536975864664e-14" type="line"/>
      <point x="730.0" y="741.967" type="line"/>
    </contour>
    <contour>
      <point x="930.0" y="800.0" type="line"/>
      <point x="930.0" y="265.06700000000006" type="line"/>
      <point x="770.0" y="265.06700000000006" type="line"/>
      <point x="770.0" y="800.0" type="line"/>
    </contour>
    <contour>
      <point x="970.0" y="800.0" type="line"/>
      <point x="970.0" y="328.00000000000006" type="line"/>
      <point x="810.0" y="328.00000000000006" type="line"/>
      <point x="810.0" y="800.0" type="line"/>
    </contour>
    <contour>
      <point x="1010.0" y="800.0000000000001" type="line"/>
      <point x="1010.0" y="390.93300000000005" type="line"/>
      <point x="850.0" y="390.93300000000005" type="line"/>
      <point x="850.0" y="800.0000000000001" type="line"/>
    </contour>
    <contour>
      <point x="1050.0" y="800.0000000000001" type="line"/>
      <point x="1050.0" y="453.8670000000001" type="line"/>
      <point x="890.0" y="453.8670000000001" type="line"/>
      <point x="890.0" y="800.0000000000001" type="line"/>
    </contour>
    <contour>
      <point x="1090.0" y="800.0000000000001" type="line"/>
      <point x="1090.0" y="516.8000000000001" type="line"/>
      <point x="930.0" y="516.8000000000001" type="line"/>
      <point x="930.0" y="800.0000000000001" type="line"/>
    </contour>
    <contour>
      <point x="1130.0" y="800.0000000000001" type="line"/>
      <point x="1130.0" y="579.7330000000001" type="line"/>
      <point x="970.0" y="579.7330000000001" type="line"/>
      <point x="970.0" y="800.0000000000001" type="line"/>
    </contour>
    <contour>
      <point x="1170.0" y="800.0000000000001" type="line"/>
      <point x="1170.0" y="642.6670000000001" type="line"/>
      <point x="1010.0" y="642.6670000000001" type="line"/>
      <point x="1010.0" y="800.0000000000001" type="line"/>
    </contour>
    <contour>
      <point x="1210.0" y="800.0000000000001" type="line"/>
      <point x="1210.0" y="705.6000000000001" type="line"/>
      <point x="1050.0" y="705.6000000000001" type="line"/>
      <point x="1050.0" y="800.0000000000001" type="line"/>
    </contour>
  </outline>
</glyph>
